M48
; DRILL file {KiCad 5.1.4+dfsg1-1} date Tue 03 Dec 2019 21:23:44 AEST
; FORMAT={-:-/ absolute / inch / decimal}
; #@! TF.CreationDate,2019-12-03T21:23:44+10:00
; #@! TF.GenerationSoftware,Kicad,Pcbnew,5.1.4+dfsg1-1
; #@! TF.FileFunction,Plated,1,2,PTH
FMAT,2
INCH
T1C0.0315
T2C0.0394
T3C0.0433
T4C0.0472
T5C0.0512
T6C0.0630
%
G90
G05
T1
X3.8Y-3.2
X3.8Y-3.6
X3.4Y-4.65
X3.8Y-4.65
X4.4Y-3.2
X4.4Y-3.6
X3.4Y-4.05
X3.8Y-4.05
X4.9Y-2.95
X4.9Y-3.55
X5.0Y-2.95
X5.0Y-3.55
X5.6Y-2.95
X5.6Y-3.55
X5.8Y-2.95
X5.8Y-3.55
X3.4Y-4.35
X3.8Y-4.35
T2
X4.85Y-4.55
X4.95Y-4.55
X5.05Y-4.55
X5.15Y-4.55
X5.25Y-4.55
X5.35Y-4.55
X5.45Y-4.55
X5.55Y-4.55
X5.65Y-4.55
X5.75Y-4.55
X5.85Y-4.55
X5.95Y-4.55
X4.85Y-3.95
X4.95Y-3.95
X5.05Y-3.95
X5.15Y-3.95
X5.25Y-3.95
X5.35Y-3.95
X5.45Y-3.95
X5.55Y-3.95
X5.65Y-3.95
X5.75Y-3.95
X5.85Y-3.95
X5.95Y-3.95
X4.75Y-2.45
X4.85Y-2.45
X4.95Y-2.45
X5.05Y-2.45
X5.15Y-2.45
X5.25Y-2.45
X5.35Y-2.45
X5.45Y-2.45
T3
X4.0Y-3.2
X4.1Y-3.2
X4.2Y-3.2
X3.4Y-3.2
X3.5Y-3.2
X3.6Y-3.2
X3.95Y-2.9
X4.35Y-2.9
X3.4Y-2.9
X3.8Y-2.9
T4
X4.05Y-4.55
X4.05Y-4.65
X4.05Y-3.95
X4.05Y-4.05
X4.05Y-4.25
X4.05Y-4.35
T5
X3.55Y-2.35
X3.75Y-2.35
X4.05Y-2.35
X4.25Y-2.35
X6.45Y-3.1236
X6.45Y-4.6
X6.3Y-2.35
X6.5Y-2.35
T6
X6.15Y-2.85
X6.75Y-2.85
T0
M30
