%TF.GenerationSoftware,KiCad,Pcbnew,5.1.4+dfsg1-1*%
%TF.CreationDate,2019-12-03T13:40:21+10:00*%
%TF.ProjectId,Actuators,41637475-6174-46f7-9273-2e6b69636164,1*%
%TF.SameCoordinates,Original*%
%TF.FileFunction,Copper,L1,Top*%
%TF.FilePolarity,Positive*%
%FSLAX46Y46*%
G04 Gerber Fmt 4.6, Leading zero omitted, Abs format (unit mm)*
G04 Created by KiCad (PCBNEW 5.1.4+dfsg1-1) date 2019-12-03 13:40:21*
%MOMM*%
%LPD*%
G04 APERTURE LIST*
%ADD10O,2.200000X1.740000*%
%ADD11C,0.100000*%
%ADD12C,1.740000*%
%ADD13O,1.200000X2.000000*%
%ADD14O,6.000000X3.250000*%
%ADD15O,1.600000X1.600000*%
%ADD16C,1.600000*%
%ADD17C,2.600000*%
%ADD18R,2.600000X2.600000*%
%ADD19O,1.700000X1.700000*%
%ADD20R,1.700000X1.700000*%
%ADD21O,1.905000X2.000000*%
%ADD22R,1.905000X2.000000*%
%ADD23O,3.200000X3.200000*%
%ADD24R,3.200000X3.200000*%
%ADD25O,2.200000X2.200000*%
%ADD26R,2.200000X2.200000*%
%ADD27C,0.500000*%
%ADD28C,0.250000*%
G04 APERTURE END LIST*
D10*
X102870000Y-115570000D03*
D11*
G36*
X103744505Y-117241204D02*
G01*
X103768773Y-117244804D01*
X103792572Y-117250765D01*
X103815671Y-117259030D01*
X103837850Y-117269520D01*
X103858893Y-117282132D01*
X103878599Y-117296747D01*
X103896777Y-117313223D01*
X103913253Y-117331401D01*
X103927868Y-117351107D01*
X103940480Y-117372150D01*
X103950970Y-117394329D01*
X103959235Y-117417428D01*
X103965196Y-117441227D01*
X103968796Y-117465495D01*
X103970000Y-117489999D01*
X103970000Y-118730001D01*
X103968796Y-118754505D01*
X103965196Y-118778773D01*
X103959235Y-118802572D01*
X103950970Y-118825671D01*
X103940480Y-118847850D01*
X103927868Y-118868893D01*
X103913253Y-118888599D01*
X103896777Y-118906777D01*
X103878599Y-118923253D01*
X103858893Y-118937868D01*
X103837850Y-118950480D01*
X103815671Y-118960970D01*
X103792572Y-118969235D01*
X103768773Y-118975196D01*
X103744505Y-118978796D01*
X103720001Y-118980000D01*
X102019999Y-118980000D01*
X101995495Y-118978796D01*
X101971227Y-118975196D01*
X101947428Y-118969235D01*
X101924329Y-118960970D01*
X101902150Y-118950480D01*
X101881107Y-118937868D01*
X101861401Y-118923253D01*
X101843223Y-118906777D01*
X101826747Y-118888599D01*
X101812132Y-118868893D01*
X101799520Y-118847850D01*
X101789030Y-118825671D01*
X101780765Y-118802572D01*
X101774804Y-118778773D01*
X101771204Y-118754505D01*
X101770000Y-118730001D01*
X101770000Y-117489999D01*
X101771204Y-117465495D01*
X101774804Y-117441227D01*
X101780765Y-117417428D01*
X101789030Y-117394329D01*
X101799520Y-117372150D01*
X101812132Y-117351107D01*
X101826747Y-117331401D01*
X101843223Y-117313223D01*
X101861401Y-117296747D01*
X101881107Y-117282132D01*
X101902150Y-117269520D01*
X101924329Y-117259030D01*
X101947428Y-117250765D01*
X101971227Y-117244804D01*
X101995495Y-117241204D01*
X102019999Y-117240000D01*
X103720001Y-117240000D01*
X103744505Y-117241204D01*
X103744505Y-117241204D01*
G37*
D12*
X102870000Y-118110000D03*
D13*
X124460000Y-74930000D03*
X124460000Y-90170000D03*
X127000000Y-74930000D03*
X127000000Y-90170000D03*
X142240000Y-74930000D03*
X142240000Y-90170000D03*
X147320000Y-74930000D03*
X147320000Y-90170000D03*
D14*
X163830000Y-116840000D03*
X163830000Y-79340000D03*
D10*
X102870000Y-107950000D03*
D11*
G36*
X103744505Y-109621204D02*
G01*
X103768773Y-109624804D01*
X103792572Y-109630765D01*
X103815671Y-109639030D01*
X103837850Y-109649520D01*
X103858893Y-109662132D01*
X103878599Y-109676747D01*
X103896777Y-109693223D01*
X103913253Y-109711401D01*
X103927868Y-109731107D01*
X103940480Y-109752150D01*
X103950970Y-109774329D01*
X103959235Y-109797428D01*
X103965196Y-109821227D01*
X103968796Y-109845495D01*
X103970000Y-109869999D01*
X103970000Y-111110001D01*
X103968796Y-111134505D01*
X103965196Y-111158773D01*
X103959235Y-111182572D01*
X103950970Y-111205671D01*
X103940480Y-111227850D01*
X103927868Y-111248893D01*
X103913253Y-111268599D01*
X103896777Y-111286777D01*
X103878599Y-111303253D01*
X103858893Y-111317868D01*
X103837850Y-111330480D01*
X103815671Y-111340970D01*
X103792572Y-111349235D01*
X103768773Y-111355196D01*
X103744505Y-111358796D01*
X103720001Y-111360000D01*
X102019999Y-111360000D01*
X101995495Y-111358796D01*
X101971227Y-111355196D01*
X101947428Y-111349235D01*
X101924329Y-111340970D01*
X101902150Y-111330480D01*
X101881107Y-111317868D01*
X101861401Y-111303253D01*
X101843223Y-111286777D01*
X101826747Y-111268599D01*
X101812132Y-111248893D01*
X101799520Y-111227850D01*
X101789030Y-111205671D01*
X101780765Y-111182572D01*
X101774804Y-111158773D01*
X101771204Y-111134505D01*
X101770000Y-111110001D01*
X101770000Y-109869999D01*
X101771204Y-109845495D01*
X101774804Y-109821227D01*
X101780765Y-109797428D01*
X101789030Y-109774329D01*
X101799520Y-109752150D01*
X101812132Y-109731107D01*
X101826747Y-109711401D01*
X101843223Y-109693223D01*
X101861401Y-109676747D01*
X101881107Y-109662132D01*
X101902150Y-109649520D01*
X101924329Y-109639030D01*
X101947428Y-109630765D01*
X101971227Y-109624804D01*
X101995495Y-109621204D01*
X102019999Y-109620000D01*
X103720001Y-109620000D01*
X103744505Y-109621204D01*
X103744505Y-109621204D01*
G37*
D12*
X102870000Y-110490000D03*
D10*
X102870000Y-100330000D03*
D11*
G36*
X103744505Y-102001204D02*
G01*
X103768773Y-102004804D01*
X103792572Y-102010765D01*
X103815671Y-102019030D01*
X103837850Y-102029520D01*
X103858893Y-102042132D01*
X103878599Y-102056747D01*
X103896777Y-102073223D01*
X103913253Y-102091401D01*
X103927868Y-102111107D01*
X103940480Y-102132150D01*
X103950970Y-102154329D01*
X103959235Y-102177428D01*
X103965196Y-102201227D01*
X103968796Y-102225495D01*
X103970000Y-102249999D01*
X103970000Y-103490001D01*
X103968796Y-103514505D01*
X103965196Y-103538773D01*
X103959235Y-103562572D01*
X103950970Y-103585671D01*
X103940480Y-103607850D01*
X103927868Y-103628893D01*
X103913253Y-103648599D01*
X103896777Y-103666777D01*
X103878599Y-103683253D01*
X103858893Y-103697868D01*
X103837850Y-103710480D01*
X103815671Y-103720970D01*
X103792572Y-103729235D01*
X103768773Y-103735196D01*
X103744505Y-103738796D01*
X103720001Y-103740000D01*
X102019999Y-103740000D01*
X101995495Y-103738796D01*
X101971227Y-103735196D01*
X101947428Y-103729235D01*
X101924329Y-103720970D01*
X101902150Y-103710480D01*
X101881107Y-103697868D01*
X101861401Y-103683253D01*
X101843223Y-103666777D01*
X101826747Y-103648599D01*
X101812132Y-103628893D01*
X101799520Y-103607850D01*
X101789030Y-103585671D01*
X101780765Y-103562572D01*
X101774804Y-103538773D01*
X101771204Y-103514505D01*
X101770000Y-103490001D01*
X101770000Y-102249999D01*
X101771204Y-102225495D01*
X101774804Y-102201227D01*
X101780765Y-102177428D01*
X101789030Y-102154329D01*
X101799520Y-102132150D01*
X101812132Y-102111107D01*
X101826747Y-102091401D01*
X101843223Y-102073223D01*
X101861401Y-102056747D01*
X101881107Y-102042132D01*
X101902150Y-102029520D01*
X101924329Y-102019030D01*
X101947428Y-102010765D01*
X101971227Y-102004804D01*
X101995495Y-102001204D01*
X102019999Y-102000000D01*
X103720001Y-102000000D01*
X103744505Y-102001204D01*
X103744505Y-102001204D01*
G37*
D12*
X102870000Y-102870000D03*
D15*
X86360000Y-118110000D03*
D16*
X96520000Y-118110000D03*
D15*
X86360000Y-110490000D03*
D16*
X96520000Y-110490000D03*
D15*
X86360000Y-102870000D03*
D16*
X96520000Y-102870000D03*
D17*
X95250000Y-59690000D03*
D18*
X90170000Y-59690000D03*
D17*
X165100000Y-59690000D03*
D18*
X160020000Y-59690000D03*
D15*
X99060000Y-91440000D03*
D16*
X88900000Y-91440000D03*
D15*
X116840000Y-87630000D03*
D16*
X106680000Y-87630000D03*
D17*
X107950000Y-59690000D03*
D18*
X102870000Y-59690000D03*
D19*
X120650000Y-62230000D03*
X123190000Y-62230000D03*
X125730000Y-62230000D03*
X128270000Y-62230000D03*
X130810000Y-62230000D03*
X133350000Y-62230000D03*
X135890000Y-62230000D03*
D20*
X138430000Y-62230000D03*
D21*
X87630000Y-81280000D03*
X90170000Y-81280000D03*
D22*
X92710000Y-81280000D03*
D21*
X101600000Y-81280000D03*
X104140000Y-81280000D03*
D22*
X106680000Y-81280000D03*
D19*
X123190000Y-115570000D03*
X125730000Y-115570000D03*
X128270000Y-115570000D03*
X130810000Y-115570000D03*
X133350000Y-115570000D03*
X135890000Y-115570000D03*
X138430000Y-115570000D03*
X140970000Y-115570000D03*
X143510000Y-115570000D03*
X146050000Y-115570000D03*
X148590000Y-115570000D03*
D20*
X151130000Y-115570000D03*
D19*
X123190000Y-100330000D03*
X125730000Y-100330000D03*
X128270000Y-100330000D03*
X130810000Y-100330000D03*
X133350000Y-100330000D03*
X135890000Y-100330000D03*
X138430000Y-100330000D03*
X140970000Y-100330000D03*
X143510000Y-100330000D03*
X146050000Y-100330000D03*
X148590000Y-100330000D03*
D20*
X151130000Y-100330000D03*
D23*
X156210000Y-72390000D03*
D24*
X171450000Y-72390000D03*
D25*
X86360000Y-73660000D03*
D26*
X96520000Y-73660000D03*
D25*
X100330000Y-73660000D03*
D26*
X110490000Y-73660000D03*
D27*
X101600000Y-81327500D02*
X105362500Y-85090000D01*
X101600000Y-81280000D02*
X101600000Y-81327500D01*
X135890000Y-62230000D02*
X135890000Y-74930000D01*
X142240000Y-74930000D02*
X135890000Y-74930000D01*
X143340000Y-74930000D02*
X142240000Y-74930000D01*
X124460000Y-90170000D02*
X127000000Y-90170000D01*
X127000000Y-89770000D02*
X135890000Y-80880000D01*
X127000000Y-90170000D02*
X127000000Y-89770000D01*
X135890000Y-80880000D02*
X135890000Y-74930000D01*
X124460000Y-89770000D02*
X119780000Y-85090000D01*
X124460000Y-90170000D02*
X124460000Y-89770000D01*
X119780000Y-85090000D02*
X105410000Y-85090000D01*
X87630000Y-81327500D02*
X85090000Y-83867500D01*
X87630000Y-81280000D02*
X87630000Y-81327500D01*
X85090000Y-101600000D02*
X86360000Y-102870000D01*
X85090000Y-83867500D02*
X85090000Y-101600000D01*
X86360000Y-102870000D02*
X86360000Y-110490000D01*
X86360000Y-110490000D02*
X86360000Y-118110000D01*
X133350000Y-90170000D02*
X143510000Y-100330000D01*
X127000000Y-90170000D02*
X133350000Y-90170000D01*
X86360000Y-118110000D02*
X88900000Y-120650000D01*
X143510000Y-120650000D02*
X148590000Y-115570000D01*
X88900000Y-120650000D02*
X143510000Y-120650000D01*
X160020000Y-68580000D02*
X156210000Y-72390000D01*
X160020000Y-59690000D02*
X160020000Y-68580000D01*
X145880000Y-72390000D02*
X144695000Y-73575000D01*
X156210000Y-72390000D02*
X145880000Y-72390000D01*
X144790010Y-73479990D02*
X144695000Y-73575000D01*
X144695000Y-73575000D02*
X143340000Y-74930000D01*
X102870000Y-71120000D02*
X100330000Y-73660000D01*
X102870000Y-59690000D02*
X102870000Y-71120000D01*
X102687500Y-79780000D02*
X104140000Y-81232500D01*
X102640000Y-79780000D02*
X102687500Y-79780000D01*
X100330000Y-77470000D02*
X102640000Y-79780000D01*
X104140000Y-81232500D02*
X104140000Y-81280000D01*
X100330000Y-73660000D02*
X100330000Y-77470000D01*
X108890000Y-73660000D02*
X110490000Y-73660000D01*
X107950000Y-72720000D02*
X108890000Y-73660000D01*
X107950000Y-59690000D02*
X107950000Y-72720000D01*
X107950000Y-59690000D02*
X107950000Y-57150000D01*
X107950000Y-57150000D02*
X106680000Y-55880000D01*
X99060000Y-55880000D02*
X95250000Y-59690000D01*
X106680000Y-55880000D02*
X99060000Y-55880000D01*
X109921523Y-55880000D02*
X133430000Y-55880000D01*
X107950000Y-57851523D02*
X109921523Y-55880000D01*
X107950000Y-59690000D02*
X107950000Y-57851523D01*
X96520000Y-60960000D02*
X95250000Y-59690000D01*
X96520000Y-73660000D02*
X96520000Y-60960000D01*
X133430000Y-55880000D02*
X138430000Y-60880000D01*
X138430000Y-62230000D02*
X138430000Y-60880000D01*
X163830000Y-116840000D02*
X165205000Y-116840000D01*
X112090000Y-73660000D02*
X110490000Y-73660000D01*
X114860000Y-76430000D02*
X112090000Y-73660000D01*
X125900000Y-76430000D02*
X114860000Y-76430000D01*
X127000000Y-75330000D02*
X125900000Y-76430000D01*
X127000000Y-74930000D02*
X127000000Y-75330000D01*
X161680001Y-57939999D02*
X144070001Y-57939999D01*
X161770001Y-58029999D02*
X161680001Y-57939999D01*
X161770001Y-67819961D02*
X161770001Y-58029999D01*
X139780000Y-62230000D02*
X138430000Y-62230000D01*
X160020000Y-69569962D02*
X161770001Y-67819961D01*
X144070001Y-57939999D02*
X139780000Y-62230000D01*
X160020000Y-110905000D02*
X160020000Y-69569962D01*
X163830000Y-114715000D02*
X160020000Y-110905000D01*
X163830000Y-116840000D02*
X163830000Y-114715000D01*
X90170000Y-69850000D02*
X86360000Y-73660000D01*
X90170000Y-59690000D02*
X90170000Y-69850000D01*
X88717500Y-79780000D02*
X90170000Y-81232500D01*
X86360000Y-77470000D02*
X88670000Y-79780000D01*
X90170000Y-81232500D02*
X90170000Y-81280000D01*
X88670000Y-79780000D02*
X88717500Y-79780000D01*
X86360000Y-73660000D02*
X86360000Y-77470000D01*
X169350000Y-72390000D02*
X171450000Y-72390000D01*
X165100000Y-68140000D02*
X169350000Y-72390000D01*
X165100000Y-59690000D02*
X165100000Y-68140000D01*
X166600000Y-79340000D02*
X163830000Y-79340000D01*
X171450000Y-74490000D02*
X166600000Y-79340000D01*
X171450000Y-72390000D02*
X171450000Y-74490000D01*
D28*
X123190000Y-100330000D02*
X123190000Y-97790000D01*
X123190000Y-97790000D02*
X116840000Y-91440000D01*
X116840000Y-91440000D02*
X99060000Y-91440000D01*
X125730000Y-96520000D02*
X116840000Y-87630000D01*
X125730000Y-100330000D02*
X125730000Y-96520000D01*
X140970000Y-115570000D02*
X140970000Y-105410000D01*
X105410000Y-105410000D02*
X102870000Y-102870000D01*
X140970000Y-105410000D02*
X105410000Y-105410000D01*
D27*
X102870000Y-102870000D02*
X96520000Y-102870000D01*
D28*
X91460000Y-82530000D02*
X91507500Y-82530000D01*
X88900000Y-91440000D02*
X88900000Y-85090000D01*
X91507500Y-82530000D02*
X92710000Y-81327500D01*
X88900000Y-85090000D02*
X91460000Y-82530000D01*
X92710000Y-81327500D02*
X92710000Y-81280000D01*
X135890000Y-115570000D02*
X135890000Y-111760000D01*
X135890000Y-111760000D02*
X109220000Y-111760000D01*
X109220000Y-111760000D02*
X102870000Y-118110000D01*
D27*
X96520000Y-118110000D02*
X102870000Y-118110000D01*
D28*
X102870000Y-110490000D02*
X102640000Y-110490000D01*
X138430000Y-115570000D02*
X138430000Y-110490000D01*
X138430000Y-110490000D02*
X102870000Y-110490000D01*
D27*
X101650010Y-109270010D02*
X102870000Y-110490000D01*
X97739990Y-109270010D02*
X101650010Y-109270010D01*
X96520000Y-110490000D02*
X97739990Y-109270010D01*
X143510000Y-115570000D02*
X143510000Y-105410000D01*
X143510000Y-105410000D02*
X142240000Y-104140000D01*
X103100000Y-100330000D02*
X102870000Y-100330000D01*
X106910000Y-104140000D02*
X103100000Y-100330000D01*
X142240000Y-104140000D02*
X106910000Y-104140000D01*
X152430001Y-81540001D02*
X147320000Y-76430000D01*
X147320000Y-76430000D02*
X147320000Y-74930000D01*
X152430001Y-101540001D02*
X152430001Y-81540001D01*
X149830002Y-104140000D02*
X152430001Y-101540001D01*
X142240000Y-104140000D02*
X149830002Y-104140000D01*
M02*
