%TF.GenerationSoftware,KiCad,Pcbnew,5.1.4+dfsg1-1*%
%TF.CreationDate,2019-12-07T14:51:34+10:00*%
%TF.ProjectId,ActuatorsExpanded,41637475-6174-46f7-9273-457870616e64,1*%
%TF.SameCoordinates,Original*%
%TF.FileFunction,Copper,L1,Top*%
%TF.FilePolarity,Positive*%
%FSLAX46Y46*%
G04 Gerber Fmt 4.6, Leading zero omitted, Abs format (unit mm)*
G04 Created by KiCad (PCBNEW 5.1.4+dfsg1-1) date 2019-12-07 14:51:34*
%MOMM*%
%LPD*%
G04 APERTURE LIST*
%ADD10C,2.600000*%
%ADD11R,2.600000X2.600000*%
%ADD12O,1.700000X1.700000*%
%ADD13R,1.700000X1.700000*%
%ADD14O,2.500000X2.500000*%
%ADD15R,2.500000X2.500000*%
%ADD16C,0.100000*%
%ADD17C,0.600000*%
%ADD18R,1.200000X0.400000*%
%ADD19O,1.600000X1.600000*%
%ADD20R,1.600000X1.600000*%
%ADD21C,1.600000*%
%ADD22O,1.200000X2.000000*%
%ADD23O,1.740000X2.200000*%
%ADD24C,1.740000*%
%ADD25O,6.000000X3.250000*%
%ADD26O,3.200000X3.200000*%
%ADD27R,3.200000X3.200000*%
%ADD28R,0.650000X0.400000*%
%ADD29C,0.975000*%
%ADD30C,0.250000*%
%ADD31C,0.500000*%
%ADD32C,1.500000*%
G04 APERTURE END LIST*
D10*
X194945000Y-58420000D03*
X194945000Y-63500000D03*
D11*
X194945000Y-68580000D03*
D12*
X126365000Y-101600000D03*
X126365000Y-99060000D03*
X126365000Y-96520000D03*
X126365000Y-93980000D03*
X126365000Y-91440000D03*
X126365000Y-88900000D03*
X126365000Y-86360000D03*
X126365000Y-83820000D03*
X126365000Y-81280000D03*
X126365000Y-78740000D03*
X126365000Y-76200000D03*
D13*
X126365000Y-73660000D03*
D10*
X194945000Y-111760000D03*
X194945000Y-116840000D03*
D11*
X194945000Y-121920000D03*
D14*
X167735000Y-75280000D03*
X179935000Y-75280000D03*
X179935000Y-87280000D03*
X167735000Y-87280000D03*
D15*
X165735000Y-81280000D03*
D14*
X167735000Y-93060000D03*
X179935000Y-93060000D03*
X179935000Y-105060000D03*
X167735000Y-105060000D03*
D15*
X165735000Y-99060000D03*
D16*
G36*
X142064703Y-97490722D02*
G01*
X142079264Y-97492882D01*
X142093543Y-97496459D01*
X142107403Y-97501418D01*
X142120710Y-97507712D01*
X142133336Y-97515280D01*
X142145159Y-97524048D01*
X142156066Y-97533934D01*
X142165952Y-97544841D01*
X142174720Y-97556664D01*
X142182288Y-97569290D01*
X142188582Y-97582597D01*
X142193541Y-97596457D01*
X142197118Y-97610736D01*
X142199278Y-97625297D01*
X142200000Y-97640000D01*
X142200000Y-97940000D01*
X142199278Y-97954703D01*
X142197118Y-97969264D01*
X142193541Y-97983543D01*
X142188582Y-97997403D01*
X142182288Y-98010710D01*
X142174720Y-98023336D01*
X142165952Y-98035159D01*
X142156066Y-98046066D01*
X142145159Y-98055952D01*
X142133336Y-98064720D01*
X142120710Y-98072288D01*
X142107403Y-98078582D01*
X142093543Y-98083541D01*
X142079264Y-98087118D01*
X142064703Y-98089278D01*
X142050000Y-98090000D01*
X140300000Y-98090000D01*
X140285297Y-98089278D01*
X140270736Y-98087118D01*
X140256457Y-98083541D01*
X140242597Y-98078582D01*
X140229290Y-98072288D01*
X140216664Y-98064720D01*
X140204841Y-98055952D01*
X140193934Y-98046066D01*
X140184048Y-98035159D01*
X140175280Y-98023336D01*
X140167712Y-98010710D01*
X140161418Y-97997403D01*
X140156459Y-97983543D01*
X140152882Y-97969264D01*
X140150722Y-97954703D01*
X140150000Y-97940000D01*
X140150000Y-97640000D01*
X140150722Y-97625297D01*
X140152882Y-97610736D01*
X140156459Y-97596457D01*
X140161418Y-97582597D01*
X140167712Y-97569290D01*
X140175280Y-97556664D01*
X140184048Y-97544841D01*
X140193934Y-97533934D01*
X140204841Y-97524048D01*
X140216664Y-97515280D01*
X140229290Y-97507712D01*
X140242597Y-97501418D01*
X140256457Y-97496459D01*
X140270736Y-97492882D01*
X140285297Y-97490722D01*
X140300000Y-97490000D01*
X142050000Y-97490000D01*
X142064703Y-97490722D01*
X142064703Y-97490722D01*
G37*
D17*
X141175000Y-97790000D03*
D16*
G36*
X142064703Y-98760722D02*
G01*
X142079264Y-98762882D01*
X142093543Y-98766459D01*
X142107403Y-98771418D01*
X142120710Y-98777712D01*
X142133336Y-98785280D01*
X142145159Y-98794048D01*
X142156066Y-98803934D01*
X142165952Y-98814841D01*
X142174720Y-98826664D01*
X142182288Y-98839290D01*
X142188582Y-98852597D01*
X142193541Y-98866457D01*
X142197118Y-98880736D01*
X142199278Y-98895297D01*
X142200000Y-98910000D01*
X142200000Y-99210000D01*
X142199278Y-99224703D01*
X142197118Y-99239264D01*
X142193541Y-99253543D01*
X142188582Y-99267403D01*
X142182288Y-99280710D01*
X142174720Y-99293336D01*
X142165952Y-99305159D01*
X142156066Y-99316066D01*
X142145159Y-99325952D01*
X142133336Y-99334720D01*
X142120710Y-99342288D01*
X142107403Y-99348582D01*
X142093543Y-99353541D01*
X142079264Y-99357118D01*
X142064703Y-99359278D01*
X142050000Y-99360000D01*
X140300000Y-99360000D01*
X140285297Y-99359278D01*
X140270736Y-99357118D01*
X140256457Y-99353541D01*
X140242597Y-99348582D01*
X140229290Y-99342288D01*
X140216664Y-99334720D01*
X140204841Y-99325952D01*
X140193934Y-99316066D01*
X140184048Y-99305159D01*
X140175280Y-99293336D01*
X140167712Y-99280710D01*
X140161418Y-99267403D01*
X140156459Y-99253543D01*
X140152882Y-99239264D01*
X140150722Y-99224703D01*
X140150000Y-99210000D01*
X140150000Y-98910000D01*
X140150722Y-98895297D01*
X140152882Y-98880736D01*
X140156459Y-98866457D01*
X140161418Y-98852597D01*
X140167712Y-98839290D01*
X140175280Y-98826664D01*
X140184048Y-98814841D01*
X140193934Y-98803934D01*
X140204841Y-98794048D01*
X140216664Y-98785280D01*
X140229290Y-98777712D01*
X140242597Y-98771418D01*
X140256457Y-98766459D01*
X140270736Y-98762882D01*
X140285297Y-98760722D01*
X140300000Y-98760000D01*
X142050000Y-98760000D01*
X142064703Y-98760722D01*
X142064703Y-98760722D01*
G37*
D17*
X141175000Y-99060000D03*
D16*
G36*
X142064703Y-100030722D02*
G01*
X142079264Y-100032882D01*
X142093543Y-100036459D01*
X142107403Y-100041418D01*
X142120710Y-100047712D01*
X142133336Y-100055280D01*
X142145159Y-100064048D01*
X142156066Y-100073934D01*
X142165952Y-100084841D01*
X142174720Y-100096664D01*
X142182288Y-100109290D01*
X142188582Y-100122597D01*
X142193541Y-100136457D01*
X142197118Y-100150736D01*
X142199278Y-100165297D01*
X142200000Y-100180000D01*
X142200000Y-100480000D01*
X142199278Y-100494703D01*
X142197118Y-100509264D01*
X142193541Y-100523543D01*
X142188582Y-100537403D01*
X142182288Y-100550710D01*
X142174720Y-100563336D01*
X142165952Y-100575159D01*
X142156066Y-100586066D01*
X142145159Y-100595952D01*
X142133336Y-100604720D01*
X142120710Y-100612288D01*
X142107403Y-100618582D01*
X142093543Y-100623541D01*
X142079264Y-100627118D01*
X142064703Y-100629278D01*
X142050000Y-100630000D01*
X140300000Y-100630000D01*
X140285297Y-100629278D01*
X140270736Y-100627118D01*
X140256457Y-100623541D01*
X140242597Y-100618582D01*
X140229290Y-100612288D01*
X140216664Y-100604720D01*
X140204841Y-100595952D01*
X140193934Y-100586066D01*
X140184048Y-100575159D01*
X140175280Y-100563336D01*
X140167712Y-100550710D01*
X140161418Y-100537403D01*
X140156459Y-100523543D01*
X140152882Y-100509264D01*
X140150722Y-100494703D01*
X140150000Y-100480000D01*
X140150000Y-100180000D01*
X140150722Y-100165297D01*
X140152882Y-100150736D01*
X140156459Y-100136457D01*
X140161418Y-100122597D01*
X140167712Y-100109290D01*
X140175280Y-100096664D01*
X140184048Y-100084841D01*
X140193934Y-100073934D01*
X140204841Y-100064048D01*
X140216664Y-100055280D01*
X140229290Y-100047712D01*
X140242597Y-100041418D01*
X140256457Y-100036459D01*
X140270736Y-100032882D01*
X140285297Y-100030722D01*
X140300000Y-100030000D01*
X142050000Y-100030000D01*
X142064703Y-100030722D01*
X142064703Y-100030722D01*
G37*
D17*
X141175000Y-100330000D03*
D16*
G36*
X142064703Y-101300722D02*
G01*
X142079264Y-101302882D01*
X142093543Y-101306459D01*
X142107403Y-101311418D01*
X142120710Y-101317712D01*
X142133336Y-101325280D01*
X142145159Y-101334048D01*
X142156066Y-101343934D01*
X142165952Y-101354841D01*
X142174720Y-101366664D01*
X142182288Y-101379290D01*
X142188582Y-101392597D01*
X142193541Y-101406457D01*
X142197118Y-101420736D01*
X142199278Y-101435297D01*
X142200000Y-101450000D01*
X142200000Y-101750000D01*
X142199278Y-101764703D01*
X142197118Y-101779264D01*
X142193541Y-101793543D01*
X142188582Y-101807403D01*
X142182288Y-101820710D01*
X142174720Y-101833336D01*
X142165952Y-101845159D01*
X142156066Y-101856066D01*
X142145159Y-101865952D01*
X142133336Y-101874720D01*
X142120710Y-101882288D01*
X142107403Y-101888582D01*
X142093543Y-101893541D01*
X142079264Y-101897118D01*
X142064703Y-101899278D01*
X142050000Y-101900000D01*
X140300000Y-101900000D01*
X140285297Y-101899278D01*
X140270736Y-101897118D01*
X140256457Y-101893541D01*
X140242597Y-101888582D01*
X140229290Y-101882288D01*
X140216664Y-101874720D01*
X140204841Y-101865952D01*
X140193934Y-101856066D01*
X140184048Y-101845159D01*
X140175280Y-101833336D01*
X140167712Y-101820710D01*
X140161418Y-101807403D01*
X140156459Y-101793543D01*
X140152882Y-101779264D01*
X140150722Y-101764703D01*
X140150000Y-101750000D01*
X140150000Y-101450000D01*
X140150722Y-101435297D01*
X140152882Y-101420736D01*
X140156459Y-101406457D01*
X140161418Y-101392597D01*
X140167712Y-101379290D01*
X140175280Y-101366664D01*
X140184048Y-101354841D01*
X140193934Y-101343934D01*
X140204841Y-101334048D01*
X140216664Y-101325280D01*
X140229290Y-101317712D01*
X140242597Y-101311418D01*
X140256457Y-101306459D01*
X140270736Y-101302882D01*
X140285297Y-101300722D01*
X140300000Y-101300000D01*
X142050000Y-101300000D01*
X142064703Y-101300722D01*
X142064703Y-101300722D01*
G37*
D17*
X141175000Y-101600000D03*
D16*
G36*
X142064703Y-102570722D02*
G01*
X142079264Y-102572882D01*
X142093543Y-102576459D01*
X142107403Y-102581418D01*
X142120710Y-102587712D01*
X142133336Y-102595280D01*
X142145159Y-102604048D01*
X142156066Y-102613934D01*
X142165952Y-102624841D01*
X142174720Y-102636664D01*
X142182288Y-102649290D01*
X142188582Y-102662597D01*
X142193541Y-102676457D01*
X142197118Y-102690736D01*
X142199278Y-102705297D01*
X142200000Y-102720000D01*
X142200000Y-103020000D01*
X142199278Y-103034703D01*
X142197118Y-103049264D01*
X142193541Y-103063543D01*
X142188582Y-103077403D01*
X142182288Y-103090710D01*
X142174720Y-103103336D01*
X142165952Y-103115159D01*
X142156066Y-103126066D01*
X142145159Y-103135952D01*
X142133336Y-103144720D01*
X142120710Y-103152288D01*
X142107403Y-103158582D01*
X142093543Y-103163541D01*
X142079264Y-103167118D01*
X142064703Y-103169278D01*
X142050000Y-103170000D01*
X140300000Y-103170000D01*
X140285297Y-103169278D01*
X140270736Y-103167118D01*
X140256457Y-103163541D01*
X140242597Y-103158582D01*
X140229290Y-103152288D01*
X140216664Y-103144720D01*
X140204841Y-103135952D01*
X140193934Y-103126066D01*
X140184048Y-103115159D01*
X140175280Y-103103336D01*
X140167712Y-103090710D01*
X140161418Y-103077403D01*
X140156459Y-103063543D01*
X140152882Y-103049264D01*
X140150722Y-103034703D01*
X140150000Y-103020000D01*
X140150000Y-102720000D01*
X140150722Y-102705297D01*
X140152882Y-102690736D01*
X140156459Y-102676457D01*
X140161418Y-102662597D01*
X140167712Y-102649290D01*
X140175280Y-102636664D01*
X140184048Y-102624841D01*
X140193934Y-102613934D01*
X140204841Y-102604048D01*
X140216664Y-102595280D01*
X140229290Y-102587712D01*
X140242597Y-102581418D01*
X140256457Y-102576459D01*
X140270736Y-102572882D01*
X140285297Y-102570722D01*
X140300000Y-102570000D01*
X142050000Y-102570000D01*
X142064703Y-102570722D01*
X142064703Y-102570722D01*
G37*
D17*
X141175000Y-102870000D03*
D16*
G36*
X142064703Y-103840722D02*
G01*
X142079264Y-103842882D01*
X142093543Y-103846459D01*
X142107403Y-103851418D01*
X142120710Y-103857712D01*
X142133336Y-103865280D01*
X142145159Y-103874048D01*
X142156066Y-103883934D01*
X142165952Y-103894841D01*
X142174720Y-103906664D01*
X142182288Y-103919290D01*
X142188582Y-103932597D01*
X142193541Y-103946457D01*
X142197118Y-103960736D01*
X142199278Y-103975297D01*
X142200000Y-103990000D01*
X142200000Y-104290000D01*
X142199278Y-104304703D01*
X142197118Y-104319264D01*
X142193541Y-104333543D01*
X142188582Y-104347403D01*
X142182288Y-104360710D01*
X142174720Y-104373336D01*
X142165952Y-104385159D01*
X142156066Y-104396066D01*
X142145159Y-104405952D01*
X142133336Y-104414720D01*
X142120710Y-104422288D01*
X142107403Y-104428582D01*
X142093543Y-104433541D01*
X142079264Y-104437118D01*
X142064703Y-104439278D01*
X142050000Y-104440000D01*
X140300000Y-104440000D01*
X140285297Y-104439278D01*
X140270736Y-104437118D01*
X140256457Y-104433541D01*
X140242597Y-104428582D01*
X140229290Y-104422288D01*
X140216664Y-104414720D01*
X140204841Y-104405952D01*
X140193934Y-104396066D01*
X140184048Y-104385159D01*
X140175280Y-104373336D01*
X140167712Y-104360710D01*
X140161418Y-104347403D01*
X140156459Y-104333543D01*
X140152882Y-104319264D01*
X140150722Y-104304703D01*
X140150000Y-104290000D01*
X140150000Y-103990000D01*
X140150722Y-103975297D01*
X140152882Y-103960736D01*
X140156459Y-103946457D01*
X140161418Y-103932597D01*
X140167712Y-103919290D01*
X140175280Y-103906664D01*
X140184048Y-103894841D01*
X140193934Y-103883934D01*
X140204841Y-103874048D01*
X140216664Y-103865280D01*
X140229290Y-103857712D01*
X140242597Y-103851418D01*
X140256457Y-103846459D01*
X140270736Y-103842882D01*
X140285297Y-103840722D01*
X140300000Y-103840000D01*
X142050000Y-103840000D01*
X142064703Y-103840722D01*
X142064703Y-103840722D01*
G37*
D17*
X141175000Y-104140000D03*
D16*
G36*
X142064703Y-105110722D02*
G01*
X142079264Y-105112882D01*
X142093543Y-105116459D01*
X142107403Y-105121418D01*
X142120710Y-105127712D01*
X142133336Y-105135280D01*
X142145159Y-105144048D01*
X142156066Y-105153934D01*
X142165952Y-105164841D01*
X142174720Y-105176664D01*
X142182288Y-105189290D01*
X142188582Y-105202597D01*
X142193541Y-105216457D01*
X142197118Y-105230736D01*
X142199278Y-105245297D01*
X142200000Y-105260000D01*
X142200000Y-105560000D01*
X142199278Y-105574703D01*
X142197118Y-105589264D01*
X142193541Y-105603543D01*
X142188582Y-105617403D01*
X142182288Y-105630710D01*
X142174720Y-105643336D01*
X142165952Y-105655159D01*
X142156066Y-105666066D01*
X142145159Y-105675952D01*
X142133336Y-105684720D01*
X142120710Y-105692288D01*
X142107403Y-105698582D01*
X142093543Y-105703541D01*
X142079264Y-105707118D01*
X142064703Y-105709278D01*
X142050000Y-105710000D01*
X140300000Y-105710000D01*
X140285297Y-105709278D01*
X140270736Y-105707118D01*
X140256457Y-105703541D01*
X140242597Y-105698582D01*
X140229290Y-105692288D01*
X140216664Y-105684720D01*
X140204841Y-105675952D01*
X140193934Y-105666066D01*
X140184048Y-105655159D01*
X140175280Y-105643336D01*
X140167712Y-105630710D01*
X140161418Y-105617403D01*
X140156459Y-105603543D01*
X140152882Y-105589264D01*
X140150722Y-105574703D01*
X140150000Y-105560000D01*
X140150000Y-105260000D01*
X140150722Y-105245297D01*
X140152882Y-105230736D01*
X140156459Y-105216457D01*
X140161418Y-105202597D01*
X140167712Y-105189290D01*
X140175280Y-105176664D01*
X140184048Y-105164841D01*
X140193934Y-105153934D01*
X140204841Y-105144048D01*
X140216664Y-105135280D01*
X140229290Y-105127712D01*
X140242597Y-105121418D01*
X140256457Y-105116459D01*
X140270736Y-105112882D01*
X140285297Y-105110722D01*
X140300000Y-105110000D01*
X142050000Y-105110000D01*
X142064703Y-105110722D01*
X142064703Y-105110722D01*
G37*
D17*
X141175000Y-105410000D03*
D16*
G36*
X142064703Y-106380722D02*
G01*
X142079264Y-106382882D01*
X142093543Y-106386459D01*
X142107403Y-106391418D01*
X142120710Y-106397712D01*
X142133336Y-106405280D01*
X142145159Y-106414048D01*
X142156066Y-106423934D01*
X142165952Y-106434841D01*
X142174720Y-106446664D01*
X142182288Y-106459290D01*
X142188582Y-106472597D01*
X142193541Y-106486457D01*
X142197118Y-106500736D01*
X142199278Y-106515297D01*
X142200000Y-106530000D01*
X142200000Y-106830000D01*
X142199278Y-106844703D01*
X142197118Y-106859264D01*
X142193541Y-106873543D01*
X142188582Y-106887403D01*
X142182288Y-106900710D01*
X142174720Y-106913336D01*
X142165952Y-106925159D01*
X142156066Y-106936066D01*
X142145159Y-106945952D01*
X142133336Y-106954720D01*
X142120710Y-106962288D01*
X142107403Y-106968582D01*
X142093543Y-106973541D01*
X142079264Y-106977118D01*
X142064703Y-106979278D01*
X142050000Y-106980000D01*
X140300000Y-106980000D01*
X140285297Y-106979278D01*
X140270736Y-106977118D01*
X140256457Y-106973541D01*
X140242597Y-106968582D01*
X140229290Y-106962288D01*
X140216664Y-106954720D01*
X140204841Y-106945952D01*
X140193934Y-106936066D01*
X140184048Y-106925159D01*
X140175280Y-106913336D01*
X140167712Y-106900710D01*
X140161418Y-106887403D01*
X140156459Y-106873543D01*
X140152882Y-106859264D01*
X140150722Y-106844703D01*
X140150000Y-106830000D01*
X140150000Y-106530000D01*
X140150722Y-106515297D01*
X140152882Y-106500736D01*
X140156459Y-106486457D01*
X140161418Y-106472597D01*
X140167712Y-106459290D01*
X140175280Y-106446664D01*
X140184048Y-106434841D01*
X140193934Y-106423934D01*
X140204841Y-106414048D01*
X140216664Y-106405280D01*
X140229290Y-106397712D01*
X140242597Y-106391418D01*
X140256457Y-106386459D01*
X140270736Y-106382882D01*
X140285297Y-106380722D01*
X140300000Y-106380000D01*
X142050000Y-106380000D01*
X142064703Y-106380722D01*
X142064703Y-106380722D01*
G37*
D17*
X141175000Y-106680000D03*
D16*
G36*
X142064703Y-107650722D02*
G01*
X142079264Y-107652882D01*
X142093543Y-107656459D01*
X142107403Y-107661418D01*
X142120710Y-107667712D01*
X142133336Y-107675280D01*
X142145159Y-107684048D01*
X142156066Y-107693934D01*
X142165952Y-107704841D01*
X142174720Y-107716664D01*
X142182288Y-107729290D01*
X142188582Y-107742597D01*
X142193541Y-107756457D01*
X142197118Y-107770736D01*
X142199278Y-107785297D01*
X142200000Y-107800000D01*
X142200000Y-108100000D01*
X142199278Y-108114703D01*
X142197118Y-108129264D01*
X142193541Y-108143543D01*
X142188582Y-108157403D01*
X142182288Y-108170710D01*
X142174720Y-108183336D01*
X142165952Y-108195159D01*
X142156066Y-108206066D01*
X142145159Y-108215952D01*
X142133336Y-108224720D01*
X142120710Y-108232288D01*
X142107403Y-108238582D01*
X142093543Y-108243541D01*
X142079264Y-108247118D01*
X142064703Y-108249278D01*
X142050000Y-108250000D01*
X140300000Y-108250000D01*
X140285297Y-108249278D01*
X140270736Y-108247118D01*
X140256457Y-108243541D01*
X140242597Y-108238582D01*
X140229290Y-108232288D01*
X140216664Y-108224720D01*
X140204841Y-108215952D01*
X140193934Y-108206066D01*
X140184048Y-108195159D01*
X140175280Y-108183336D01*
X140167712Y-108170710D01*
X140161418Y-108157403D01*
X140156459Y-108143543D01*
X140152882Y-108129264D01*
X140150722Y-108114703D01*
X140150000Y-108100000D01*
X140150000Y-107800000D01*
X140150722Y-107785297D01*
X140152882Y-107770736D01*
X140156459Y-107756457D01*
X140161418Y-107742597D01*
X140167712Y-107729290D01*
X140175280Y-107716664D01*
X140184048Y-107704841D01*
X140193934Y-107693934D01*
X140204841Y-107684048D01*
X140216664Y-107675280D01*
X140229290Y-107667712D01*
X140242597Y-107661418D01*
X140256457Y-107656459D01*
X140270736Y-107652882D01*
X140285297Y-107650722D01*
X140300000Y-107650000D01*
X142050000Y-107650000D01*
X142064703Y-107650722D01*
X142064703Y-107650722D01*
G37*
D17*
X141175000Y-107950000D03*
D16*
G36*
X132764703Y-107650722D02*
G01*
X132779264Y-107652882D01*
X132793543Y-107656459D01*
X132807403Y-107661418D01*
X132820710Y-107667712D01*
X132833336Y-107675280D01*
X132845159Y-107684048D01*
X132856066Y-107693934D01*
X132865952Y-107704841D01*
X132874720Y-107716664D01*
X132882288Y-107729290D01*
X132888582Y-107742597D01*
X132893541Y-107756457D01*
X132897118Y-107770736D01*
X132899278Y-107785297D01*
X132900000Y-107800000D01*
X132900000Y-108100000D01*
X132899278Y-108114703D01*
X132897118Y-108129264D01*
X132893541Y-108143543D01*
X132888582Y-108157403D01*
X132882288Y-108170710D01*
X132874720Y-108183336D01*
X132865952Y-108195159D01*
X132856066Y-108206066D01*
X132845159Y-108215952D01*
X132833336Y-108224720D01*
X132820710Y-108232288D01*
X132807403Y-108238582D01*
X132793543Y-108243541D01*
X132779264Y-108247118D01*
X132764703Y-108249278D01*
X132750000Y-108250000D01*
X131000000Y-108250000D01*
X130985297Y-108249278D01*
X130970736Y-108247118D01*
X130956457Y-108243541D01*
X130942597Y-108238582D01*
X130929290Y-108232288D01*
X130916664Y-108224720D01*
X130904841Y-108215952D01*
X130893934Y-108206066D01*
X130884048Y-108195159D01*
X130875280Y-108183336D01*
X130867712Y-108170710D01*
X130861418Y-108157403D01*
X130856459Y-108143543D01*
X130852882Y-108129264D01*
X130850722Y-108114703D01*
X130850000Y-108100000D01*
X130850000Y-107800000D01*
X130850722Y-107785297D01*
X130852882Y-107770736D01*
X130856459Y-107756457D01*
X130861418Y-107742597D01*
X130867712Y-107729290D01*
X130875280Y-107716664D01*
X130884048Y-107704841D01*
X130893934Y-107693934D01*
X130904841Y-107684048D01*
X130916664Y-107675280D01*
X130929290Y-107667712D01*
X130942597Y-107661418D01*
X130956457Y-107656459D01*
X130970736Y-107652882D01*
X130985297Y-107650722D01*
X131000000Y-107650000D01*
X132750000Y-107650000D01*
X132764703Y-107650722D01*
X132764703Y-107650722D01*
G37*
D17*
X131875000Y-107950000D03*
D16*
G36*
X132764703Y-106380722D02*
G01*
X132779264Y-106382882D01*
X132793543Y-106386459D01*
X132807403Y-106391418D01*
X132820710Y-106397712D01*
X132833336Y-106405280D01*
X132845159Y-106414048D01*
X132856066Y-106423934D01*
X132865952Y-106434841D01*
X132874720Y-106446664D01*
X132882288Y-106459290D01*
X132888582Y-106472597D01*
X132893541Y-106486457D01*
X132897118Y-106500736D01*
X132899278Y-106515297D01*
X132900000Y-106530000D01*
X132900000Y-106830000D01*
X132899278Y-106844703D01*
X132897118Y-106859264D01*
X132893541Y-106873543D01*
X132888582Y-106887403D01*
X132882288Y-106900710D01*
X132874720Y-106913336D01*
X132865952Y-106925159D01*
X132856066Y-106936066D01*
X132845159Y-106945952D01*
X132833336Y-106954720D01*
X132820710Y-106962288D01*
X132807403Y-106968582D01*
X132793543Y-106973541D01*
X132779264Y-106977118D01*
X132764703Y-106979278D01*
X132750000Y-106980000D01*
X131000000Y-106980000D01*
X130985297Y-106979278D01*
X130970736Y-106977118D01*
X130956457Y-106973541D01*
X130942597Y-106968582D01*
X130929290Y-106962288D01*
X130916664Y-106954720D01*
X130904841Y-106945952D01*
X130893934Y-106936066D01*
X130884048Y-106925159D01*
X130875280Y-106913336D01*
X130867712Y-106900710D01*
X130861418Y-106887403D01*
X130856459Y-106873543D01*
X130852882Y-106859264D01*
X130850722Y-106844703D01*
X130850000Y-106830000D01*
X130850000Y-106530000D01*
X130850722Y-106515297D01*
X130852882Y-106500736D01*
X130856459Y-106486457D01*
X130861418Y-106472597D01*
X130867712Y-106459290D01*
X130875280Y-106446664D01*
X130884048Y-106434841D01*
X130893934Y-106423934D01*
X130904841Y-106414048D01*
X130916664Y-106405280D01*
X130929290Y-106397712D01*
X130942597Y-106391418D01*
X130956457Y-106386459D01*
X130970736Y-106382882D01*
X130985297Y-106380722D01*
X131000000Y-106380000D01*
X132750000Y-106380000D01*
X132764703Y-106380722D01*
X132764703Y-106380722D01*
G37*
D17*
X131875000Y-106680000D03*
D16*
G36*
X132764703Y-105110722D02*
G01*
X132779264Y-105112882D01*
X132793543Y-105116459D01*
X132807403Y-105121418D01*
X132820710Y-105127712D01*
X132833336Y-105135280D01*
X132845159Y-105144048D01*
X132856066Y-105153934D01*
X132865952Y-105164841D01*
X132874720Y-105176664D01*
X132882288Y-105189290D01*
X132888582Y-105202597D01*
X132893541Y-105216457D01*
X132897118Y-105230736D01*
X132899278Y-105245297D01*
X132900000Y-105260000D01*
X132900000Y-105560000D01*
X132899278Y-105574703D01*
X132897118Y-105589264D01*
X132893541Y-105603543D01*
X132888582Y-105617403D01*
X132882288Y-105630710D01*
X132874720Y-105643336D01*
X132865952Y-105655159D01*
X132856066Y-105666066D01*
X132845159Y-105675952D01*
X132833336Y-105684720D01*
X132820710Y-105692288D01*
X132807403Y-105698582D01*
X132793543Y-105703541D01*
X132779264Y-105707118D01*
X132764703Y-105709278D01*
X132750000Y-105710000D01*
X131000000Y-105710000D01*
X130985297Y-105709278D01*
X130970736Y-105707118D01*
X130956457Y-105703541D01*
X130942597Y-105698582D01*
X130929290Y-105692288D01*
X130916664Y-105684720D01*
X130904841Y-105675952D01*
X130893934Y-105666066D01*
X130884048Y-105655159D01*
X130875280Y-105643336D01*
X130867712Y-105630710D01*
X130861418Y-105617403D01*
X130856459Y-105603543D01*
X130852882Y-105589264D01*
X130850722Y-105574703D01*
X130850000Y-105560000D01*
X130850000Y-105260000D01*
X130850722Y-105245297D01*
X130852882Y-105230736D01*
X130856459Y-105216457D01*
X130861418Y-105202597D01*
X130867712Y-105189290D01*
X130875280Y-105176664D01*
X130884048Y-105164841D01*
X130893934Y-105153934D01*
X130904841Y-105144048D01*
X130916664Y-105135280D01*
X130929290Y-105127712D01*
X130942597Y-105121418D01*
X130956457Y-105116459D01*
X130970736Y-105112882D01*
X130985297Y-105110722D01*
X131000000Y-105110000D01*
X132750000Y-105110000D01*
X132764703Y-105110722D01*
X132764703Y-105110722D01*
G37*
D17*
X131875000Y-105410000D03*
D16*
G36*
X132764703Y-103840722D02*
G01*
X132779264Y-103842882D01*
X132793543Y-103846459D01*
X132807403Y-103851418D01*
X132820710Y-103857712D01*
X132833336Y-103865280D01*
X132845159Y-103874048D01*
X132856066Y-103883934D01*
X132865952Y-103894841D01*
X132874720Y-103906664D01*
X132882288Y-103919290D01*
X132888582Y-103932597D01*
X132893541Y-103946457D01*
X132897118Y-103960736D01*
X132899278Y-103975297D01*
X132900000Y-103990000D01*
X132900000Y-104290000D01*
X132899278Y-104304703D01*
X132897118Y-104319264D01*
X132893541Y-104333543D01*
X132888582Y-104347403D01*
X132882288Y-104360710D01*
X132874720Y-104373336D01*
X132865952Y-104385159D01*
X132856066Y-104396066D01*
X132845159Y-104405952D01*
X132833336Y-104414720D01*
X132820710Y-104422288D01*
X132807403Y-104428582D01*
X132793543Y-104433541D01*
X132779264Y-104437118D01*
X132764703Y-104439278D01*
X132750000Y-104440000D01*
X131000000Y-104440000D01*
X130985297Y-104439278D01*
X130970736Y-104437118D01*
X130956457Y-104433541D01*
X130942597Y-104428582D01*
X130929290Y-104422288D01*
X130916664Y-104414720D01*
X130904841Y-104405952D01*
X130893934Y-104396066D01*
X130884048Y-104385159D01*
X130875280Y-104373336D01*
X130867712Y-104360710D01*
X130861418Y-104347403D01*
X130856459Y-104333543D01*
X130852882Y-104319264D01*
X130850722Y-104304703D01*
X130850000Y-104290000D01*
X130850000Y-103990000D01*
X130850722Y-103975297D01*
X130852882Y-103960736D01*
X130856459Y-103946457D01*
X130861418Y-103932597D01*
X130867712Y-103919290D01*
X130875280Y-103906664D01*
X130884048Y-103894841D01*
X130893934Y-103883934D01*
X130904841Y-103874048D01*
X130916664Y-103865280D01*
X130929290Y-103857712D01*
X130942597Y-103851418D01*
X130956457Y-103846459D01*
X130970736Y-103842882D01*
X130985297Y-103840722D01*
X131000000Y-103840000D01*
X132750000Y-103840000D01*
X132764703Y-103840722D01*
X132764703Y-103840722D01*
G37*
D17*
X131875000Y-104140000D03*
D16*
G36*
X132764703Y-102570722D02*
G01*
X132779264Y-102572882D01*
X132793543Y-102576459D01*
X132807403Y-102581418D01*
X132820710Y-102587712D01*
X132833336Y-102595280D01*
X132845159Y-102604048D01*
X132856066Y-102613934D01*
X132865952Y-102624841D01*
X132874720Y-102636664D01*
X132882288Y-102649290D01*
X132888582Y-102662597D01*
X132893541Y-102676457D01*
X132897118Y-102690736D01*
X132899278Y-102705297D01*
X132900000Y-102720000D01*
X132900000Y-103020000D01*
X132899278Y-103034703D01*
X132897118Y-103049264D01*
X132893541Y-103063543D01*
X132888582Y-103077403D01*
X132882288Y-103090710D01*
X132874720Y-103103336D01*
X132865952Y-103115159D01*
X132856066Y-103126066D01*
X132845159Y-103135952D01*
X132833336Y-103144720D01*
X132820710Y-103152288D01*
X132807403Y-103158582D01*
X132793543Y-103163541D01*
X132779264Y-103167118D01*
X132764703Y-103169278D01*
X132750000Y-103170000D01*
X131000000Y-103170000D01*
X130985297Y-103169278D01*
X130970736Y-103167118D01*
X130956457Y-103163541D01*
X130942597Y-103158582D01*
X130929290Y-103152288D01*
X130916664Y-103144720D01*
X130904841Y-103135952D01*
X130893934Y-103126066D01*
X130884048Y-103115159D01*
X130875280Y-103103336D01*
X130867712Y-103090710D01*
X130861418Y-103077403D01*
X130856459Y-103063543D01*
X130852882Y-103049264D01*
X130850722Y-103034703D01*
X130850000Y-103020000D01*
X130850000Y-102720000D01*
X130850722Y-102705297D01*
X130852882Y-102690736D01*
X130856459Y-102676457D01*
X130861418Y-102662597D01*
X130867712Y-102649290D01*
X130875280Y-102636664D01*
X130884048Y-102624841D01*
X130893934Y-102613934D01*
X130904841Y-102604048D01*
X130916664Y-102595280D01*
X130929290Y-102587712D01*
X130942597Y-102581418D01*
X130956457Y-102576459D01*
X130970736Y-102572882D01*
X130985297Y-102570722D01*
X131000000Y-102570000D01*
X132750000Y-102570000D01*
X132764703Y-102570722D01*
X132764703Y-102570722D01*
G37*
D17*
X131875000Y-102870000D03*
D16*
G36*
X132764703Y-101300722D02*
G01*
X132779264Y-101302882D01*
X132793543Y-101306459D01*
X132807403Y-101311418D01*
X132820710Y-101317712D01*
X132833336Y-101325280D01*
X132845159Y-101334048D01*
X132856066Y-101343934D01*
X132865952Y-101354841D01*
X132874720Y-101366664D01*
X132882288Y-101379290D01*
X132888582Y-101392597D01*
X132893541Y-101406457D01*
X132897118Y-101420736D01*
X132899278Y-101435297D01*
X132900000Y-101450000D01*
X132900000Y-101750000D01*
X132899278Y-101764703D01*
X132897118Y-101779264D01*
X132893541Y-101793543D01*
X132888582Y-101807403D01*
X132882288Y-101820710D01*
X132874720Y-101833336D01*
X132865952Y-101845159D01*
X132856066Y-101856066D01*
X132845159Y-101865952D01*
X132833336Y-101874720D01*
X132820710Y-101882288D01*
X132807403Y-101888582D01*
X132793543Y-101893541D01*
X132779264Y-101897118D01*
X132764703Y-101899278D01*
X132750000Y-101900000D01*
X131000000Y-101900000D01*
X130985297Y-101899278D01*
X130970736Y-101897118D01*
X130956457Y-101893541D01*
X130942597Y-101888582D01*
X130929290Y-101882288D01*
X130916664Y-101874720D01*
X130904841Y-101865952D01*
X130893934Y-101856066D01*
X130884048Y-101845159D01*
X130875280Y-101833336D01*
X130867712Y-101820710D01*
X130861418Y-101807403D01*
X130856459Y-101793543D01*
X130852882Y-101779264D01*
X130850722Y-101764703D01*
X130850000Y-101750000D01*
X130850000Y-101450000D01*
X130850722Y-101435297D01*
X130852882Y-101420736D01*
X130856459Y-101406457D01*
X130861418Y-101392597D01*
X130867712Y-101379290D01*
X130875280Y-101366664D01*
X130884048Y-101354841D01*
X130893934Y-101343934D01*
X130904841Y-101334048D01*
X130916664Y-101325280D01*
X130929290Y-101317712D01*
X130942597Y-101311418D01*
X130956457Y-101306459D01*
X130970736Y-101302882D01*
X130985297Y-101300722D01*
X131000000Y-101300000D01*
X132750000Y-101300000D01*
X132764703Y-101300722D01*
X132764703Y-101300722D01*
G37*
D17*
X131875000Y-101600000D03*
D16*
G36*
X132764703Y-100030722D02*
G01*
X132779264Y-100032882D01*
X132793543Y-100036459D01*
X132807403Y-100041418D01*
X132820710Y-100047712D01*
X132833336Y-100055280D01*
X132845159Y-100064048D01*
X132856066Y-100073934D01*
X132865952Y-100084841D01*
X132874720Y-100096664D01*
X132882288Y-100109290D01*
X132888582Y-100122597D01*
X132893541Y-100136457D01*
X132897118Y-100150736D01*
X132899278Y-100165297D01*
X132900000Y-100180000D01*
X132900000Y-100480000D01*
X132899278Y-100494703D01*
X132897118Y-100509264D01*
X132893541Y-100523543D01*
X132888582Y-100537403D01*
X132882288Y-100550710D01*
X132874720Y-100563336D01*
X132865952Y-100575159D01*
X132856066Y-100586066D01*
X132845159Y-100595952D01*
X132833336Y-100604720D01*
X132820710Y-100612288D01*
X132807403Y-100618582D01*
X132793543Y-100623541D01*
X132779264Y-100627118D01*
X132764703Y-100629278D01*
X132750000Y-100630000D01*
X131000000Y-100630000D01*
X130985297Y-100629278D01*
X130970736Y-100627118D01*
X130956457Y-100623541D01*
X130942597Y-100618582D01*
X130929290Y-100612288D01*
X130916664Y-100604720D01*
X130904841Y-100595952D01*
X130893934Y-100586066D01*
X130884048Y-100575159D01*
X130875280Y-100563336D01*
X130867712Y-100550710D01*
X130861418Y-100537403D01*
X130856459Y-100523543D01*
X130852882Y-100509264D01*
X130850722Y-100494703D01*
X130850000Y-100480000D01*
X130850000Y-100180000D01*
X130850722Y-100165297D01*
X130852882Y-100150736D01*
X130856459Y-100136457D01*
X130861418Y-100122597D01*
X130867712Y-100109290D01*
X130875280Y-100096664D01*
X130884048Y-100084841D01*
X130893934Y-100073934D01*
X130904841Y-100064048D01*
X130916664Y-100055280D01*
X130929290Y-100047712D01*
X130942597Y-100041418D01*
X130956457Y-100036459D01*
X130970736Y-100032882D01*
X130985297Y-100030722D01*
X131000000Y-100030000D01*
X132750000Y-100030000D01*
X132764703Y-100030722D01*
X132764703Y-100030722D01*
G37*
D17*
X131875000Y-100330000D03*
D16*
G36*
X132764703Y-98760722D02*
G01*
X132779264Y-98762882D01*
X132793543Y-98766459D01*
X132807403Y-98771418D01*
X132820710Y-98777712D01*
X132833336Y-98785280D01*
X132845159Y-98794048D01*
X132856066Y-98803934D01*
X132865952Y-98814841D01*
X132874720Y-98826664D01*
X132882288Y-98839290D01*
X132888582Y-98852597D01*
X132893541Y-98866457D01*
X132897118Y-98880736D01*
X132899278Y-98895297D01*
X132900000Y-98910000D01*
X132900000Y-99210000D01*
X132899278Y-99224703D01*
X132897118Y-99239264D01*
X132893541Y-99253543D01*
X132888582Y-99267403D01*
X132882288Y-99280710D01*
X132874720Y-99293336D01*
X132865952Y-99305159D01*
X132856066Y-99316066D01*
X132845159Y-99325952D01*
X132833336Y-99334720D01*
X132820710Y-99342288D01*
X132807403Y-99348582D01*
X132793543Y-99353541D01*
X132779264Y-99357118D01*
X132764703Y-99359278D01*
X132750000Y-99360000D01*
X131000000Y-99360000D01*
X130985297Y-99359278D01*
X130970736Y-99357118D01*
X130956457Y-99353541D01*
X130942597Y-99348582D01*
X130929290Y-99342288D01*
X130916664Y-99334720D01*
X130904841Y-99325952D01*
X130893934Y-99316066D01*
X130884048Y-99305159D01*
X130875280Y-99293336D01*
X130867712Y-99280710D01*
X130861418Y-99267403D01*
X130856459Y-99253543D01*
X130852882Y-99239264D01*
X130850722Y-99224703D01*
X130850000Y-99210000D01*
X130850000Y-98910000D01*
X130850722Y-98895297D01*
X130852882Y-98880736D01*
X130856459Y-98866457D01*
X130861418Y-98852597D01*
X130867712Y-98839290D01*
X130875280Y-98826664D01*
X130884048Y-98814841D01*
X130893934Y-98803934D01*
X130904841Y-98794048D01*
X130916664Y-98785280D01*
X130929290Y-98777712D01*
X130942597Y-98771418D01*
X130956457Y-98766459D01*
X130970736Y-98762882D01*
X130985297Y-98760722D01*
X131000000Y-98760000D01*
X132750000Y-98760000D01*
X132764703Y-98760722D01*
X132764703Y-98760722D01*
G37*
D17*
X131875000Y-99060000D03*
D16*
G36*
X132764703Y-97490722D02*
G01*
X132779264Y-97492882D01*
X132793543Y-97496459D01*
X132807403Y-97501418D01*
X132820710Y-97507712D01*
X132833336Y-97515280D01*
X132845159Y-97524048D01*
X132856066Y-97533934D01*
X132865952Y-97544841D01*
X132874720Y-97556664D01*
X132882288Y-97569290D01*
X132888582Y-97582597D01*
X132893541Y-97596457D01*
X132897118Y-97610736D01*
X132899278Y-97625297D01*
X132900000Y-97640000D01*
X132900000Y-97940000D01*
X132899278Y-97954703D01*
X132897118Y-97969264D01*
X132893541Y-97983543D01*
X132888582Y-97997403D01*
X132882288Y-98010710D01*
X132874720Y-98023336D01*
X132865952Y-98035159D01*
X132856066Y-98046066D01*
X132845159Y-98055952D01*
X132833336Y-98064720D01*
X132820710Y-98072288D01*
X132807403Y-98078582D01*
X132793543Y-98083541D01*
X132779264Y-98087118D01*
X132764703Y-98089278D01*
X132750000Y-98090000D01*
X131000000Y-98090000D01*
X130985297Y-98089278D01*
X130970736Y-98087118D01*
X130956457Y-98083541D01*
X130942597Y-98078582D01*
X130929290Y-98072288D01*
X130916664Y-98064720D01*
X130904841Y-98055952D01*
X130893934Y-98046066D01*
X130884048Y-98035159D01*
X130875280Y-98023336D01*
X130867712Y-98010710D01*
X130861418Y-97997403D01*
X130856459Y-97983543D01*
X130852882Y-97969264D01*
X130850722Y-97954703D01*
X130850000Y-97940000D01*
X130850000Y-97640000D01*
X130850722Y-97625297D01*
X130852882Y-97610736D01*
X130856459Y-97596457D01*
X130861418Y-97582597D01*
X130867712Y-97569290D01*
X130875280Y-97556664D01*
X130884048Y-97544841D01*
X130893934Y-97533934D01*
X130904841Y-97524048D01*
X130916664Y-97515280D01*
X130929290Y-97507712D01*
X130942597Y-97501418D01*
X130956457Y-97496459D01*
X130970736Y-97492882D01*
X130985297Y-97490722D01*
X131000000Y-97490000D01*
X132750000Y-97490000D01*
X132764703Y-97490722D01*
X132764703Y-97490722D01*
G37*
D17*
X131875000Y-97790000D03*
D18*
X142515000Y-86950000D03*
X142515000Y-87600000D03*
X142515000Y-88250000D03*
X142515000Y-88900000D03*
X142515000Y-89550000D03*
X142515000Y-90200000D03*
X142515000Y-90850000D03*
X135615000Y-90850000D03*
X135615000Y-90200000D03*
X135615000Y-89550000D03*
X135615000Y-88900000D03*
X135615000Y-88250000D03*
X135615000Y-87600000D03*
X135615000Y-86950000D03*
D19*
X133985000Y-74930000D03*
X136525000Y-74930000D03*
X139065000Y-74930000D03*
X141605000Y-74930000D03*
X144145000Y-74930000D03*
X146685000Y-74930000D03*
X149225000Y-74930000D03*
D20*
X151765000Y-74930000D03*
D19*
X137795000Y-80010000D03*
X140335000Y-80010000D03*
X142875000Y-80010000D03*
X145415000Y-80010000D03*
D20*
X147955000Y-80010000D03*
D19*
X120015000Y-71120000D03*
D21*
X120015000Y-60960000D03*
D22*
X100330000Y-107950000D03*
X100330000Y-123190000D03*
X102870000Y-107950000D03*
X102870000Y-123190000D03*
X118110000Y-107950000D03*
X118110000Y-123190000D03*
X123190000Y-107950000D03*
X123190000Y-123190000D03*
D14*
X167735000Y-57500000D03*
X179935000Y-57500000D03*
X179935000Y-69500000D03*
X167735000Y-69500000D03*
D15*
X165735000Y-63500000D03*
D14*
X167735000Y-110840000D03*
X179935000Y-110840000D03*
X179935000Y-122840000D03*
X167735000Y-122840000D03*
D15*
X165735000Y-116840000D03*
D23*
X133985000Y-60960000D03*
D16*
G36*
X132089505Y-59861204D02*
G01*
X132113773Y-59864804D01*
X132137572Y-59870765D01*
X132160671Y-59879030D01*
X132182850Y-59889520D01*
X132203893Y-59902132D01*
X132223599Y-59916747D01*
X132241777Y-59933223D01*
X132258253Y-59951401D01*
X132272868Y-59971107D01*
X132285480Y-59992150D01*
X132295970Y-60014329D01*
X132304235Y-60037428D01*
X132310196Y-60061227D01*
X132313796Y-60085495D01*
X132315000Y-60109999D01*
X132315000Y-61810001D01*
X132313796Y-61834505D01*
X132310196Y-61858773D01*
X132304235Y-61882572D01*
X132295970Y-61905671D01*
X132285480Y-61927850D01*
X132272868Y-61948893D01*
X132258253Y-61968599D01*
X132241777Y-61986777D01*
X132223599Y-62003253D01*
X132203893Y-62017868D01*
X132182850Y-62030480D01*
X132160671Y-62040970D01*
X132137572Y-62049235D01*
X132113773Y-62055196D01*
X132089505Y-62058796D01*
X132065001Y-62060000D01*
X130824999Y-62060000D01*
X130800495Y-62058796D01*
X130776227Y-62055196D01*
X130752428Y-62049235D01*
X130729329Y-62040970D01*
X130707150Y-62030480D01*
X130686107Y-62017868D01*
X130666401Y-62003253D01*
X130648223Y-61986777D01*
X130631747Y-61968599D01*
X130617132Y-61948893D01*
X130604520Y-61927850D01*
X130594030Y-61905671D01*
X130585765Y-61882572D01*
X130579804Y-61858773D01*
X130576204Y-61834505D01*
X130575000Y-61810001D01*
X130575000Y-60109999D01*
X130576204Y-60085495D01*
X130579804Y-60061227D01*
X130585765Y-60037428D01*
X130594030Y-60014329D01*
X130604520Y-59992150D01*
X130617132Y-59971107D01*
X130631747Y-59951401D01*
X130648223Y-59933223D01*
X130666401Y-59916747D01*
X130686107Y-59902132D01*
X130707150Y-59889520D01*
X130729329Y-59879030D01*
X130752428Y-59870765D01*
X130776227Y-59864804D01*
X130800495Y-59861204D01*
X130824999Y-59860000D01*
X132065001Y-59860000D01*
X132089505Y-59861204D01*
X132089505Y-59861204D01*
G37*
D24*
X131445000Y-60960000D03*
D23*
X141605000Y-60960000D03*
D16*
G36*
X139709505Y-59861204D02*
G01*
X139733773Y-59864804D01*
X139757572Y-59870765D01*
X139780671Y-59879030D01*
X139802850Y-59889520D01*
X139823893Y-59902132D01*
X139843599Y-59916747D01*
X139861777Y-59933223D01*
X139878253Y-59951401D01*
X139892868Y-59971107D01*
X139905480Y-59992150D01*
X139915970Y-60014329D01*
X139924235Y-60037428D01*
X139930196Y-60061227D01*
X139933796Y-60085495D01*
X139935000Y-60109999D01*
X139935000Y-61810001D01*
X139933796Y-61834505D01*
X139930196Y-61858773D01*
X139924235Y-61882572D01*
X139915970Y-61905671D01*
X139905480Y-61927850D01*
X139892868Y-61948893D01*
X139878253Y-61968599D01*
X139861777Y-61986777D01*
X139843599Y-62003253D01*
X139823893Y-62017868D01*
X139802850Y-62030480D01*
X139780671Y-62040970D01*
X139757572Y-62049235D01*
X139733773Y-62055196D01*
X139709505Y-62058796D01*
X139685001Y-62060000D01*
X138444999Y-62060000D01*
X138420495Y-62058796D01*
X138396227Y-62055196D01*
X138372428Y-62049235D01*
X138349329Y-62040970D01*
X138327150Y-62030480D01*
X138306107Y-62017868D01*
X138286401Y-62003253D01*
X138268223Y-61986777D01*
X138251747Y-61968599D01*
X138237132Y-61948893D01*
X138224520Y-61927850D01*
X138214030Y-61905671D01*
X138205765Y-61882572D01*
X138199804Y-61858773D01*
X138196204Y-61834505D01*
X138195000Y-61810001D01*
X138195000Y-60109999D01*
X138196204Y-60085495D01*
X138199804Y-60061227D01*
X138205765Y-60037428D01*
X138214030Y-60014329D01*
X138224520Y-59992150D01*
X138237132Y-59971107D01*
X138251747Y-59951401D01*
X138268223Y-59933223D01*
X138286401Y-59916747D01*
X138306107Y-59902132D01*
X138327150Y-59889520D01*
X138349329Y-59879030D01*
X138372428Y-59870765D01*
X138396227Y-59864804D01*
X138420495Y-59861204D01*
X138444999Y-59860000D01*
X139685001Y-59860000D01*
X139709505Y-59861204D01*
X139709505Y-59861204D01*
G37*
D24*
X139065000Y-60960000D03*
D23*
X149225000Y-60960000D03*
D16*
G36*
X147329505Y-59861204D02*
G01*
X147353773Y-59864804D01*
X147377572Y-59870765D01*
X147400671Y-59879030D01*
X147422850Y-59889520D01*
X147443893Y-59902132D01*
X147463599Y-59916747D01*
X147481777Y-59933223D01*
X147498253Y-59951401D01*
X147512868Y-59971107D01*
X147525480Y-59992150D01*
X147535970Y-60014329D01*
X147544235Y-60037428D01*
X147550196Y-60061227D01*
X147553796Y-60085495D01*
X147555000Y-60109999D01*
X147555000Y-61810001D01*
X147553796Y-61834505D01*
X147550196Y-61858773D01*
X147544235Y-61882572D01*
X147535970Y-61905671D01*
X147525480Y-61927850D01*
X147512868Y-61948893D01*
X147498253Y-61968599D01*
X147481777Y-61986777D01*
X147463599Y-62003253D01*
X147443893Y-62017868D01*
X147422850Y-62030480D01*
X147400671Y-62040970D01*
X147377572Y-62049235D01*
X147353773Y-62055196D01*
X147329505Y-62058796D01*
X147305001Y-62060000D01*
X146064999Y-62060000D01*
X146040495Y-62058796D01*
X146016227Y-62055196D01*
X145992428Y-62049235D01*
X145969329Y-62040970D01*
X145947150Y-62030480D01*
X145926107Y-62017868D01*
X145906401Y-62003253D01*
X145888223Y-61986777D01*
X145871747Y-61968599D01*
X145857132Y-61948893D01*
X145844520Y-61927850D01*
X145834030Y-61905671D01*
X145825765Y-61882572D01*
X145819804Y-61858773D01*
X145816204Y-61834505D01*
X145815000Y-61810001D01*
X145815000Y-60109999D01*
X145816204Y-60085495D01*
X145819804Y-60061227D01*
X145825765Y-60037428D01*
X145834030Y-60014329D01*
X145844520Y-59992150D01*
X145857132Y-59971107D01*
X145871747Y-59951401D01*
X145888223Y-59933223D01*
X145906401Y-59916747D01*
X145926107Y-59902132D01*
X145947150Y-59889520D01*
X145969329Y-59879030D01*
X145992428Y-59870765D01*
X146016227Y-59864804D01*
X146040495Y-59861204D01*
X146064999Y-59860000D01*
X147305001Y-59860000D01*
X147329505Y-59861204D01*
X147329505Y-59861204D01*
G37*
D24*
X146685000Y-60960000D03*
D10*
X194945000Y-76200000D03*
X194945000Y-81280000D03*
D11*
X194945000Y-86360000D03*
D10*
X194945000Y-93980000D03*
X194945000Y-99060000D03*
D11*
X194945000Y-104140000D03*
D23*
X156845000Y-60960000D03*
D16*
G36*
X154949505Y-59861204D02*
G01*
X154973773Y-59864804D01*
X154997572Y-59870765D01*
X155020671Y-59879030D01*
X155042850Y-59889520D01*
X155063893Y-59902132D01*
X155083599Y-59916747D01*
X155101777Y-59933223D01*
X155118253Y-59951401D01*
X155132868Y-59971107D01*
X155145480Y-59992150D01*
X155155970Y-60014329D01*
X155164235Y-60037428D01*
X155170196Y-60061227D01*
X155173796Y-60085495D01*
X155175000Y-60109999D01*
X155175000Y-61810001D01*
X155173796Y-61834505D01*
X155170196Y-61858773D01*
X155164235Y-61882572D01*
X155155970Y-61905671D01*
X155145480Y-61927850D01*
X155132868Y-61948893D01*
X155118253Y-61968599D01*
X155101777Y-61986777D01*
X155083599Y-62003253D01*
X155063893Y-62017868D01*
X155042850Y-62030480D01*
X155020671Y-62040970D01*
X154997572Y-62049235D01*
X154973773Y-62055196D01*
X154949505Y-62058796D01*
X154925001Y-62060000D01*
X153684999Y-62060000D01*
X153660495Y-62058796D01*
X153636227Y-62055196D01*
X153612428Y-62049235D01*
X153589329Y-62040970D01*
X153567150Y-62030480D01*
X153546107Y-62017868D01*
X153526401Y-62003253D01*
X153508223Y-61986777D01*
X153491747Y-61968599D01*
X153477132Y-61948893D01*
X153464520Y-61927850D01*
X153454030Y-61905671D01*
X153445765Y-61882572D01*
X153439804Y-61858773D01*
X153436204Y-61834505D01*
X153435000Y-61810001D01*
X153435000Y-60109999D01*
X153436204Y-60085495D01*
X153439804Y-60061227D01*
X153445765Y-60037428D01*
X153454030Y-60014329D01*
X153464520Y-59992150D01*
X153477132Y-59971107D01*
X153491747Y-59951401D01*
X153508223Y-59933223D01*
X153526401Y-59916747D01*
X153546107Y-59902132D01*
X153567150Y-59889520D01*
X153589329Y-59879030D01*
X153612428Y-59870765D01*
X153636227Y-59864804D01*
X153660495Y-59861204D01*
X153684999Y-59860000D01*
X154925001Y-59860000D01*
X154949505Y-59861204D01*
X154949505Y-59861204D01*
G37*
D24*
X154305000Y-60960000D03*
D23*
X126365000Y-60960000D03*
D16*
G36*
X124469505Y-59861204D02*
G01*
X124493773Y-59864804D01*
X124517572Y-59870765D01*
X124540671Y-59879030D01*
X124562850Y-59889520D01*
X124583893Y-59902132D01*
X124603599Y-59916747D01*
X124621777Y-59933223D01*
X124638253Y-59951401D01*
X124652868Y-59971107D01*
X124665480Y-59992150D01*
X124675970Y-60014329D01*
X124684235Y-60037428D01*
X124690196Y-60061227D01*
X124693796Y-60085495D01*
X124695000Y-60109999D01*
X124695000Y-61810001D01*
X124693796Y-61834505D01*
X124690196Y-61858773D01*
X124684235Y-61882572D01*
X124675970Y-61905671D01*
X124665480Y-61927850D01*
X124652868Y-61948893D01*
X124638253Y-61968599D01*
X124621777Y-61986777D01*
X124603599Y-62003253D01*
X124583893Y-62017868D01*
X124562850Y-62030480D01*
X124540671Y-62040970D01*
X124517572Y-62049235D01*
X124493773Y-62055196D01*
X124469505Y-62058796D01*
X124445001Y-62060000D01*
X123204999Y-62060000D01*
X123180495Y-62058796D01*
X123156227Y-62055196D01*
X123132428Y-62049235D01*
X123109329Y-62040970D01*
X123087150Y-62030480D01*
X123066107Y-62017868D01*
X123046401Y-62003253D01*
X123028223Y-61986777D01*
X123011747Y-61968599D01*
X122997132Y-61948893D01*
X122984520Y-61927850D01*
X122974030Y-61905671D01*
X122965765Y-61882572D01*
X122959804Y-61858773D01*
X122956204Y-61834505D01*
X122955000Y-61810001D01*
X122955000Y-60109999D01*
X122956204Y-60085495D01*
X122959804Y-60061227D01*
X122965765Y-60037428D01*
X122974030Y-60014329D01*
X122984520Y-59992150D01*
X122997132Y-59971107D01*
X123011747Y-59951401D01*
X123028223Y-59933223D01*
X123046401Y-59916747D01*
X123066107Y-59902132D01*
X123087150Y-59889520D01*
X123109329Y-59879030D01*
X123132428Y-59870765D01*
X123156227Y-59864804D01*
X123180495Y-59861204D01*
X123204999Y-59860000D01*
X124445001Y-59860000D01*
X124469505Y-59861204D01*
X124469505Y-59861204D01*
G37*
D24*
X123825000Y-60960000D03*
D12*
X100965000Y-96520000D03*
X100965000Y-93980000D03*
X100965000Y-91440000D03*
X100965000Y-88900000D03*
X100965000Y-86360000D03*
X100965000Y-83820000D03*
X100965000Y-81280000D03*
D13*
X100965000Y-78740000D03*
D10*
X111125000Y-61595000D03*
D11*
X106045000Y-61595000D03*
D12*
X111125000Y-101600000D03*
X111125000Y-99060000D03*
X111125000Y-96520000D03*
X111125000Y-93980000D03*
X111125000Y-91440000D03*
X111125000Y-88900000D03*
X111125000Y-86360000D03*
X111125000Y-83820000D03*
X111125000Y-81280000D03*
X111125000Y-78740000D03*
X111125000Y-76200000D03*
D13*
X111125000Y-73660000D03*
D25*
X88265000Y-63500000D03*
X88265000Y-101000000D03*
D26*
X88900000Y-123190000D03*
D27*
X88900000Y-107950000D03*
D28*
X147635000Y-107300000D03*
X147635000Y-108600000D03*
X145735000Y-107950000D03*
X145735000Y-108600000D03*
X145735000Y-107300000D03*
D16*
G36*
X137005142Y-68426174D02*
G01*
X137028803Y-68429684D01*
X137052007Y-68435496D01*
X137074529Y-68443554D01*
X137096153Y-68453782D01*
X137116670Y-68466079D01*
X137135883Y-68480329D01*
X137153607Y-68496393D01*
X137169671Y-68514117D01*
X137183921Y-68533330D01*
X137196218Y-68553847D01*
X137206446Y-68575471D01*
X137214504Y-68597993D01*
X137220316Y-68621197D01*
X137223826Y-68644858D01*
X137225000Y-68668750D01*
X137225000Y-69156250D01*
X137223826Y-69180142D01*
X137220316Y-69203803D01*
X137214504Y-69227007D01*
X137206446Y-69249529D01*
X137196218Y-69271153D01*
X137183921Y-69291670D01*
X137169671Y-69310883D01*
X137153607Y-69328607D01*
X137135883Y-69344671D01*
X137116670Y-69358921D01*
X137096153Y-69371218D01*
X137074529Y-69381446D01*
X137052007Y-69389504D01*
X137028803Y-69395316D01*
X137005142Y-69398826D01*
X136981250Y-69400000D01*
X136068750Y-69400000D01*
X136044858Y-69398826D01*
X136021197Y-69395316D01*
X135997993Y-69389504D01*
X135975471Y-69381446D01*
X135953847Y-69371218D01*
X135933330Y-69358921D01*
X135914117Y-69344671D01*
X135896393Y-69328607D01*
X135880329Y-69310883D01*
X135866079Y-69291670D01*
X135853782Y-69271153D01*
X135843554Y-69249529D01*
X135835496Y-69227007D01*
X135829684Y-69203803D01*
X135826174Y-69180142D01*
X135825000Y-69156250D01*
X135825000Y-68668750D01*
X135826174Y-68644858D01*
X135829684Y-68621197D01*
X135835496Y-68597993D01*
X135843554Y-68575471D01*
X135853782Y-68553847D01*
X135866079Y-68533330D01*
X135880329Y-68514117D01*
X135896393Y-68496393D01*
X135914117Y-68480329D01*
X135933330Y-68466079D01*
X135953847Y-68453782D01*
X135975471Y-68443554D01*
X135997993Y-68435496D01*
X136021197Y-68429684D01*
X136044858Y-68426174D01*
X136068750Y-68425000D01*
X136981250Y-68425000D01*
X137005142Y-68426174D01*
X137005142Y-68426174D01*
G37*
D29*
X136525000Y-68912500D03*
D16*
G36*
X137005142Y-70301174D02*
G01*
X137028803Y-70304684D01*
X137052007Y-70310496D01*
X137074529Y-70318554D01*
X137096153Y-70328782D01*
X137116670Y-70341079D01*
X137135883Y-70355329D01*
X137153607Y-70371393D01*
X137169671Y-70389117D01*
X137183921Y-70408330D01*
X137196218Y-70428847D01*
X137206446Y-70450471D01*
X137214504Y-70472993D01*
X137220316Y-70496197D01*
X137223826Y-70519858D01*
X137225000Y-70543750D01*
X137225000Y-71031250D01*
X137223826Y-71055142D01*
X137220316Y-71078803D01*
X137214504Y-71102007D01*
X137206446Y-71124529D01*
X137196218Y-71146153D01*
X137183921Y-71166670D01*
X137169671Y-71185883D01*
X137153607Y-71203607D01*
X137135883Y-71219671D01*
X137116670Y-71233921D01*
X137096153Y-71246218D01*
X137074529Y-71256446D01*
X137052007Y-71264504D01*
X137028803Y-71270316D01*
X137005142Y-71273826D01*
X136981250Y-71275000D01*
X136068750Y-71275000D01*
X136044858Y-71273826D01*
X136021197Y-71270316D01*
X135997993Y-71264504D01*
X135975471Y-71256446D01*
X135953847Y-71246218D01*
X135933330Y-71233921D01*
X135914117Y-71219671D01*
X135896393Y-71203607D01*
X135880329Y-71185883D01*
X135866079Y-71166670D01*
X135853782Y-71146153D01*
X135843554Y-71124529D01*
X135835496Y-71102007D01*
X135829684Y-71078803D01*
X135826174Y-71055142D01*
X135825000Y-71031250D01*
X135825000Y-70543750D01*
X135826174Y-70519858D01*
X135829684Y-70496197D01*
X135835496Y-70472993D01*
X135843554Y-70450471D01*
X135853782Y-70428847D01*
X135866079Y-70408330D01*
X135880329Y-70389117D01*
X135896393Y-70371393D01*
X135914117Y-70355329D01*
X135933330Y-70341079D01*
X135953847Y-70328782D01*
X135975471Y-70318554D01*
X135997993Y-70310496D01*
X136021197Y-70304684D01*
X136044858Y-70301174D01*
X136068750Y-70300000D01*
X136981250Y-70300000D01*
X137005142Y-70301174D01*
X137005142Y-70301174D01*
G37*
D29*
X136525000Y-70787500D03*
D16*
G36*
X142085142Y-68426174D02*
G01*
X142108803Y-68429684D01*
X142132007Y-68435496D01*
X142154529Y-68443554D01*
X142176153Y-68453782D01*
X142196670Y-68466079D01*
X142215883Y-68480329D01*
X142233607Y-68496393D01*
X142249671Y-68514117D01*
X142263921Y-68533330D01*
X142276218Y-68553847D01*
X142286446Y-68575471D01*
X142294504Y-68597993D01*
X142300316Y-68621197D01*
X142303826Y-68644858D01*
X142305000Y-68668750D01*
X142305000Y-69156250D01*
X142303826Y-69180142D01*
X142300316Y-69203803D01*
X142294504Y-69227007D01*
X142286446Y-69249529D01*
X142276218Y-69271153D01*
X142263921Y-69291670D01*
X142249671Y-69310883D01*
X142233607Y-69328607D01*
X142215883Y-69344671D01*
X142196670Y-69358921D01*
X142176153Y-69371218D01*
X142154529Y-69381446D01*
X142132007Y-69389504D01*
X142108803Y-69395316D01*
X142085142Y-69398826D01*
X142061250Y-69400000D01*
X141148750Y-69400000D01*
X141124858Y-69398826D01*
X141101197Y-69395316D01*
X141077993Y-69389504D01*
X141055471Y-69381446D01*
X141033847Y-69371218D01*
X141013330Y-69358921D01*
X140994117Y-69344671D01*
X140976393Y-69328607D01*
X140960329Y-69310883D01*
X140946079Y-69291670D01*
X140933782Y-69271153D01*
X140923554Y-69249529D01*
X140915496Y-69227007D01*
X140909684Y-69203803D01*
X140906174Y-69180142D01*
X140905000Y-69156250D01*
X140905000Y-68668750D01*
X140906174Y-68644858D01*
X140909684Y-68621197D01*
X140915496Y-68597993D01*
X140923554Y-68575471D01*
X140933782Y-68553847D01*
X140946079Y-68533330D01*
X140960329Y-68514117D01*
X140976393Y-68496393D01*
X140994117Y-68480329D01*
X141013330Y-68466079D01*
X141033847Y-68453782D01*
X141055471Y-68443554D01*
X141077993Y-68435496D01*
X141101197Y-68429684D01*
X141124858Y-68426174D01*
X141148750Y-68425000D01*
X142061250Y-68425000D01*
X142085142Y-68426174D01*
X142085142Y-68426174D01*
G37*
D29*
X141605000Y-68912500D03*
D16*
G36*
X142085142Y-70301174D02*
G01*
X142108803Y-70304684D01*
X142132007Y-70310496D01*
X142154529Y-70318554D01*
X142176153Y-70328782D01*
X142196670Y-70341079D01*
X142215883Y-70355329D01*
X142233607Y-70371393D01*
X142249671Y-70389117D01*
X142263921Y-70408330D01*
X142276218Y-70428847D01*
X142286446Y-70450471D01*
X142294504Y-70472993D01*
X142300316Y-70496197D01*
X142303826Y-70519858D01*
X142305000Y-70543750D01*
X142305000Y-71031250D01*
X142303826Y-71055142D01*
X142300316Y-71078803D01*
X142294504Y-71102007D01*
X142286446Y-71124529D01*
X142276218Y-71146153D01*
X142263921Y-71166670D01*
X142249671Y-71185883D01*
X142233607Y-71203607D01*
X142215883Y-71219671D01*
X142196670Y-71233921D01*
X142176153Y-71246218D01*
X142154529Y-71256446D01*
X142132007Y-71264504D01*
X142108803Y-71270316D01*
X142085142Y-71273826D01*
X142061250Y-71275000D01*
X141148750Y-71275000D01*
X141124858Y-71273826D01*
X141101197Y-71270316D01*
X141077993Y-71264504D01*
X141055471Y-71256446D01*
X141033847Y-71246218D01*
X141013330Y-71233921D01*
X140994117Y-71219671D01*
X140976393Y-71203607D01*
X140960329Y-71185883D01*
X140946079Y-71166670D01*
X140933782Y-71146153D01*
X140923554Y-71124529D01*
X140915496Y-71102007D01*
X140909684Y-71078803D01*
X140906174Y-71055142D01*
X140905000Y-71031250D01*
X140905000Y-70543750D01*
X140906174Y-70519858D01*
X140909684Y-70496197D01*
X140915496Y-70472993D01*
X140923554Y-70450471D01*
X140933782Y-70428847D01*
X140946079Y-70408330D01*
X140960329Y-70389117D01*
X140976393Y-70371393D01*
X140994117Y-70355329D01*
X141013330Y-70341079D01*
X141033847Y-70328782D01*
X141055471Y-70318554D01*
X141077993Y-70310496D01*
X141101197Y-70304684D01*
X141124858Y-70301174D01*
X141148750Y-70300000D01*
X142061250Y-70300000D01*
X142085142Y-70301174D01*
X142085142Y-70301174D01*
G37*
D29*
X141605000Y-70787500D03*
D16*
G36*
X144625142Y-68426174D02*
G01*
X144648803Y-68429684D01*
X144672007Y-68435496D01*
X144694529Y-68443554D01*
X144716153Y-68453782D01*
X144736670Y-68466079D01*
X144755883Y-68480329D01*
X144773607Y-68496393D01*
X144789671Y-68514117D01*
X144803921Y-68533330D01*
X144816218Y-68553847D01*
X144826446Y-68575471D01*
X144834504Y-68597993D01*
X144840316Y-68621197D01*
X144843826Y-68644858D01*
X144845000Y-68668750D01*
X144845000Y-69156250D01*
X144843826Y-69180142D01*
X144840316Y-69203803D01*
X144834504Y-69227007D01*
X144826446Y-69249529D01*
X144816218Y-69271153D01*
X144803921Y-69291670D01*
X144789671Y-69310883D01*
X144773607Y-69328607D01*
X144755883Y-69344671D01*
X144736670Y-69358921D01*
X144716153Y-69371218D01*
X144694529Y-69381446D01*
X144672007Y-69389504D01*
X144648803Y-69395316D01*
X144625142Y-69398826D01*
X144601250Y-69400000D01*
X143688750Y-69400000D01*
X143664858Y-69398826D01*
X143641197Y-69395316D01*
X143617993Y-69389504D01*
X143595471Y-69381446D01*
X143573847Y-69371218D01*
X143553330Y-69358921D01*
X143534117Y-69344671D01*
X143516393Y-69328607D01*
X143500329Y-69310883D01*
X143486079Y-69291670D01*
X143473782Y-69271153D01*
X143463554Y-69249529D01*
X143455496Y-69227007D01*
X143449684Y-69203803D01*
X143446174Y-69180142D01*
X143445000Y-69156250D01*
X143445000Y-68668750D01*
X143446174Y-68644858D01*
X143449684Y-68621197D01*
X143455496Y-68597993D01*
X143463554Y-68575471D01*
X143473782Y-68553847D01*
X143486079Y-68533330D01*
X143500329Y-68514117D01*
X143516393Y-68496393D01*
X143534117Y-68480329D01*
X143553330Y-68466079D01*
X143573847Y-68453782D01*
X143595471Y-68443554D01*
X143617993Y-68435496D01*
X143641197Y-68429684D01*
X143664858Y-68426174D01*
X143688750Y-68425000D01*
X144601250Y-68425000D01*
X144625142Y-68426174D01*
X144625142Y-68426174D01*
G37*
D29*
X144145000Y-68912500D03*
D16*
G36*
X144625142Y-70301174D02*
G01*
X144648803Y-70304684D01*
X144672007Y-70310496D01*
X144694529Y-70318554D01*
X144716153Y-70328782D01*
X144736670Y-70341079D01*
X144755883Y-70355329D01*
X144773607Y-70371393D01*
X144789671Y-70389117D01*
X144803921Y-70408330D01*
X144816218Y-70428847D01*
X144826446Y-70450471D01*
X144834504Y-70472993D01*
X144840316Y-70496197D01*
X144843826Y-70519858D01*
X144845000Y-70543750D01*
X144845000Y-71031250D01*
X144843826Y-71055142D01*
X144840316Y-71078803D01*
X144834504Y-71102007D01*
X144826446Y-71124529D01*
X144816218Y-71146153D01*
X144803921Y-71166670D01*
X144789671Y-71185883D01*
X144773607Y-71203607D01*
X144755883Y-71219671D01*
X144736670Y-71233921D01*
X144716153Y-71246218D01*
X144694529Y-71256446D01*
X144672007Y-71264504D01*
X144648803Y-71270316D01*
X144625142Y-71273826D01*
X144601250Y-71275000D01*
X143688750Y-71275000D01*
X143664858Y-71273826D01*
X143641197Y-71270316D01*
X143617993Y-71264504D01*
X143595471Y-71256446D01*
X143573847Y-71246218D01*
X143553330Y-71233921D01*
X143534117Y-71219671D01*
X143516393Y-71203607D01*
X143500329Y-71185883D01*
X143486079Y-71166670D01*
X143473782Y-71146153D01*
X143463554Y-71124529D01*
X143455496Y-71102007D01*
X143449684Y-71078803D01*
X143446174Y-71055142D01*
X143445000Y-71031250D01*
X143445000Y-70543750D01*
X143446174Y-70519858D01*
X143449684Y-70496197D01*
X143455496Y-70472993D01*
X143463554Y-70450471D01*
X143473782Y-70428847D01*
X143486079Y-70408330D01*
X143500329Y-70389117D01*
X143516393Y-70371393D01*
X143534117Y-70355329D01*
X143553330Y-70341079D01*
X143573847Y-70328782D01*
X143595471Y-70318554D01*
X143617993Y-70310496D01*
X143641197Y-70304684D01*
X143664858Y-70301174D01*
X143688750Y-70300000D01*
X144601250Y-70300000D01*
X144625142Y-70301174D01*
X144625142Y-70301174D01*
G37*
D29*
X144145000Y-70787500D03*
D16*
G36*
X149705142Y-68426174D02*
G01*
X149728803Y-68429684D01*
X149752007Y-68435496D01*
X149774529Y-68443554D01*
X149796153Y-68453782D01*
X149816670Y-68466079D01*
X149835883Y-68480329D01*
X149853607Y-68496393D01*
X149869671Y-68514117D01*
X149883921Y-68533330D01*
X149896218Y-68553847D01*
X149906446Y-68575471D01*
X149914504Y-68597993D01*
X149920316Y-68621197D01*
X149923826Y-68644858D01*
X149925000Y-68668750D01*
X149925000Y-69156250D01*
X149923826Y-69180142D01*
X149920316Y-69203803D01*
X149914504Y-69227007D01*
X149906446Y-69249529D01*
X149896218Y-69271153D01*
X149883921Y-69291670D01*
X149869671Y-69310883D01*
X149853607Y-69328607D01*
X149835883Y-69344671D01*
X149816670Y-69358921D01*
X149796153Y-69371218D01*
X149774529Y-69381446D01*
X149752007Y-69389504D01*
X149728803Y-69395316D01*
X149705142Y-69398826D01*
X149681250Y-69400000D01*
X148768750Y-69400000D01*
X148744858Y-69398826D01*
X148721197Y-69395316D01*
X148697993Y-69389504D01*
X148675471Y-69381446D01*
X148653847Y-69371218D01*
X148633330Y-69358921D01*
X148614117Y-69344671D01*
X148596393Y-69328607D01*
X148580329Y-69310883D01*
X148566079Y-69291670D01*
X148553782Y-69271153D01*
X148543554Y-69249529D01*
X148535496Y-69227007D01*
X148529684Y-69203803D01*
X148526174Y-69180142D01*
X148525000Y-69156250D01*
X148525000Y-68668750D01*
X148526174Y-68644858D01*
X148529684Y-68621197D01*
X148535496Y-68597993D01*
X148543554Y-68575471D01*
X148553782Y-68553847D01*
X148566079Y-68533330D01*
X148580329Y-68514117D01*
X148596393Y-68496393D01*
X148614117Y-68480329D01*
X148633330Y-68466079D01*
X148653847Y-68453782D01*
X148675471Y-68443554D01*
X148697993Y-68435496D01*
X148721197Y-68429684D01*
X148744858Y-68426174D01*
X148768750Y-68425000D01*
X149681250Y-68425000D01*
X149705142Y-68426174D01*
X149705142Y-68426174D01*
G37*
D29*
X149225000Y-68912500D03*
D16*
G36*
X149705142Y-70301174D02*
G01*
X149728803Y-70304684D01*
X149752007Y-70310496D01*
X149774529Y-70318554D01*
X149796153Y-70328782D01*
X149816670Y-70341079D01*
X149835883Y-70355329D01*
X149853607Y-70371393D01*
X149869671Y-70389117D01*
X149883921Y-70408330D01*
X149896218Y-70428847D01*
X149906446Y-70450471D01*
X149914504Y-70472993D01*
X149920316Y-70496197D01*
X149923826Y-70519858D01*
X149925000Y-70543750D01*
X149925000Y-71031250D01*
X149923826Y-71055142D01*
X149920316Y-71078803D01*
X149914504Y-71102007D01*
X149906446Y-71124529D01*
X149896218Y-71146153D01*
X149883921Y-71166670D01*
X149869671Y-71185883D01*
X149853607Y-71203607D01*
X149835883Y-71219671D01*
X149816670Y-71233921D01*
X149796153Y-71246218D01*
X149774529Y-71256446D01*
X149752007Y-71264504D01*
X149728803Y-71270316D01*
X149705142Y-71273826D01*
X149681250Y-71275000D01*
X148768750Y-71275000D01*
X148744858Y-71273826D01*
X148721197Y-71270316D01*
X148697993Y-71264504D01*
X148675471Y-71256446D01*
X148653847Y-71246218D01*
X148633330Y-71233921D01*
X148614117Y-71219671D01*
X148596393Y-71203607D01*
X148580329Y-71185883D01*
X148566079Y-71166670D01*
X148553782Y-71146153D01*
X148543554Y-71124529D01*
X148535496Y-71102007D01*
X148529684Y-71078803D01*
X148526174Y-71055142D01*
X148525000Y-71031250D01*
X148525000Y-70543750D01*
X148526174Y-70519858D01*
X148529684Y-70496197D01*
X148535496Y-70472993D01*
X148543554Y-70450471D01*
X148553782Y-70428847D01*
X148566079Y-70408330D01*
X148580329Y-70389117D01*
X148596393Y-70371393D01*
X148614117Y-70355329D01*
X148633330Y-70341079D01*
X148653847Y-70328782D01*
X148675471Y-70318554D01*
X148697993Y-70310496D01*
X148721197Y-70304684D01*
X148744858Y-70301174D01*
X148768750Y-70300000D01*
X149681250Y-70300000D01*
X149705142Y-70301174D01*
X149705142Y-70301174D01*
G37*
D29*
X149225000Y-70787500D03*
D17*
X131445000Y-92710000D03*
X136525000Y-82550000D03*
X139409998Y-90170000D03*
X137988051Y-87823051D03*
D30*
X159385000Y-54610000D02*
X163195000Y-58420000D01*
X152097500Y-66040000D02*
X149225000Y-68912500D01*
X163195000Y-66040000D02*
X152097500Y-66040000D01*
X156845000Y-57150000D02*
X156845000Y-60960000D01*
X159385000Y-54610000D02*
X156845000Y-57150000D01*
X149225000Y-55880000D02*
X149225000Y-60960000D01*
X150495000Y-54610000D02*
X149225000Y-55880000D01*
X150495000Y-54610000D02*
X159385000Y-54610000D01*
X142875000Y-54610000D02*
X141605000Y-55880000D01*
X142875000Y-54610000D02*
X150495000Y-54610000D01*
X141605000Y-55880000D02*
X141605000Y-60960000D01*
X135255000Y-54610000D02*
X133985000Y-55880000D01*
X135255000Y-54610000D02*
X142875000Y-54610000D01*
X133985000Y-55880000D02*
X133985000Y-60960000D01*
X149225000Y-68912500D02*
X144145000Y-68912500D01*
X144145000Y-68912500D02*
X141605000Y-68912500D01*
X141605000Y-68912500D02*
X136525000Y-68912500D01*
X121285000Y-81280000D02*
X126365000Y-76200000D01*
X111125000Y-81280000D02*
X121285000Y-81280000D01*
X100965000Y-81280000D02*
X111125000Y-81280000D01*
X163195000Y-58420000D02*
X163195000Y-66040000D01*
X118110000Y-107950000D02*
X118110000Y-108350000D01*
X135615000Y-90850000D02*
X133305000Y-90850000D01*
X133305000Y-90850000D02*
X131445000Y-92710000D01*
D31*
X119210000Y-107950000D02*
X118110000Y-107950000D01*
X124460000Y-106045000D02*
X121115000Y-106045000D01*
X131875000Y-107950000D02*
X126365000Y-107950000D01*
X121115000Y-106045000D02*
X119210000Y-107950000D01*
X126365000Y-107950000D02*
X124460000Y-106045000D01*
D30*
X121920000Y-56515000D02*
X123825000Y-54610000D01*
X127635000Y-76200000D02*
X128905000Y-74930000D01*
X126365000Y-76200000D02*
X127635000Y-76200000D01*
X128905000Y-68580000D02*
X121920000Y-64770000D01*
X128905000Y-74930000D02*
X128905000Y-68580000D01*
X123825000Y-54610000D02*
X135255000Y-54610000D01*
X121920000Y-64770000D02*
X121920000Y-56515000D01*
X125730000Y-100330000D02*
X131875000Y-100330000D01*
X125309999Y-100750001D02*
X125730000Y-100330000D01*
X111974999Y-100750001D02*
X125309999Y-100750001D01*
X111125000Y-101600000D02*
X111974999Y-100750001D01*
X130750000Y-99060000D02*
X131875000Y-99060000D01*
X129480000Y-97790000D02*
X130750000Y-99060000D01*
X112395000Y-97790000D02*
X129480000Y-97790000D01*
X111125000Y-99060000D02*
X112395000Y-97790000D01*
X129240001Y-95155001D02*
X131875000Y-97790000D01*
X112489999Y-95155001D02*
X129240001Y-95155001D01*
X111125000Y-96520000D02*
X112489999Y-95155001D01*
X100965000Y-93980000D02*
X111125000Y-93980000D01*
X100965000Y-91440000D02*
X111125000Y-91440000D01*
X100965000Y-88900000D02*
X111125000Y-88900000D01*
X100965000Y-86360000D02*
X111125000Y-86360000D01*
X100965000Y-83820000D02*
X111125000Y-83820000D01*
X126365000Y-101600000D02*
X131875000Y-101600000D01*
X126365000Y-93980000D02*
X139700000Y-93980000D01*
X142515000Y-91165000D02*
X142515000Y-90850000D01*
X139700000Y-93980000D02*
X142515000Y-91165000D01*
X127605000Y-90200000D02*
X135615000Y-90200000D01*
X126365000Y-91440000D02*
X127605000Y-90200000D01*
D32*
X189865000Y-81280000D02*
X194945000Y-86360000D01*
X165735000Y-81280000D02*
X189865000Y-81280000D01*
D30*
X126365000Y-88900000D02*
X135255000Y-88900000D01*
X135255000Y-88900000D02*
X135615000Y-88900000D01*
X127605000Y-87600000D02*
X135615000Y-87600000D01*
X126365000Y-86360000D02*
X127605000Y-87600000D01*
X145735000Y-107950000D02*
X141175000Y-107950000D01*
X142515000Y-85450000D02*
X147955000Y-80010000D01*
X142515000Y-86950000D02*
X142515000Y-85450000D01*
D31*
X139905000Y-109220000D02*
X141175000Y-107950000D01*
X124060000Y-109220000D02*
X139905000Y-109220000D01*
X123190000Y-107950000D02*
X123190000Y-108350000D01*
X123190000Y-108350000D02*
X124060000Y-109220000D01*
D32*
X189865000Y-116840000D02*
X194945000Y-121920000D01*
X165735000Y-116840000D02*
X189865000Y-116840000D01*
X189865000Y-99060000D02*
X194945000Y-104140000D01*
X165735000Y-99060000D02*
X189865000Y-99060000D01*
X189865000Y-63500000D02*
X194945000Y-68580000D01*
X165735000Y-63500000D02*
X189865000Y-63500000D01*
D31*
X136525000Y-74930000D02*
X136525000Y-70787500D01*
D30*
X136525000Y-74930000D02*
X136525000Y-82550000D01*
X142485000Y-90170000D02*
X142515000Y-90200000D01*
X139409998Y-90170000D02*
X142485000Y-90170000D01*
D31*
X141605000Y-74930000D02*
X141605000Y-70787500D01*
D30*
X136465000Y-89550000D02*
X137988051Y-88026949D01*
X137988051Y-88026949D02*
X137988051Y-87823051D01*
X135615000Y-89550000D02*
X136465000Y-89550000D01*
D31*
X144145000Y-74930000D02*
X144145000Y-70787500D01*
D30*
X144145000Y-80455002D02*
X144145000Y-74930000D01*
X136350002Y-88250000D02*
X144145000Y-80455002D01*
X135615000Y-88250000D02*
X136350002Y-88250000D01*
D31*
X149225000Y-74930000D02*
X149225000Y-70787500D01*
D30*
X135615000Y-86950000D02*
X136015000Y-86950000D01*
X141749999Y-81215001D02*
X141749999Y-78595001D01*
X136015000Y-86950000D02*
X141749999Y-81215001D01*
X141749999Y-78595001D02*
X142875000Y-77470000D01*
X145401360Y-69974990D02*
X149225000Y-73798630D01*
X143453160Y-69974990D02*
X145401360Y-69974990D01*
X142875000Y-70553150D02*
X143453160Y-69974990D01*
X149225000Y-73798630D02*
X149225000Y-74930000D01*
X142875000Y-77470000D02*
X142875000Y-70553150D01*
D31*
X141175000Y-97790000D02*
X141545710Y-98160710D01*
X145150710Y-98160710D02*
X149860000Y-102870000D01*
X149860000Y-102870000D02*
X149860000Y-106680000D01*
X149240000Y-107300000D02*
X147635000Y-107300000D01*
X149860000Y-106680000D02*
X149240000Y-107300000D01*
X155925000Y-87280000D02*
X145044290Y-98160710D01*
X165385000Y-87280000D02*
X155925000Y-87280000D01*
D30*
X165195000Y-87280000D02*
X165385000Y-87280000D01*
D31*
X141545710Y-98160710D02*
X145044290Y-98160710D01*
D30*
X165385000Y-87280000D02*
X167735000Y-87280000D01*
D31*
X145044290Y-98160710D02*
X145150710Y-98160710D01*
D30*
X147510000Y-108600000D02*
X147635000Y-108600000D01*
X146984999Y-108074999D02*
X147510000Y-108600000D01*
X146984999Y-104443231D02*
X146984999Y-108074999D01*
X141972478Y-99430710D02*
X146984999Y-104443231D01*
X141545710Y-99430710D02*
X141972478Y-99430710D01*
X141175000Y-99060000D02*
X141545710Y-99430710D01*
X164450000Y-108345000D02*
X167735000Y-105060000D01*
X147635000Y-108600000D02*
X164450000Y-108600000D01*
X164450000Y-108600000D02*
X164450000Y-108345000D01*
D31*
X164195000Y-108600000D02*
X147635000Y-108600000D01*
X167735000Y-105060000D02*
X164195000Y-108600000D01*
D30*
X141601768Y-100330000D02*
X146534989Y-105263221D01*
X141175000Y-100330000D02*
X141601768Y-100330000D01*
X146534989Y-108375011D02*
X146310000Y-108600000D01*
X146534989Y-105263221D02*
X146534989Y-108375011D01*
X160305000Y-122840000D02*
X167735000Y-122840000D01*
X146310000Y-108600000D02*
X145735000Y-108600000D01*
D31*
X159275000Y-122840000D02*
X145735000Y-109300000D01*
X145735000Y-109300000D02*
X145735000Y-108600000D01*
X167735000Y-122840000D02*
X159275000Y-122840000D01*
D30*
X145735000Y-105733232D02*
X145735000Y-107300000D01*
X141972478Y-101970710D02*
X145735000Y-105733232D01*
X141545710Y-101970710D02*
X141972478Y-101970710D01*
X141175000Y-101600000D02*
X141545710Y-101970710D01*
D31*
X165967234Y-69500000D02*
X137795000Y-97672234D01*
X167735000Y-69500000D02*
X165967234Y-69500000D01*
X140050000Y-101600000D02*
X141175000Y-101600000D01*
X137795000Y-99345000D02*
X140050000Y-101600000D01*
X137795000Y-97672234D02*
X137795000Y-99345000D01*
M02*
