%FSLAX45Y45*%
G04 Gerber Fmt 4.5, Leading zero omitted, Abs format (unit mm)*
G04 Created by KiCad (PCBNEW 5.1.4+dfsg1-1) date 2019-12-07 14:51:20*
%MOMM*%
%LPD*%
G04 APERTURE LIST*
%ADD10C,0.200000*%
%ADD11C,0.300000*%
G04 APERTURE END LIST*
D10*
X13124500Y-9251000D02*
X13164500Y-9291000D01*
X13164500Y-9251000D02*
X13124500Y-9291000D01*
X13632500Y-8235000D02*
X13672500Y-8275000D01*
X13672500Y-8235000D02*
X13632500Y-8275000D01*
X13778805Y-8762305D02*
X13818805Y-8802305D01*
X13818805Y-8762305D02*
X13778805Y-8802305D01*
X13921000Y-8997000D02*
X13961000Y-9037000D01*
X13961000Y-8997000D02*
X13921000Y-9037000D01*
X10073000Y-10795000D02*
G75*
G03X10073000Y-10795000I-40000J0D01*
G01*
X10073000Y-12319000D02*
G75*
G03X10073000Y-12319000I-40000J0D01*
G01*
X10327000Y-10795000D02*
G75*
G03X10327000Y-10795000I-40000J0D01*
G01*
X10327000Y-12319000D02*
G75*
G03X10327000Y-12319000I-40000J0D01*
G01*
X11851000Y-10795000D02*
G75*
G03X11851000Y-10795000I-40000J0D01*
G01*
X11851000Y-12319000D02*
G75*
G03X11851000Y-12319000I-40000J0D01*
G01*
X12359000Y-10795000D02*
G75*
G03X12359000Y-10795000I-40000J0D01*
G01*
X12359000Y-12319000D02*
G75*
G03X12359000Y-12319000I-40000J0D01*
G01*
X13438500Y-7493000D02*
G75*
G03X13438500Y-7493000I-40000J0D01*
G01*
X13692500Y-7493000D02*
G75*
G03X13692500Y-7493000I-40000J0D01*
G01*
X13946500Y-7493000D02*
G75*
G03X13946500Y-7493000I-40000J0D01*
G01*
X14200500Y-7493000D02*
G75*
G03X14200500Y-7493000I-40000J0D01*
G01*
X14454500Y-7493000D02*
G75*
G03X14454500Y-7493000I-40000J0D01*
G01*
X14708500Y-7493000D02*
G75*
G03X14708500Y-7493000I-40000J0D01*
G01*
X14962500Y-7493000D02*
G75*
G03X14962500Y-7493000I-40000J0D01*
G01*
X15216500Y-7493000D02*
G75*
G03X15216500Y-7493000I-40000J0D01*
G01*
X13819500Y-8001000D02*
G75*
G03X13819500Y-8001000I-40000J0D01*
G01*
X14073500Y-8001000D02*
G75*
G03X14073500Y-8001000I-40000J0D01*
G01*
X14327500Y-8001000D02*
G75*
G03X14327500Y-8001000I-40000J0D01*
G01*
X14581500Y-8001000D02*
G75*
G03X14581500Y-8001000I-40000J0D01*
G01*
X14835500Y-8001000D02*
G75*
G03X14835500Y-8001000I-40000J0D01*
G01*
X12041500Y-6096000D02*
G75*
G03X12041500Y-6096000I-40000J0D01*
G01*
X12041500Y-7112000D02*
G75*
G03X12041500Y-7112000I-40000J0D01*
G01*
X11112500Y-7316000D02*
X11112500Y-7416000D01*
X11062500Y-7366000D02*
X11162500Y-7366000D01*
X11112500Y-7570000D02*
X11112500Y-7670000D01*
X11062500Y-7620000D02*
X11162500Y-7620000D01*
X11112500Y-7824000D02*
X11112500Y-7924000D01*
X11062500Y-7874000D02*
X11162500Y-7874000D01*
X11112500Y-8078000D02*
X11112500Y-8178000D01*
X11062500Y-8128000D02*
X11162500Y-8128000D01*
X11112500Y-8332000D02*
X11112500Y-8432000D01*
X11062500Y-8382000D02*
X11162500Y-8382000D01*
X11112500Y-8586000D02*
X11112500Y-8686000D01*
X11062500Y-8636000D02*
X11162500Y-8636000D01*
X11112500Y-8840000D02*
X11112500Y-8940000D01*
X11062500Y-8890000D02*
X11162500Y-8890000D01*
X11112500Y-9094000D02*
X11112500Y-9194000D01*
X11062500Y-9144000D02*
X11162500Y-9144000D01*
X11112500Y-9348000D02*
X11112500Y-9448000D01*
X11062500Y-9398000D02*
X11162500Y-9398000D01*
X11112500Y-9602000D02*
X11112500Y-9702000D01*
X11062500Y-9652000D02*
X11162500Y-9652000D01*
X11112500Y-9856000D02*
X11112500Y-9956000D01*
X11062500Y-9906000D02*
X11162500Y-9906000D01*
X11112500Y-10110000D02*
X11112500Y-10210000D01*
X11062500Y-10160000D02*
X11162500Y-10160000D01*
X12636500Y-7316000D02*
X12636500Y-7416000D01*
X12586500Y-7366000D02*
X12686500Y-7366000D01*
X12636500Y-7570000D02*
X12636500Y-7670000D01*
X12586500Y-7620000D02*
X12686500Y-7620000D01*
X12636500Y-7824000D02*
X12636500Y-7924000D01*
X12586500Y-7874000D02*
X12686500Y-7874000D01*
X12636500Y-8078000D02*
X12636500Y-8178000D01*
X12586500Y-8128000D02*
X12686500Y-8128000D01*
X12636500Y-8332000D02*
X12636500Y-8432000D01*
X12586500Y-8382000D02*
X12686500Y-8382000D01*
X12636500Y-8586000D02*
X12636500Y-8686000D01*
X12586500Y-8636000D02*
X12686500Y-8636000D01*
X12636500Y-8840000D02*
X12636500Y-8940000D01*
X12586500Y-8890000D02*
X12686500Y-8890000D01*
X12636500Y-9094000D02*
X12636500Y-9194000D01*
X12586500Y-9144000D02*
X12686500Y-9144000D01*
X12636500Y-9348000D02*
X12636500Y-9448000D01*
X12586500Y-9398000D02*
X12686500Y-9398000D01*
X12636500Y-9602000D02*
X12636500Y-9702000D01*
X12586500Y-9652000D02*
X12686500Y-9652000D01*
X12636500Y-9856000D02*
X12636500Y-9956000D01*
X12586500Y-9906000D02*
X12686500Y-9906000D01*
X12636500Y-10110000D02*
X12636500Y-10210000D01*
X12586500Y-10160000D02*
X12686500Y-10160000D01*
X10096500Y-7824000D02*
X10096500Y-7924000D01*
X10046500Y-7874000D02*
X10146500Y-7874000D01*
X10096500Y-8078000D02*
X10096500Y-8178000D01*
X10046500Y-8128000D02*
X10146500Y-8128000D01*
X10096500Y-8332000D02*
X10096500Y-8432000D01*
X10046500Y-8382000D02*
X10146500Y-8382000D01*
X10096500Y-8586000D02*
X10096500Y-8686000D01*
X10046500Y-8636000D02*
X10146500Y-8636000D01*
X10096500Y-8840000D02*
X10096500Y-8940000D01*
X10046500Y-8890000D02*
X10146500Y-8890000D01*
X10096500Y-9094000D02*
X10096500Y-9194000D01*
X10046500Y-9144000D02*
X10146500Y-9144000D01*
X10096500Y-9348000D02*
X10096500Y-9448000D01*
X10046500Y-9398000D02*
X10146500Y-9398000D01*
X10096500Y-9602000D02*
X10096500Y-9702000D01*
X10046500Y-9652000D02*
X10146500Y-9652000D01*
X13186927Y-6138427D02*
X13186927Y-6053573D01*
X13102073Y-6053573D01*
X13102073Y-6138427D01*
X13186927Y-6138427D01*
X13440927Y-6138427D02*
X13440927Y-6053573D01*
X13356073Y-6053573D01*
X13356073Y-6138427D01*
X13440927Y-6138427D01*
X15472927Y-6138427D02*
X15472927Y-6053573D01*
X15388073Y-6053573D01*
X15388073Y-6138427D01*
X15472927Y-6138427D01*
X15726927Y-6138427D02*
X15726927Y-6053573D01*
X15642073Y-6053573D01*
X15642073Y-6138427D01*
X15726927Y-6138427D01*
X12424927Y-6138427D02*
X12424927Y-6053573D01*
X12340073Y-6053573D01*
X12340073Y-6138427D01*
X12424927Y-6138427D01*
X12678927Y-6138427D02*
X12678927Y-6053573D01*
X12594073Y-6053573D01*
X12594073Y-6138427D01*
X12678927Y-6138427D01*
X13948927Y-6138427D02*
X13948927Y-6053573D01*
X13864073Y-6053573D01*
X13864073Y-6138427D01*
X13948927Y-6138427D01*
X14202927Y-6138427D02*
X14202927Y-6053573D01*
X14118073Y-6053573D01*
X14118073Y-6138427D01*
X14202927Y-6138427D01*
X14710927Y-6138427D02*
X14710927Y-6053573D01*
X14626073Y-6053573D01*
X14626073Y-6138427D01*
X14710927Y-6138427D01*
X14964927Y-6138427D02*
X14964927Y-6053573D01*
X14880073Y-6053573D01*
X14880073Y-6138427D01*
X14964927Y-6138427D01*
X16573500Y-11749000D02*
X16638500Y-11684000D01*
X16573500Y-11619000D01*
X16508500Y-11684000D01*
X16573500Y-11749000D01*
X16773500Y-11149000D02*
X16838500Y-11084000D01*
X16773500Y-11019000D01*
X16708500Y-11084000D01*
X16773500Y-11149000D01*
X16773500Y-12349000D02*
X16838500Y-12284000D01*
X16773500Y-12219000D01*
X16708500Y-12284000D01*
X16773500Y-12349000D01*
X17993500Y-11149000D02*
X18058500Y-11084000D01*
X17993500Y-11019000D01*
X17928500Y-11084000D01*
X17993500Y-11149000D01*
X17993500Y-12349000D02*
X18058500Y-12284000D01*
X17993500Y-12219000D01*
X17928500Y-12284000D01*
X17993500Y-12349000D01*
X19494500Y-5907000D02*
X19559500Y-5842000D01*
X19494500Y-5777000D01*
X19429500Y-5842000D01*
X19494500Y-5907000D01*
X19494500Y-6415000D02*
X19559500Y-6350000D01*
X19494500Y-6285000D01*
X19429500Y-6350000D01*
X19494500Y-6415000D01*
X19494500Y-6923000D02*
X19559500Y-6858000D01*
X19494500Y-6793000D01*
X19429500Y-6858000D01*
X19494500Y-6923000D01*
X16573500Y-9971000D02*
X16638500Y-9906000D01*
X16573500Y-9841000D01*
X16508500Y-9906000D01*
X16573500Y-9971000D01*
X16773500Y-9371000D02*
X16838500Y-9306000D01*
X16773500Y-9241000D01*
X16708500Y-9306000D01*
X16773500Y-9371000D01*
X16773500Y-10571000D02*
X16838500Y-10506000D01*
X16773500Y-10441000D01*
X16708500Y-10506000D01*
X16773500Y-10571000D01*
X17993500Y-9371000D02*
X18058500Y-9306000D01*
X17993500Y-9241000D01*
X17928500Y-9306000D01*
X17993500Y-9371000D01*
X17993500Y-10571000D02*
X18058500Y-10506000D01*
X17993500Y-10441000D01*
X17928500Y-10506000D01*
X17993500Y-10571000D01*
X19494500Y-11241000D02*
X19559500Y-11176000D01*
X19494500Y-11111000D01*
X19429500Y-11176000D01*
X19494500Y-11241000D01*
X19494500Y-11749000D02*
X19559500Y-11684000D01*
X19494500Y-11619000D01*
X19429500Y-11684000D01*
X19494500Y-11749000D01*
X19494500Y-12257000D02*
X19559500Y-12192000D01*
X19494500Y-12127000D01*
X19429500Y-12192000D01*
X19494500Y-12257000D01*
X16573500Y-8193000D02*
X16638500Y-8128000D01*
X16573500Y-8063000D01*
X16508500Y-8128000D01*
X16573500Y-8193000D01*
X16773500Y-7593000D02*
X16838500Y-7528000D01*
X16773500Y-7463000D01*
X16708500Y-7528000D01*
X16773500Y-7593000D01*
X16773500Y-8793000D02*
X16838500Y-8728000D01*
X16773500Y-8663000D01*
X16708500Y-8728000D01*
X16773500Y-8793000D01*
X17993500Y-7593000D02*
X18058500Y-7528000D01*
X17993500Y-7463000D01*
X17928500Y-7528000D01*
X17993500Y-7593000D01*
X17993500Y-8793000D02*
X18058500Y-8728000D01*
X17993500Y-8663000D01*
X17928500Y-8728000D01*
X17993500Y-8793000D01*
X16573500Y-6415000D02*
X16638500Y-6350000D01*
X16573500Y-6285000D01*
X16508500Y-6350000D01*
X16573500Y-6415000D01*
X16773500Y-5815000D02*
X16838500Y-5750000D01*
X16773500Y-5685000D01*
X16708500Y-5750000D01*
X16773500Y-5815000D01*
X16773500Y-7015000D02*
X16838500Y-6950000D01*
X16773500Y-6885000D01*
X16708500Y-6950000D01*
X16773500Y-7015000D01*
X17993500Y-5815000D02*
X18058500Y-5750000D01*
X17993500Y-5685000D01*
X17928500Y-5750000D01*
X17993500Y-5815000D01*
X17993500Y-7015000D02*
X18058500Y-6950000D01*
X17993500Y-6885000D01*
X17928500Y-6950000D01*
X17993500Y-7015000D01*
X10604500Y-6224500D02*
X10669500Y-6159500D01*
X10604500Y-6094500D01*
X10539500Y-6159500D01*
X10604500Y-6224500D01*
X11112500Y-6224500D02*
X11177500Y-6159500D01*
X11112500Y-6094500D01*
X11047500Y-6159500D01*
X11112500Y-6224500D01*
X8826500Y-6415000D02*
X8891500Y-6350000D01*
X8826500Y-6285000D01*
X8761500Y-6350000D01*
X8826500Y-6415000D01*
X8826500Y-10165000D02*
X8891500Y-10100000D01*
X8826500Y-10035000D01*
X8761500Y-10100000D01*
X8826500Y-10165000D01*
X19494500Y-7685000D02*
X19559500Y-7620000D01*
X19494500Y-7555000D01*
X19429500Y-7620000D01*
X19494500Y-7685000D01*
X19494500Y-8193000D02*
X19559500Y-8128000D01*
X19494500Y-8063000D01*
X19429500Y-8128000D01*
X19494500Y-8193000D01*
X19494500Y-8701000D02*
X19559500Y-8636000D01*
X19494500Y-8571000D01*
X19429500Y-8636000D01*
X19494500Y-8701000D01*
X19494500Y-9463000D02*
X19559500Y-9398000D01*
X19494500Y-9333000D01*
X19429500Y-9398000D01*
X19494500Y-9463000D01*
X19494500Y-9971000D02*
X19559500Y-9906000D01*
X19494500Y-9841000D01*
X19429500Y-9906000D01*
X19494500Y-9971000D01*
X19494500Y-10479000D02*
X19559500Y-10414000D01*
X19494500Y-10349000D01*
X19429500Y-10414000D01*
X19494500Y-10479000D01*
X8810000Y-10715000D02*
X8970000Y-10875000D01*
X8970000Y-10715000D02*
X8810000Y-10875000D01*
X8970000Y-10795000D02*
G75*
G03X8970000Y-10795000I-80000J0D01*
G01*
X8810000Y-12239000D02*
X8970000Y-12399000D01*
X8970000Y-12239000D02*
X8810000Y-12399000D01*
X8970000Y-12319000D02*
G75*
G03X8970000Y-12319000I-80000J0D01*
G01*
D11*
X286429Y-465714D02*
X286429Y-165714D01*
X357857Y-165714D01*
X400714Y-180000D01*
X429286Y-208571D01*
X443571Y-237143D01*
X457857Y-294286D01*
X457857Y-337143D01*
X443571Y-394286D01*
X429286Y-422857D01*
X400714Y-451428D01*
X357857Y-465714D01*
X286429Y-465714D01*
X586429Y-465714D02*
X586429Y-265714D01*
X586429Y-322857D02*
X600714Y-294286D01*
X615000Y-280000D01*
X643571Y-265714D01*
X672143Y-265714D01*
X772143Y-465714D02*
X772143Y-265714D01*
X772143Y-165714D02*
X757857Y-180000D01*
X772143Y-194286D01*
X786428Y-180000D01*
X772143Y-165714D01*
X772143Y-194286D01*
X957857Y-465714D02*
X929286Y-451428D01*
X915000Y-422857D01*
X915000Y-165714D01*
X1115000Y-465714D02*
X1086429Y-451428D01*
X1072143Y-422857D01*
X1072143Y-165714D01*
X1457857Y-465714D02*
X1457857Y-165714D01*
X1557857Y-380000D01*
X1657857Y-165714D01*
X1657857Y-465714D01*
X1929286Y-465714D02*
X1929286Y-308571D01*
X1915000Y-280000D01*
X1886428Y-265714D01*
X1829286Y-265714D01*
X1800714Y-280000D01*
X1929286Y-451428D02*
X1900714Y-465714D01*
X1829286Y-465714D01*
X1800714Y-451428D01*
X1786428Y-422857D01*
X1786428Y-394286D01*
X1800714Y-365714D01*
X1829286Y-351428D01*
X1900714Y-351428D01*
X1929286Y-337143D01*
X2072143Y-265714D02*
X2072143Y-565714D01*
X2072143Y-280000D02*
X2100714Y-265714D01*
X2157857Y-265714D01*
X2186429Y-280000D01*
X2200714Y-294286D01*
X2215000Y-322857D01*
X2215000Y-408571D01*
X2200714Y-437143D01*
X2186429Y-451428D01*
X2157857Y-465714D01*
X2100714Y-465714D01*
X2072143Y-451428D01*
X2343571Y-437143D02*
X2357857Y-451428D01*
X2343571Y-465714D01*
X2329286Y-451428D01*
X2343571Y-437143D01*
X2343571Y-465714D01*
X2343571Y-280000D02*
X2357857Y-294286D01*
X2343571Y-308571D01*
X2329286Y-294286D01*
X2343571Y-280000D01*
X2343571Y-308571D01*
X-40000Y-940000D02*
X0Y-980000D01*
X0Y-940000D02*
X-40000Y-980000D01*
X343571Y-795714D02*
X372143Y-795714D01*
X400714Y-810000D01*
X415000Y-824286D01*
X429286Y-852857D01*
X443571Y-910000D01*
X443571Y-981428D01*
X429286Y-1038571D01*
X415000Y-1067143D01*
X400714Y-1081429D01*
X372143Y-1095714D01*
X343571Y-1095714D01*
X315000Y-1081429D01*
X300714Y-1067143D01*
X286429Y-1038571D01*
X272143Y-981428D01*
X272143Y-910000D01*
X286429Y-852857D01*
X300714Y-824286D01*
X315000Y-810000D01*
X343571Y-795714D01*
X572143Y-1067143D02*
X586429Y-1081429D01*
X572143Y-1095714D01*
X557857Y-1081429D01*
X572143Y-1067143D01*
X572143Y-1095714D01*
X843571Y-895714D02*
X843571Y-1095714D01*
X772143Y-781428D02*
X700714Y-995714D01*
X886428Y-995714D01*
X1057857Y-795714D02*
X1086429Y-795714D01*
X1115000Y-810000D01*
X1129286Y-824286D01*
X1143571Y-852857D01*
X1157857Y-910000D01*
X1157857Y-981428D01*
X1143571Y-1038571D01*
X1129286Y-1067143D01*
X1115000Y-1081429D01*
X1086429Y-1095714D01*
X1057857Y-1095714D01*
X1029286Y-1081429D01*
X1015000Y-1067143D01*
X1000714Y-1038571D01*
X986428Y-981428D01*
X986428Y-910000D01*
X1000714Y-852857D01*
X1015000Y-824286D01*
X1029286Y-810000D01*
X1057857Y-795714D01*
X1286429Y-1095714D02*
X1286429Y-895714D01*
X1286429Y-924286D02*
X1300714Y-910000D01*
X1329286Y-895714D01*
X1372143Y-895714D01*
X1400714Y-910000D01*
X1415000Y-938571D01*
X1415000Y-1095714D01*
X1415000Y-938571D02*
X1429286Y-910000D01*
X1457857Y-895714D01*
X1500714Y-895714D01*
X1529286Y-910000D01*
X1543571Y-938571D01*
X1543571Y-1095714D01*
X1686428Y-1095714D02*
X1686428Y-895714D01*
X1686428Y-924286D02*
X1700714Y-910000D01*
X1729286Y-895714D01*
X1772143Y-895714D01*
X1800714Y-910000D01*
X1815000Y-938571D01*
X1815000Y-1095714D01*
X1815000Y-938571D02*
X1829286Y-910000D01*
X1857857Y-895714D01*
X1900714Y-895714D01*
X1929286Y-910000D01*
X1943571Y-938571D01*
X1943571Y-1095714D01*
X2529286Y-781428D02*
X2272143Y-1167143D01*
X2915000Y-795714D02*
X2943571Y-795714D01*
X2972143Y-810000D01*
X2986428Y-824286D01*
X3000714Y-852857D01*
X3015000Y-910000D01*
X3015000Y-981428D01*
X3000714Y-1038571D01*
X2986428Y-1067143D01*
X2972143Y-1081429D01*
X2943571Y-1095714D01*
X2915000Y-1095714D01*
X2886428Y-1081429D01*
X2872143Y-1067143D01*
X2857857Y-1038571D01*
X2843571Y-981428D01*
X2843571Y-910000D01*
X2857857Y-852857D01*
X2872143Y-824286D01*
X2886428Y-810000D01*
X2915000Y-795714D01*
X3143571Y-1067143D02*
X3157857Y-1081429D01*
X3143571Y-1095714D01*
X3129286Y-1081429D01*
X3143571Y-1067143D01*
X3143571Y-1095714D01*
X3343571Y-795714D02*
X3372143Y-795714D01*
X3400714Y-810000D01*
X3415000Y-824286D01*
X3429286Y-852857D01*
X3443571Y-910000D01*
X3443571Y-981428D01*
X3429286Y-1038571D01*
X3415000Y-1067143D01*
X3400714Y-1081429D01*
X3372143Y-1095714D01*
X3343571Y-1095714D01*
X3315000Y-1081429D01*
X3300714Y-1067143D01*
X3286428Y-1038571D01*
X3272143Y-981428D01*
X3272143Y-910000D01*
X3286428Y-852857D01*
X3300714Y-824286D01*
X3315000Y-810000D01*
X3343571Y-795714D01*
X3729286Y-1095714D02*
X3557857Y-1095714D01*
X3643571Y-1095714D02*
X3643571Y-795714D01*
X3615000Y-838571D01*
X3586428Y-867143D01*
X3557857Y-881428D01*
X3986428Y-795714D02*
X3929286Y-795714D01*
X3900714Y-810000D01*
X3886428Y-824286D01*
X3857857Y-867143D01*
X3843571Y-924286D01*
X3843571Y-1038571D01*
X3857857Y-1067143D01*
X3872143Y-1081429D01*
X3900714Y-1095714D01*
X3957857Y-1095714D01*
X3986428Y-1081429D01*
X4000714Y-1067143D01*
X4015000Y-1038571D01*
X4015000Y-967143D01*
X4000714Y-938571D01*
X3986428Y-924286D01*
X3957857Y-910000D01*
X3900714Y-910000D01*
X3872143Y-924286D01*
X3857857Y-938571D01*
X3843571Y-967143D01*
X4129286Y-795714D02*
X4129286Y-852857D01*
X4243571Y-795714D02*
X4243571Y-852857D01*
X4686429Y-1210000D02*
X4672143Y-1195714D01*
X4643571Y-1152857D01*
X4629286Y-1124286D01*
X4615000Y-1081429D01*
X4600714Y-1010000D01*
X4600714Y-952857D01*
X4615000Y-881428D01*
X4629286Y-838571D01*
X4643571Y-810000D01*
X4672143Y-767143D01*
X4686429Y-752857D01*
X4929286Y-895714D02*
X4929286Y-1095714D01*
X4857857Y-781428D02*
X4786429Y-995714D01*
X4972143Y-995714D01*
X5315000Y-1095714D02*
X5315000Y-795714D01*
X5443571Y-1095714D02*
X5443571Y-938571D01*
X5429286Y-910000D01*
X5400714Y-895714D01*
X5357857Y-895714D01*
X5329286Y-910000D01*
X5315000Y-924286D01*
X5629286Y-1095714D02*
X5600714Y-1081429D01*
X5586429Y-1067143D01*
X5572143Y-1038571D01*
X5572143Y-952857D01*
X5586429Y-924286D01*
X5600714Y-910000D01*
X5629286Y-895714D01*
X5672143Y-895714D01*
X5700714Y-910000D01*
X5715000Y-924286D01*
X5729286Y-952857D01*
X5729286Y-1038571D01*
X5715000Y-1067143D01*
X5700714Y-1081429D01*
X5672143Y-1095714D01*
X5629286Y-1095714D01*
X5900714Y-1095714D02*
X5872143Y-1081429D01*
X5857857Y-1052857D01*
X5857857Y-795714D01*
X6129286Y-1081429D02*
X6100714Y-1095714D01*
X6043571Y-1095714D01*
X6015000Y-1081429D01*
X6000714Y-1052857D01*
X6000714Y-938571D01*
X6015000Y-910000D01*
X6043571Y-895714D01*
X6100714Y-895714D01*
X6129286Y-910000D01*
X6143571Y-938571D01*
X6143571Y-967143D01*
X6000714Y-995714D01*
X6257857Y-1081429D02*
X6286428Y-1095714D01*
X6343571Y-1095714D01*
X6372143Y-1081429D01*
X6386428Y-1052857D01*
X6386428Y-1038571D01*
X6372143Y-1010000D01*
X6343571Y-995714D01*
X6300714Y-995714D01*
X6272143Y-981428D01*
X6257857Y-952857D01*
X6257857Y-938571D01*
X6272143Y-910000D01*
X6300714Y-895714D01*
X6343571Y-895714D01*
X6372143Y-910000D01*
X6486428Y-1210000D02*
X6500714Y-1195714D01*
X6529286Y-1152857D01*
X6543571Y-1124286D01*
X6557857Y-1081429D01*
X6572143Y-1010000D01*
X6572143Y-952857D01*
X6557857Y-881428D01*
X6543571Y-838571D01*
X6529286Y-810000D01*
X6500714Y-767143D01*
X6486428Y-752857D01*
X0Y-1356000D02*
G75*
G03X0Y-1356000I-40000J0D01*
G01*
X343571Y-1191714D02*
X372143Y-1191714D01*
X400714Y-1206000D01*
X415000Y-1220286D01*
X429286Y-1248857D01*
X443571Y-1306000D01*
X443571Y-1377429D01*
X429286Y-1434571D01*
X415000Y-1463143D01*
X400714Y-1477428D01*
X372143Y-1491714D01*
X343571Y-1491714D01*
X315000Y-1477428D01*
X300714Y-1463143D01*
X286429Y-1434571D01*
X272143Y-1377429D01*
X272143Y-1306000D01*
X286429Y-1248857D01*
X300714Y-1220286D01*
X315000Y-1206000D01*
X343571Y-1191714D01*
X572143Y-1463143D02*
X586429Y-1477428D01*
X572143Y-1491714D01*
X557857Y-1477428D01*
X572143Y-1463143D01*
X572143Y-1491714D01*
X757857Y-1320286D02*
X729286Y-1306000D01*
X715000Y-1291714D01*
X700714Y-1263143D01*
X700714Y-1248857D01*
X715000Y-1220286D01*
X729286Y-1206000D01*
X757857Y-1191714D01*
X815000Y-1191714D01*
X843571Y-1206000D01*
X857857Y-1220286D01*
X872143Y-1248857D01*
X872143Y-1263143D01*
X857857Y-1291714D01*
X843571Y-1306000D01*
X815000Y-1320286D01*
X757857Y-1320286D01*
X729286Y-1334571D01*
X715000Y-1348857D01*
X700714Y-1377429D01*
X700714Y-1434571D01*
X715000Y-1463143D01*
X729286Y-1477428D01*
X757857Y-1491714D01*
X815000Y-1491714D01*
X843571Y-1477428D01*
X857857Y-1463143D01*
X872143Y-1434571D01*
X872143Y-1377429D01*
X857857Y-1348857D01*
X843571Y-1334571D01*
X815000Y-1320286D01*
X1057857Y-1191714D02*
X1086429Y-1191714D01*
X1115000Y-1206000D01*
X1129286Y-1220286D01*
X1143571Y-1248857D01*
X1157857Y-1306000D01*
X1157857Y-1377429D01*
X1143571Y-1434571D01*
X1129286Y-1463143D01*
X1115000Y-1477428D01*
X1086429Y-1491714D01*
X1057857Y-1491714D01*
X1029286Y-1477428D01*
X1015000Y-1463143D01*
X1000714Y-1434571D01*
X986428Y-1377429D01*
X986428Y-1306000D01*
X1000714Y-1248857D01*
X1015000Y-1220286D01*
X1029286Y-1206000D01*
X1057857Y-1191714D01*
X1286429Y-1491714D02*
X1286429Y-1291714D01*
X1286429Y-1320286D02*
X1300714Y-1306000D01*
X1329286Y-1291714D01*
X1372143Y-1291714D01*
X1400714Y-1306000D01*
X1415000Y-1334571D01*
X1415000Y-1491714D01*
X1415000Y-1334571D02*
X1429286Y-1306000D01*
X1457857Y-1291714D01*
X1500714Y-1291714D01*
X1529286Y-1306000D01*
X1543571Y-1334571D01*
X1543571Y-1491714D01*
X1686428Y-1491714D02*
X1686428Y-1291714D01*
X1686428Y-1320286D02*
X1700714Y-1306000D01*
X1729286Y-1291714D01*
X1772143Y-1291714D01*
X1800714Y-1306000D01*
X1815000Y-1334571D01*
X1815000Y-1491714D01*
X1815000Y-1334571D02*
X1829286Y-1306000D01*
X1857857Y-1291714D01*
X1900714Y-1291714D01*
X1929286Y-1306000D01*
X1943571Y-1334571D01*
X1943571Y-1491714D01*
X2529286Y-1177429D02*
X2272143Y-1563143D01*
X2915000Y-1191714D02*
X2943571Y-1191714D01*
X2972143Y-1206000D01*
X2986428Y-1220286D01*
X3000714Y-1248857D01*
X3015000Y-1306000D01*
X3015000Y-1377429D01*
X3000714Y-1434571D01*
X2986428Y-1463143D01*
X2972143Y-1477428D01*
X2943571Y-1491714D01*
X2915000Y-1491714D01*
X2886428Y-1477428D01*
X2872143Y-1463143D01*
X2857857Y-1434571D01*
X2843571Y-1377429D01*
X2843571Y-1306000D01*
X2857857Y-1248857D01*
X2872143Y-1220286D01*
X2886428Y-1206000D01*
X2915000Y-1191714D01*
X3143571Y-1463143D02*
X3157857Y-1477428D01*
X3143571Y-1491714D01*
X3129286Y-1477428D01*
X3143571Y-1463143D01*
X3143571Y-1491714D01*
X3343571Y-1191714D02*
X3372143Y-1191714D01*
X3400714Y-1206000D01*
X3415000Y-1220286D01*
X3429286Y-1248857D01*
X3443571Y-1306000D01*
X3443571Y-1377429D01*
X3429286Y-1434571D01*
X3415000Y-1463143D01*
X3400714Y-1477428D01*
X3372143Y-1491714D01*
X3343571Y-1491714D01*
X3315000Y-1477428D01*
X3300714Y-1463143D01*
X3286428Y-1434571D01*
X3272143Y-1377429D01*
X3272143Y-1306000D01*
X3286428Y-1248857D01*
X3300714Y-1220286D01*
X3315000Y-1206000D01*
X3343571Y-1191714D01*
X3543571Y-1191714D02*
X3729286Y-1191714D01*
X3629286Y-1306000D01*
X3672143Y-1306000D01*
X3700714Y-1320286D01*
X3715000Y-1334571D01*
X3729286Y-1363143D01*
X3729286Y-1434571D01*
X3715000Y-1463143D01*
X3700714Y-1477428D01*
X3672143Y-1491714D01*
X3586428Y-1491714D01*
X3557857Y-1477428D01*
X3543571Y-1463143D01*
X4015000Y-1491714D02*
X3843571Y-1491714D01*
X3929286Y-1491714D02*
X3929286Y-1191714D01*
X3900714Y-1234571D01*
X3872143Y-1263143D01*
X3843571Y-1277429D01*
X4129286Y-1191714D02*
X4129286Y-1248857D01*
X4243571Y-1191714D02*
X4243571Y-1248857D01*
X4686429Y-1606000D02*
X4672143Y-1591714D01*
X4643571Y-1548857D01*
X4629286Y-1520286D01*
X4615000Y-1477428D01*
X4600714Y-1406000D01*
X4600714Y-1348857D01*
X4615000Y-1277429D01*
X4629286Y-1234571D01*
X4643571Y-1206000D01*
X4672143Y-1163143D01*
X4686429Y-1148857D01*
X4786429Y-1220286D02*
X4800714Y-1206000D01*
X4829286Y-1191714D01*
X4900714Y-1191714D01*
X4929286Y-1206000D01*
X4943571Y-1220286D01*
X4957857Y-1248857D01*
X4957857Y-1277429D01*
X4943571Y-1320286D01*
X4772143Y-1491714D01*
X4957857Y-1491714D01*
X5057857Y-1191714D02*
X5243571Y-1191714D01*
X5143571Y-1306000D01*
X5186429Y-1306000D01*
X5215000Y-1320286D01*
X5229286Y-1334571D01*
X5243571Y-1363143D01*
X5243571Y-1434571D01*
X5229286Y-1463143D01*
X5215000Y-1477428D01*
X5186429Y-1491714D01*
X5100714Y-1491714D01*
X5072143Y-1477428D01*
X5057857Y-1463143D01*
X5600714Y-1491714D02*
X5600714Y-1191714D01*
X5729286Y-1491714D02*
X5729286Y-1334571D01*
X5715000Y-1306000D01*
X5686428Y-1291714D01*
X5643571Y-1291714D01*
X5615000Y-1306000D01*
X5600714Y-1320286D01*
X5915000Y-1491714D02*
X5886428Y-1477428D01*
X5872143Y-1463143D01*
X5857857Y-1434571D01*
X5857857Y-1348857D01*
X5872143Y-1320286D01*
X5886428Y-1306000D01*
X5915000Y-1291714D01*
X5957857Y-1291714D01*
X5986428Y-1306000D01*
X6000714Y-1320286D01*
X6015000Y-1348857D01*
X6015000Y-1434571D01*
X6000714Y-1463143D01*
X5986428Y-1477428D01*
X5957857Y-1491714D01*
X5915000Y-1491714D01*
X6186428Y-1491714D02*
X6157857Y-1477428D01*
X6143571Y-1448857D01*
X6143571Y-1191714D01*
X6415000Y-1477428D02*
X6386428Y-1491714D01*
X6329286Y-1491714D01*
X6300714Y-1477428D01*
X6286428Y-1448857D01*
X6286428Y-1334571D01*
X6300714Y-1306000D01*
X6329286Y-1291714D01*
X6386428Y-1291714D01*
X6415000Y-1306000D01*
X6429286Y-1334571D01*
X6429286Y-1363143D01*
X6286428Y-1391714D01*
X6543571Y-1477428D02*
X6572143Y-1491714D01*
X6629286Y-1491714D01*
X6657857Y-1477428D01*
X6672143Y-1448857D01*
X6672143Y-1434571D01*
X6657857Y-1406000D01*
X6629286Y-1391714D01*
X6586428Y-1391714D01*
X6557857Y-1377429D01*
X6543571Y-1348857D01*
X6543571Y-1334571D01*
X6557857Y-1306000D01*
X6586428Y-1291714D01*
X6629286Y-1291714D01*
X6657857Y-1306000D01*
X6772143Y-1606000D02*
X6786428Y-1591714D01*
X6815000Y-1548857D01*
X6829286Y-1520286D01*
X6843571Y-1477428D01*
X6857857Y-1406000D01*
X6857857Y-1348857D01*
X6843571Y-1277429D01*
X6829286Y-1234571D01*
X6815000Y-1206000D01*
X6786428Y-1163143D01*
X6772143Y-1148857D01*
X-50000Y-1702000D02*
X-50000Y-1802000D01*
X-100000Y-1752000D02*
X0Y-1752000D01*
X443571Y-1887714D02*
X272143Y-1887714D01*
X357857Y-1887714D02*
X357857Y-1587714D01*
X329286Y-1630571D01*
X300714Y-1659143D01*
X272143Y-1673428D01*
X572143Y-1859143D02*
X586429Y-1873428D01*
X572143Y-1887714D01*
X557857Y-1873428D01*
X572143Y-1859143D01*
X572143Y-1887714D01*
X772143Y-1587714D02*
X800714Y-1587714D01*
X829286Y-1602000D01*
X843571Y-1616286D01*
X857857Y-1644857D01*
X872143Y-1702000D01*
X872143Y-1773428D01*
X857857Y-1830571D01*
X843571Y-1859143D01*
X829286Y-1873428D01*
X800714Y-1887714D01*
X772143Y-1887714D01*
X743571Y-1873428D01*
X729286Y-1859143D01*
X715000Y-1830571D01*
X700714Y-1773428D01*
X700714Y-1702000D01*
X715000Y-1644857D01*
X729286Y-1616286D01*
X743571Y-1602000D01*
X772143Y-1587714D01*
X1057857Y-1587714D02*
X1086429Y-1587714D01*
X1115000Y-1602000D01*
X1129286Y-1616286D01*
X1143571Y-1644857D01*
X1157857Y-1702000D01*
X1157857Y-1773428D01*
X1143571Y-1830571D01*
X1129286Y-1859143D01*
X1115000Y-1873428D01*
X1086429Y-1887714D01*
X1057857Y-1887714D01*
X1029286Y-1873428D01*
X1015000Y-1859143D01*
X1000714Y-1830571D01*
X986428Y-1773428D01*
X986428Y-1702000D01*
X1000714Y-1644857D01*
X1015000Y-1616286D01*
X1029286Y-1602000D01*
X1057857Y-1587714D01*
X1286429Y-1887714D02*
X1286429Y-1687714D01*
X1286429Y-1716286D02*
X1300714Y-1702000D01*
X1329286Y-1687714D01*
X1372143Y-1687714D01*
X1400714Y-1702000D01*
X1415000Y-1730571D01*
X1415000Y-1887714D01*
X1415000Y-1730571D02*
X1429286Y-1702000D01*
X1457857Y-1687714D01*
X1500714Y-1687714D01*
X1529286Y-1702000D01*
X1543571Y-1730571D01*
X1543571Y-1887714D01*
X1686428Y-1887714D02*
X1686428Y-1687714D01*
X1686428Y-1716286D02*
X1700714Y-1702000D01*
X1729286Y-1687714D01*
X1772143Y-1687714D01*
X1800714Y-1702000D01*
X1815000Y-1730571D01*
X1815000Y-1887714D01*
X1815000Y-1730571D02*
X1829286Y-1702000D01*
X1857857Y-1687714D01*
X1900714Y-1687714D01*
X1929286Y-1702000D01*
X1943571Y-1730571D01*
X1943571Y-1887714D01*
X2529286Y-1573428D02*
X2272143Y-1959143D01*
X2915000Y-1587714D02*
X2943571Y-1587714D01*
X2972143Y-1602000D01*
X2986428Y-1616286D01*
X3000714Y-1644857D01*
X3015000Y-1702000D01*
X3015000Y-1773428D01*
X3000714Y-1830571D01*
X2986428Y-1859143D01*
X2972143Y-1873428D01*
X2943571Y-1887714D01*
X2915000Y-1887714D01*
X2886428Y-1873428D01*
X2872143Y-1859143D01*
X2857857Y-1830571D01*
X2843571Y-1773428D01*
X2843571Y-1702000D01*
X2857857Y-1644857D01*
X2872143Y-1616286D01*
X2886428Y-1602000D01*
X2915000Y-1587714D01*
X3143571Y-1859143D02*
X3157857Y-1873428D01*
X3143571Y-1887714D01*
X3129286Y-1873428D01*
X3143571Y-1859143D01*
X3143571Y-1887714D01*
X3343571Y-1587714D02*
X3372143Y-1587714D01*
X3400714Y-1602000D01*
X3415000Y-1616286D01*
X3429286Y-1644857D01*
X3443571Y-1702000D01*
X3443571Y-1773428D01*
X3429286Y-1830571D01*
X3415000Y-1859143D01*
X3400714Y-1873428D01*
X3372143Y-1887714D01*
X3343571Y-1887714D01*
X3315000Y-1873428D01*
X3300714Y-1859143D01*
X3286428Y-1830571D01*
X3272143Y-1773428D01*
X3272143Y-1702000D01*
X3286428Y-1644857D01*
X3300714Y-1616286D01*
X3315000Y-1602000D01*
X3343571Y-1587714D01*
X3543571Y-1587714D02*
X3729286Y-1587714D01*
X3629286Y-1702000D01*
X3672143Y-1702000D01*
X3700714Y-1716286D01*
X3715000Y-1730571D01*
X3729286Y-1759143D01*
X3729286Y-1830571D01*
X3715000Y-1859143D01*
X3700714Y-1873428D01*
X3672143Y-1887714D01*
X3586428Y-1887714D01*
X3557857Y-1873428D01*
X3543571Y-1859143D01*
X3872143Y-1887714D02*
X3929286Y-1887714D01*
X3957857Y-1873428D01*
X3972143Y-1859143D01*
X4000714Y-1816286D01*
X4015000Y-1759143D01*
X4015000Y-1644857D01*
X4000714Y-1616286D01*
X3986428Y-1602000D01*
X3957857Y-1587714D01*
X3900714Y-1587714D01*
X3872143Y-1602000D01*
X3857857Y-1616286D01*
X3843571Y-1644857D01*
X3843571Y-1716286D01*
X3857857Y-1744857D01*
X3872143Y-1759143D01*
X3900714Y-1773428D01*
X3957857Y-1773428D01*
X3986428Y-1759143D01*
X4000714Y-1744857D01*
X4015000Y-1716286D01*
X4129286Y-1587714D02*
X4129286Y-1644857D01*
X4243571Y-1587714D02*
X4243571Y-1644857D01*
X4686429Y-2002000D02*
X4672143Y-1987714D01*
X4643571Y-1944857D01*
X4629286Y-1916286D01*
X4615000Y-1873428D01*
X4600714Y-1802000D01*
X4600714Y-1744857D01*
X4615000Y-1673428D01*
X4629286Y-1630571D01*
X4643571Y-1602000D01*
X4672143Y-1559143D01*
X4686429Y-1544857D01*
X4772143Y-1587714D02*
X4957857Y-1587714D01*
X4857857Y-1702000D01*
X4900714Y-1702000D01*
X4929286Y-1716286D01*
X4943571Y-1730571D01*
X4957857Y-1759143D01*
X4957857Y-1830571D01*
X4943571Y-1859143D01*
X4929286Y-1873428D01*
X4900714Y-1887714D01*
X4815000Y-1887714D01*
X4786429Y-1873428D01*
X4772143Y-1859143D01*
X5072143Y-1616286D02*
X5086429Y-1602000D01*
X5115000Y-1587714D01*
X5186429Y-1587714D01*
X5215000Y-1602000D01*
X5229286Y-1616286D01*
X5243571Y-1644857D01*
X5243571Y-1673428D01*
X5229286Y-1716286D01*
X5057857Y-1887714D01*
X5243571Y-1887714D01*
X5600714Y-1887714D02*
X5600714Y-1587714D01*
X5729286Y-1887714D02*
X5729286Y-1730571D01*
X5715000Y-1702000D01*
X5686428Y-1687714D01*
X5643571Y-1687714D01*
X5615000Y-1702000D01*
X5600714Y-1716286D01*
X5915000Y-1887714D02*
X5886428Y-1873428D01*
X5872143Y-1859143D01*
X5857857Y-1830571D01*
X5857857Y-1744857D01*
X5872143Y-1716286D01*
X5886428Y-1702000D01*
X5915000Y-1687714D01*
X5957857Y-1687714D01*
X5986428Y-1702000D01*
X6000714Y-1716286D01*
X6015000Y-1744857D01*
X6015000Y-1830571D01*
X6000714Y-1859143D01*
X5986428Y-1873428D01*
X5957857Y-1887714D01*
X5915000Y-1887714D01*
X6186428Y-1887714D02*
X6157857Y-1873428D01*
X6143571Y-1844857D01*
X6143571Y-1587714D01*
X6415000Y-1873428D02*
X6386428Y-1887714D01*
X6329286Y-1887714D01*
X6300714Y-1873428D01*
X6286428Y-1844857D01*
X6286428Y-1730571D01*
X6300714Y-1702000D01*
X6329286Y-1687714D01*
X6386428Y-1687714D01*
X6415000Y-1702000D01*
X6429286Y-1730571D01*
X6429286Y-1759143D01*
X6286428Y-1787714D01*
X6543571Y-1873428D02*
X6572143Y-1887714D01*
X6629286Y-1887714D01*
X6657857Y-1873428D01*
X6672143Y-1844857D01*
X6672143Y-1830571D01*
X6657857Y-1802000D01*
X6629286Y-1787714D01*
X6586428Y-1787714D01*
X6557857Y-1773428D01*
X6543571Y-1744857D01*
X6543571Y-1730571D01*
X6557857Y-1702000D01*
X6586428Y-1687714D01*
X6629286Y-1687714D01*
X6657857Y-1702000D01*
X6772143Y-2002000D02*
X6786428Y-1987714D01*
X6815000Y-1944857D01*
X6829286Y-1916286D01*
X6843571Y-1873428D01*
X6857857Y-1802000D01*
X6857857Y-1744857D01*
X6843571Y-1673428D01*
X6829286Y-1630571D01*
X6815000Y-1602000D01*
X6786428Y-1559143D01*
X6772143Y-1544857D01*
X-17573Y-2190427D02*
X-17573Y-2105573D01*
X-102427Y-2105573D01*
X-102427Y-2190427D01*
X-17573Y-2190427D01*
X443571Y-2283714D02*
X272143Y-2283714D01*
X357857Y-2283714D02*
X357857Y-1983714D01*
X329286Y-2026571D01*
X300714Y-2055143D01*
X272143Y-2069428D01*
X572143Y-2255143D02*
X586429Y-2269429D01*
X572143Y-2283714D01*
X557857Y-2269429D01*
X572143Y-2255143D01*
X572143Y-2283714D01*
X700714Y-2012286D02*
X715000Y-1998000D01*
X743571Y-1983714D01*
X815000Y-1983714D01*
X843571Y-1998000D01*
X857857Y-2012286D01*
X872143Y-2040857D01*
X872143Y-2069428D01*
X857857Y-2112286D01*
X686429Y-2283714D01*
X872143Y-2283714D01*
X1057857Y-1983714D02*
X1086429Y-1983714D01*
X1115000Y-1998000D01*
X1129286Y-2012286D01*
X1143571Y-2040857D01*
X1157857Y-2098000D01*
X1157857Y-2169429D01*
X1143571Y-2226571D01*
X1129286Y-2255143D01*
X1115000Y-2269429D01*
X1086429Y-2283714D01*
X1057857Y-2283714D01*
X1029286Y-2269429D01*
X1015000Y-2255143D01*
X1000714Y-2226571D01*
X986428Y-2169429D01*
X986428Y-2098000D01*
X1000714Y-2040857D01*
X1015000Y-2012286D01*
X1029286Y-1998000D01*
X1057857Y-1983714D01*
X1286429Y-2283714D02*
X1286429Y-2083714D01*
X1286429Y-2112286D02*
X1300714Y-2098000D01*
X1329286Y-2083714D01*
X1372143Y-2083714D01*
X1400714Y-2098000D01*
X1415000Y-2126571D01*
X1415000Y-2283714D01*
X1415000Y-2126571D02*
X1429286Y-2098000D01*
X1457857Y-2083714D01*
X1500714Y-2083714D01*
X1529286Y-2098000D01*
X1543571Y-2126571D01*
X1543571Y-2283714D01*
X1686428Y-2283714D02*
X1686428Y-2083714D01*
X1686428Y-2112286D02*
X1700714Y-2098000D01*
X1729286Y-2083714D01*
X1772143Y-2083714D01*
X1800714Y-2098000D01*
X1815000Y-2126571D01*
X1815000Y-2283714D01*
X1815000Y-2126571D02*
X1829286Y-2098000D01*
X1857857Y-2083714D01*
X1900714Y-2083714D01*
X1929286Y-2098000D01*
X1943571Y-2126571D01*
X1943571Y-2283714D01*
X2529286Y-1969428D02*
X2272143Y-2355143D01*
X2915000Y-1983714D02*
X2943571Y-1983714D01*
X2972143Y-1998000D01*
X2986428Y-2012286D01*
X3000714Y-2040857D01*
X3015000Y-2098000D01*
X3015000Y-2169429D01*
X3000714Y-2226571D01*
X2986428Y-2255143D01*
X2972143Y-2269429D01*
X2943571Y-2283714D01*
X2915000Y-2283714D01*
X2886428Y-2269429D01*
X2872143Y-2255143D01*
X2857857Y-2226571D01*
X2843571Y-2169429D01*
X2843571Y-2098000D01*
X2857857Y-2040857D01*
X2872143Y-2012286D01*
X2886428Y-1998000D01*
X2915000Y-1983714D01*
X3143571Y-2255143D02*
X3157857Y-2269429D01*
X3143571Y-2283714D01*
X3129286Y-2269429D01*
X3143571Y-2255143D01*
X3143571Y-2283714D01*
X3343571Y-1983714D02*
X3372143Y-1983714D01*
X3400714Y-1998000D01*
X3415000Y-2012286D01*
X3429286Y-2040857D01*
X3443571Y-2098000D01*
X3443571Y-2169429D01*
X3429286Y-2226571D01*
X3415000Y-2255143D01*
X3400714Y-2269429D01*
X3372143Y-2283714D01*
X3343571Y-2283714D01*
X3315000Y-2269429D01*
X3300714Y-2255143D01*
X3286428Y-2226571D01*
X3272143Y-2169429D01*
X3272143Y-2098000D01*
X3286428Y-2040857D01*
X3300714Y-2012286D01*
X3315000Y-1998000D01*
X3343571Y-1983714D01*
X3700714Y-2083714D02*
X3700714Y-2283714D01*
X3629286Y-1969428D02*
X3557857Y-2183714D01*
X3743571Y-2183714D01*
X3829286Y-1983714D02*
X4029286Y-1983714D01*
X3900714Y-2283714D01*
X4129286Y-1983714D02*
X4129286Y-2040857D01*
X4243571Y-1983714D02*
X4243571Y-2040857D01*
X4686429Y-2398000D02*
X4672143Y-2383714D01*
X4643571Y-2340857D01*
X4629286Y-2312286D01*
X4615000Y-2269429D01*
X4600714Y-2198000D01*
X4600714Y-2140857D01*
X4615000Y-2069428D01*
X4629286Y-2026571D01*
X4643571Y-1998000D01*
X4672143Y-1955143D01*
X4686429Y-1940857D01*
X4957857Y-2283714D02*
X4786429Y-2283714D01*
X4872143Y-2283714D02*
X4872143Y-1983714D01*
X4843571Y-2026571D01*
X4815000Y-2055143D01*
X4786429Y-2069428D01*
X5143571Y-1983714D02*
X5172143Y-1983714D01*
X5200714Y-1998000D01*
X5215000Y-2012286D01*
X5229286Y-2040857D01*
X5243571Y-2098000D01*
X5243571Y-2169429D01*
X5229286Y-2226571D01*
X5215000Y-2255143D01*
X5200714Y-2269429D01*
X5172143Y-2283714D01*
X5143571Y-2283714D01*
X5115000Y-2269429D01*
X5100714Y-2255143D01*
X5086429Y-2226571D01*
X5072143Y-2169429D01*
X5072143Y-2098000D01*
X5086429Y-2040857D01*
X5100714Y-2012286D01*
X5115000Y-1998000D01*
X5143571Y-1983714D01*
X5600714Y-2283714D02*
X5600714Y-1983714D01*
X5729286Y-2283714D02*
X5729286Y-2126571D01*
X5715000Y-2098000D01*
X5686428Y-2083714D01*
X5643571Y-2083714D01*
X5615000Y-2098000D01*
X5600714Y-2112286D01*
X5915000Y-2283714D02*
X5886428Y-2269429D01*
X5872143Y-2255143D01*
X5857857Y-2226571D01*
X5857857Y-2140857D01*
X5872143Y-2112286D01*
X5886428Y-2098000D01*
X5915000Y-2083714D01*
X5957857Y-2083714D01*
X5986428Y-2098000D01*
X6000714Y-2112286D01*
X6015000Y-2140857D01*
X6015000Y-2226571D01*
X6000714Y-2255143D01*
X5986428Y-2269429D01*
X5957857Y-2283714D01*
X5915000Y-2283714D01*
X6186428Y-2283714D02*
X6157857Y-2269429D01*
X6143571Y-2240857D01*
X6143571Y-1983714D01*
X6415000Y-2269429D02*
X6386428Y-2283714D01*
X6329286Y-2283714D01*
X6300714Y-2269429D01*
X6286428Y-2240857D01*
X6286428Y-2126571D01*
X6300714Y-2098000D01*
X6329286Y-2083714D01*
X6386428Y-2083714D01*
X6415000Y-2098000D01*
X6429286Y-2126571D01*
X6429286Y-2155143D01*
X6286428Y-2183714D01*
X6543571Y-2269429D02*
X6572143Y-2283714D01*
X6629286Y-2283714D01*
X6657857Y-2269429D01*
X6672143Y-2240857D01*
X6672143Y-2226571D01*
X6657857Y-2198000D01*
X6629286Y-2183714D01*
X6586428Y-2183714D01*
X6557857Y-2169429D01*
X6543571Y-2140857D01*
X6543571Y-2126571D01*
X6557857Y-2098000D01*
X6586428Y-2083714D01*
X6629286Y-2083714D01*
X6657857Y-2098000D01*
X6772143Y-2398000D02*
X6786428Y-2383714D01*
X6815000Y-2340857D01*
X6829286Y-2312286D01*
X6843571Y-2269429D01*
X6857857Y-2198000D01*
X6857857Y-2140857D01*
X6843571Y-2069428D01*
X6829286Y-2026571D01*
X6815000Y-1998000D01*
X6786428Y-1955143D01*
X6772143Y-1940857D01*
X-65000Y-2609000D02*
X0Y-2544000D01*
X-65000Y-2479000D01*
X-130000Y-2544000D01*
X-65000Y-2609000D01*
X443571Y-2679714D02*
X272143Y-2679714D01*
X357857Y-2679714D02*
X357857Y-2379714D01*
X329286Y-2422571D01*
X300714Y-2451143D01*
X272143Y-2465429D01*
X572143Y-2651143D02*
X586429Y-2665429D01*
X572143Y-2679714D01*
X557857Y-2665429D01*
X572143Y-2651143D01*
X572143Y-2679714D01*
X686429Y-2379714D02*
X872143Y-2379714D01*
X772143Y-2494000D01*
X815000Y-2494000D01*
X843571Y-2508286D01*
X857857Y-2522571D01*
X872143Y-2551143D01*
X872143Y-2622571D01*
X857857Y-2651143D01*
X843571Y-2665429D01*
X815000Y-2679714D01*
X729286Y-2679714D01*
X700714Y-2665429D01*
X686429Y-2651143D01*
X1057857Y-2379714D02*
X1086429Y-2379714D01*
X1115000Y-2394000D01*
X1129286Y-2408286D01*
X1143571Y-2436857D01*
X1157857Y-2494000D01*
X1157857Y-2565429D01*
X1143571Y-2622571D01*
X1129286Y-2651143D01*
X1115000Y-2665429D01*
X1086429Y-2679714D01*
X1057857Y-2679714D01*
X1029286Y-2665429D01*
X1015000Y-2651143D01*
X1000714Y-2622571D01*
X986428Y-2565429D01*
X986428Y-2494000D01*
X1000714Y-2436857D01*
X1015000Y-2408286D01*
X1029286Y-2394000D01*
X1057857Y-2379714D01*
X1286429Y-2679714D02*
X1286429Y-2479714D01*
X1286429Y-2508286D02*
X1300714Y-2494000D01*
X1329286Y-2479714D01*
X1372143Y-2479714D01*
X1400714Y-2494000D01*
X1415000Y-2522571D01*
X1415000Y-2679714D01*
X1415000Y-2522571D02*
X1429286Y-2494000D01*
X1457857Y-2479714D01*
X1500714Y-2479714D01*
X1529286Y-2494000D01*
X1543571Y-2522571D01*
X1543571Y-2679714D01*
X1686428Y-2679714D02*
X1686428Y-2479714D01*
X1686428Y-2508286D02*
X1700714Y-2494000D01*
X1729286Y-2479714D01*
X1772143Y-2479714D01*
X1800714Y-2494000D01*
X1815000Y-2522571D01*
X1815000Y-2679714D01*
X1815000Y-2522571D02*
X1829286Y-2494000D01*
X1857857Y-2479714D01*
X1900714Y-2479714D01*
X1929286Y-2494000D01*
X1943571Y-2522571D01*
X1943571Y-2679714D01*
X2529286Y-2365429D02*
X2272143Y-2751143D01*
X2915000Y-2379714D02*
X2943571Y-2379714D01*
X2972143Y-2394000D01*
X2986428Y-2408286D01*
X3000714Y-2436857D01*
X3015000Y-2494000D01*
X3015000Y-2565429D01*
X3000714Y-2622571D01*
X2986428Y-2651143D01*
X2972143Y-2665429D01*
X2943571Y-2679714D01*
X2915000Y-2679714D01*
X2886428Y-2665429D01*
X2872143Y-2651143D01*
X2857857Y-2622571D01*
X2843571Y-2565429D01*
X2843571Y-2494000D01*
X2857857Y-2436857D01*
X2872143Y-2408286D01*
X2886428Y-2394000D01*
X2915000Y-2379714D01*
X3143571Y-2651143D02*
X3157857Y-2665429D01*
X3143571Y-2679714D01*
X3129286Y-2665429D01*
X3143571Y-2651143D01*
X3143571Y-2679714D01*
X3343571Y-2379714D02*
X3372143Y-2379714D01*
X3400714Y-2394000D01*
X3415000Y-2408286D01*
X3429286Y-2436857D01*
X3443571Y-2494000D01*
X3443571Y-2565429D01*
X3429286Y-2622571D01*
X3415000Y-2651143D01*
X3400714Y-2665429D01*
X3372143Y-2679714D01*
X3343571Y-2679714D01*
X3315000Y-2665429D01*
X3300714Y-2651143D01*
X3286428Y-2622571D01*
X3272143Y-2565429D01*
X3272143Y-2494000D01*
X3286428Y-2436857D01*
X3300714Y-2408286D01*
X3315000Y-2394000D01*
X3343571Y-2379714D01*
X3715000Y-2379714D02*
X3572143Y-2379714D01*
X3557857Y-2522571D01*
X3572143Y-2508286D01*
X3600714Y-2494000D01*
X3672143Y-2494000D01*
X3700714Y-2508286D01*
X3715000Y-2522571D01*
X3729286Y-2551143D01*
X3729286Y-2622571D01*
X3715000Y-2651143D01*
X3700714Y-2665429D01*
X3672143Y-2679714D01*
X3600714Y-2679714D01*
X3572143Y-2665429D01*
X3557857Y-2651143D01*
X4015000Y-2679714D02*
X3843571Y-2679714D01*
X3929286Y-2679714D02*
X3929286Y-2379714D01*
X3900714Y-2422571D01*
X3872143Y-2451143D01*
X3843571Y-2465429D01*
X4129286Y-2379714D02*
X4129286Y-2436857D01*
X4243571Y-2379714D02*
X4243571Y-2436857D01*
X4686429Y-2794000D02*
X4672143Y-2779714D01*
X4643571Y-2736857D01*
X4629286Y-2708286D01*
X4615000Y-2665429D01*
X4600714Y-2594000D01*
X4600714Y-2536857D01*
X4615000Y-2465429D01*
X4629286Y-2422571D01*
X4643571Y-2394000D01*
X4672143Y-2351143D01*
X4686429Y-2336857D01*
X4772143Y-2379714D02*
X4957857Y-2379714D01*
X4857857Y-2494000D01*
X4900714Y-2494000D01*
X4929286Y-2508286D01*
X4943571Y-2522571D01*
X4957857Y-2551143D01*
X4957857Y-2622571D01*
X4943571Y-2651143D01*
X4929286Y-2665429D01*
X4900714Y-2679714D01*
X4815000Y-2679714D01*
X4786429Y-2665429D01*
X4772143Y-2651143D01*
X5215000Y-2379714D02*
X5157857Y-2379714D01*
X5129286Y-2394000D01*
X5115000Y-2408286D01*
X5086429Y-2451143D01*
X5072143Y-2508286D01*
X5072143Y-2622571D01*
X5086429Y-2651143D01*
X5100714Y-2665429D01*
X5129286Y-2679714D01*
X5186429Y-2679714D01*
X5215000Y-2665429D01*
X5229286Y-2651143D01*
X5243571Y-2622571D01*
X5243571Y-2551143D01*
X5229286Y-2522571D01*
X5215000Y-2508286D01*
X5186429Y-2494000D01*
X5129286Y-2494000D01*
X5100714Y-2508286D01*
X5086429Y-2522571D01*
X5072143Y-2551143D01*
X5600714Y-2679714D02*
X5600714Y-2379714D01*
X5729286Y-2679714D02*
X5729286Y-2522571D01*
X5715000Y-2494000D01*
X5686428Y-2479714D01*
X5643571Y-2479714D01*
X5615000Y-2494000D01*
X5600714Y-2508286D01*
X5915000Y-2679714D02*
X5886428Y-2665429D01*
X5872143Y-2651143D01*
X5857857Y-2622571D01*
X5857857Y-2536857D01*
X5872143Y-2508286D01*
X5886428Y-2494000D01*
X5915000Y-2479714D01*
X5957857Y-2479714D01*
X5986428Y-2494000D01*
X6000714Y-2508286D01*
X6015000Y-2536857D01*
X6015000Y-2622571D01*
X6000714Y-2651143D01*
X5986428Y-2665429D01*
X5957857Y-2679714D01*
X5915000Y-2679714D01*
X6186428Y-2679714D02*
X6157857Y-2665429D01*
X6143571Y-2636857D01*
X6143571Y-2379714D01*
X6415000Y-2665429D02*
X6386428Y-2679714D01*
X6329286Y-2679714D01*
X6300714Y-2665429D01*
X6286428Y-2636857D01*
X6286428Y-2522571D01*
X6300714Y-2494000D01*
X6329286Y-2479714D01*
X6386428Y-2479714D01*
X6415000Y-2494000D01*
X6429286Y-2522571D01*
X6429286Y-2551143D01*
X6286428Y-2579714D01*
X6543571Y-2665429D02*
X6572143Y-2679714D01*
X6629286Y-2679714D01*
X6657857Y-2665429D01*
X6672143Y-2636857D01*
X6672143Y-2622571D01*
X6657857Y-2594000D01*
X6629286Y-2579714D01*
X6586428Y-2579714D01*
X6557857Y-2565429D01*
X6543571Y-2536857D01*
X6543571Y-2522571D01*
X6557857Y-2494000D01*
X6586428Y-2479714D01*
X6629286Y-2479714D01*
X6657857Y-2494000D01*
X6772143Y-2794000D02*
X6786428Y-2779714D01*
X6815000Y-2736857D01*
X6829286Y-2708286D01*
X6843571Y-2665429D01*
X6857857Y-2594000D01*
X6857857Y-2536857D01*
X6843571Y-2465429D01*
X6829286Y-2422571D01*
X6815000Y-2394000D01*
X6786428Y-2351143D01*
X6772143Y-2336857D01*
X-160000Y-2860000D02*
X0Y-3020000D01*
X0Y-2860000D02*
X-160000Y-3020000D01*
X0Y-2940000D02*
G75*
G03X0Y-2940000I-80000J0D01*
G01*
X443571Y-3075714D02*
X272143Y-3075714D01*
X357857Y-3075714D02*
X357857Y-2775714D01*
X329286Y-2818571D01*
X300714Y-2847143D01*
X272143Y-2861428D01*
X572143Y-3047143D02*
X586429Y-3061428D01*
X572143Y-3075714D01*
X557857Y-3061428D01*
X572143Y-3047143D01*
X572143Y-3075714D01*
X843571Y-2775714D02*
X786428Y-2775714D01*
X757857Y-2790000D01*
X743571Y-2804286D01*
X715000Y-2847143D01*
X700714Y-2904286D01*
X700714Y-3018571D01*
X715000Y-3047143D01*
X729286Y-3061428D01*
X757857Y-3075714D01*
X815000Y-3075714D01*
X843571Y-3061428D01*
X857857Y-3047143D01*
X872143Y-3018571D01*
X872143Y-2947143D01*
X857857Y-2918571D01*
X843571Y-2904286D01*
X815000Y-2890000D01*
X757857Y-2890000D01*
X729286Y-2904286D01*
X715000Y-2918571D01*
X700714Y-2947143D01*
X1057857Y-2775714D02*
X1086429Y-2775714D01*
X1115000Y-2790000D01*
X1129286Y-2804286D01*
X1143571Y-2832857D01*
X1157857Y-2890000D01*
X1157857Y-2961428D01*
X1143571Y-3018571D01*
X1129286Y-3047143D01*
X1115000Y-3061428D01*
X1086429Y-3075714D01*
X1057857Y-3075714D01*
X1029286Y-3061428D01*
X1015000Y-3047143D01*
X1000714Y-3018571D01*
X986428Y-2961428D01*
X986428Y-2890000D01*
X1000714Y-2832857D01*
X1015000Y-2804286D01*
X1029286Y-2790000D01*
X1057857Y-2775714D01*
X1286429Y-3075714D02*
X1286429Y-2875714D01*
X1286429Y-2904286D02*
X1300714Y-2890000D01*
X1329286Y-2875714D01*
X1372143Y-2875714D01*
X1400714Y-2890000D01*
X1415000Y-2918571D01*
X1415000Y-3075714D01*
X1415000Y-2918571D02*
X1429286Y-2890000D01*
X1457857Y-2875714D01*
X1500714Y-2875714D01*
X1529286Y-2890000D01*
X1543571Y-2918571D01*
X1543571Y-3075714D01*
X1686428Y-3075714D02*
X1686428Y-2875714D01*
X1686428Y-2904286D02*
X1700714Y-2890000D01*
X1729286Y-2875714D01*
X1772143Y-2875714D01*
X1800714Y-2890000D01*
X1815000Y-2918571D01*
X1815000Y-3075714D01*
X1815000Y-2918571D02*
X1829286Y-2890000D01*
X1857857Y-2875714D01*
X1900714Y-2875714D01*
X1929286Y-2890000D01*
X1943571Y-2918571D01*
X1943571Y-3075714D01*
X2529286Y-2761429D02*
X2272143Y-3147143D01*
X2915000Y-2775714D02*
X2943571Y-2775714D01*
X2972143Y-2790000D01*
X2986428Y-2804286D01*
X3000714Y-2832857D01*
X3015000Y-2890000D01*
X3015000Y-2961428D01*
X3000714Y-3018571D01*
X2986428Y-3047143D01*
X2972143Y-3061428D01*
X2943571Y-3075714D01*
X2915000Y-3075714D01*
X2886428Y-3061428D01*
X2872143Y-3047143D01*
X2857857Y-3018571D01*
X2843571Y-2961428D01*
X2843571Y-2890000D01*
X2857857Y-2832857D01*
X2872143Y-2804286D01*
X2886428Y-2790000D01*
X2915000Y-2775714D01*
X3143571Y-3047143D02*
X3157857Y-3061428D01*
X3143571Y-3075714D01*
X3129286Y-3061428D01*
X3143571Y-3047143D01*
X3143571Y-3075714D01*
X3343571Y-2775714D02*
X3372143Y-2775714D01*
X3400714Y-2790000D01*
X3415000Y-2804286D01*
X3429286Y-2832857D01*
X3443571Y-2890000D01*
X3443571Y-2961428D01*
X3429286Y-3018571D01*
X3415000Y-3047143D01*
X3400714Y-3061428D01*
X3372143Y-3075714D01*
X3343571Y-3075714D01*
X3315000Y-3061428D01*
X3300714Y-3047143D01*
X3286428Y-3018571D01*
X3272143Y-2961428D01*
X3272143Y-2890000D01*
X3286428Y-2832857D01*
X3300714Y-2804286D01*
X3315000Y-2790000D01*
X3343571Y-2775714D01*
X3700714Y-2775714D02*
X3643571Y-2775714D01*
X3615000Y-2790000D01*
X3600714Y-2804286D01*
X3572143Y-2847143D01*
X3557857Y-2904286D01*
X3557857Y-3018571D01*
X3572143Y-3047143D01*
X3586428Y-3061428D01*
X3615000Y-3075714D01*
X3672143Y-3075714D01*
X3700714Y-3061428D01*
X3715000Y-3047143D01*
X3729286Y-3018571D01*
X3729286Y-2947143D01*
X3715000Y-2918571D01*
X3700714Y-2904286D01*
X3672143Y-2890000D01*
X3615000Y-2890000D01*
X3586428Y-2904286D01*
X3572143Y-2918571D01*
X3557857Y-2947143D01*
X3829286Y-2775714D02*
X4015000Y-2775714D01*
X3915000Y-2890000D01*
X3957857Y-2890000D01*
X3986428Y-2904286D01*
X4000714Y-2918571D01*
X4015000Y-2947143D01*
X4015000Y-3018571D01*
X4000714Y-3047143D01*
X3986428Y-3061428D01*
X3957857Y-3075714D01*
X3872143Y-3075714D01*
X3843571Y-3061428D01*
X3829286Y-3047143D01*
X4129286Y-2775714D02*
X4129286Y-2832857D01*
X4243571Y-2775714D02*
X4243571Y-2832857D01*
X4686429Y-3190000D02*
X4672143Y-3175714D01*
X4643571Y-3132857D01*
X4629286Y-3104286D01*
X4615000Y-3061428D01*
X4600714Y-2990000D01*
X4600714Y-2932857D01*
X4615000Y-2861428D01*
X4629286Y-2818571D01*
X4643571Y-2790000D01*
X4672143Y-2747143D01*
X4686429Y-2732857D01*
X4786429Y-2804286D02*
X4800714Y-2790000D01*
X4829286Y-2775714D01*
X4900714Y-2775714D01*
X4929286Y-2790000D01*
X4943571Y-2804286D01*
X4957857Y-2832857D01*
X4957857Y-2861428D01*
X4943571Y-2904286D01*
X4772143Y-3075714D01*
X4957857Y-3075714D01*
X5315000Y-3075714D02*
X5315000Y-2775714D01*
X5443571Y-3075714D02*
X5443571Y-2918571D01*
X5429286Y-2890000D01*
X5400714Y-2875714D01*
X5357857Y-2875714D01*
X5329286Y-2890000D01*
X5315000Y-2904286D01*
X5629286Y-3075714D02*
X5600714Y-3061428D01*
X5586429Y-3047143D01*
X5572143Y-3018571D01*
X5572143Y-2932857D01*
X5586429Y-2904286D01*
X5600714Y-2890000D01*
X5629286Y-2875714D01*
X5672143Y-2875714D01*
X5700714Y-2890000D01*
X5715000Y-2904286D01*
X5729286Y-2932857D01*
X5729286Y-3018571D01*
X5715000Y-3047143D01*
X5700714Y-3061428D01*
X5672143Y-3075714D01*
X5629286Y-3075714D01*
X5900714Y-3075714D02*
X5872143Y-3061428D01*
X5857857Y-3032857D01*
X5857857Y-2775714D01*
X6129286Y-3061428D02*
X6100714Y-3075714D01*
X6043571Y-3075714D01*
X6015000Y-3061428D01*
X6000714Y-3032857D01*
X6000714Y-2918571D01*
X6015000Y-2890000D01*
X6043571Y-2875714D01*
X6100714Y-2875714D01*
X6129286Y-2890000D01*
X6143571Y-2918571D01*
X6143571Y-2947143D01*
X6000714Y-2975714D01*
X6257857Y-3061428D02*
X6286428Y-3075714D01*
X6343571Y-3075714D01*
X6372143Y-3061428D01*
X6386428Y-3032857D01*
X6386428Y-3018571D01*
X6372143Y-2990000D01*
X6343571Y-2975714D01*
X6300714Y-2975714D01*
X6272143Y-2961428D01*
X6257857Y-2932857D01*
X6257857Y-2918571D01*
X6272143Y-2890000D01*
X6300714Y-2875714D01*
X6343571Y-2875714D01*
X6372143Y-2890000D01*
X6486428Y-3190000D02*
X6500714Y-3175714D01*
X6529286Y-3132857D01*
X6543571Y-3104286D01*
X6557857Y-3061428D01*
X6572143Y-2990000D01*
X6572143Y-2932857D01*
X6557857Y-2861428D01*
X6543571Y-2818571D01*
X6529286Y-2790000D01*
X6500714Y-2747143D01*
X6486428Y-2732857D01*
M02*
