%TF.GenerationSoftware,KiCad,Pcbnew,5.1.4+dfsg1-1*%
%TF.CreationDate,2019-12-07T14:51:34+10:00*%
%TF.ProjectId,ActuatorsExpanded,41637475-6174-46f7-9273-457870616e64,1*%
%TF.SameCoordinates,Original*%
%TF.FileFunction,Legend,Top*%
%TF.FilePolarity,Positive*%
%FSLAX46Y46*%
G04 Gerber Fmt 4.6, Leading zero omitted, Abs format (unit mm)*
G04 Created by KiCad (PCBNEW 5.1.4+dfsg1-1) date 2019-12-07 14:51:34*
%MOMM*%
%LPD*%
G04 APERTURE LIST*
%ADD10C,0.120000*%
%ADD11C,0.150000*%
G04 APERTURE END LIST*
D10*
X200545000Y-71420000D02*
X200545000Y-70920000D01*
X199805000Y-71420000D02*
X200545000Y-71420000D01*
X195937000Y-59678000D02*
X196333000Y-60073000D01*
X193291000Y-57032000D02*
X193671000Y-57412000D01*
X196219000Y-59427000D02*
X196599000Y-59807000D01*
X193557000Y-56766000D02*
X193953000Y-57161000D01*
X195937000Y-64758000D02*
X196333000Y-65153000D01*
X193291000Y-62112000D02*
X193671000Y-62492000D01*
X196219000Y-64507000D02*
X196599000Y-64887000D01*
X193557000Y-61846000D02*
X193953000Y-62241000D01*
X196226000Y-70128000D02*
X196333000Y-70234000D01*
X193291000Y-67192000D02*
X193398000Y-67299000D01*
X196492000Y-69862000D02*
X196599000Y-69968000D01*
X193557000Y-66926000D02*
X193664000Y-67033000D01*
X188985000Y-55820000D02*
X200305000Y-55820000D01*
X188985000Y-71180000D02*
X200305000Y-71180000D01*
X200305000Y-71180000D02*
X200305000Y-55820000D01*
X188985000Y-71180000D02*
X188985000Y-55820000D01*
X191045000Y-71180000D02*
X191045000Y-55820000D01*
X197245000Y-71180000D02*
X197245000Y-55820000D01*
X199745000Y-71180000D02*
X199745000Y-55820000D01*
X197125000Y-58420000D02*
G75*
G03X197125000Y-58420000I-2180000J0D01*
G01*
X197125000Y-63500000D02*
G75*
G03X197125000Y-63500000I-2180000J0D01*
G01*
X197125000Y-68580000D02*
G75*
G03X197125000Y-68580000I-2180000J0D01*
G01*
X126365000Y-72330000D02*
X127695000Y-72330000D01*
X127695000Y-72330000D02*
X127695000Y-73660000D01*
X127695000Y-74930000D02*
X127695000Y-102930000D01*
X125035000Y-102930000D02*
X127695000Y-102930000D01*
X125035000Y-74930000D02*
X125035000Y-102930000D01*
X125035000Y-74930000D02*
X127695000Y-74930000D01*
X200545000Y-124760000D02*
X200545000Y-124260000D01*
X199805000Y-124760000D02*
X200545000Y-124760000D01*
X195937000Y-113018000D02*
X196333000Y-113413000D01*
X193291000Y-110372000D02*
X193671000Y-110752000D01*
X196219000Y-112767000D02*
X196599000Y-113147000D01*
X193557000Y-110106000D02*
X193953000Y-110501000D01*
X195937000Y-118098000D02*
X196333000Y-118493000D01*
X193291000Y-115452000D02*
X193671000Y-115832000D01*
X196219000Y-117847000D02*
X196599000Y-118227000D01*
X193557000Y-115186000D02*
X193953000Y-115581000D01*
X196226000Y-123468000D02*
X196333000Y-123574000D01*
X193291000Y-120532000D02*
X193398000Y-120639000D01*
X196492000Y-123202000D02*
X196599000Y-123308000D01*
X193557000Y-120266000D02*
X193664000Y-120373000D01*
X188985000Y-109160000D02*
X200305000Y-109160000D01*
X188985000Y-124520000D02*
X200305000Y-124520000D01*
X200305000Y-124520000D02*
X200305000Y-109160000D01*
X188985000Y-124520000D02*
X188985000Y-109160000D01*
X191045000Y-124520000D02*
X191045000Y-109160000D01*
X197245000Y-124520000D02*
X197245000Y-109160000D01*
X199745000Y-124520000D02*
X199745000Y-109160000D01*
X197125000Y-111760000D02*
G75*
G03X197125000Y-111760000I-2180000J0D01*
G01*
X197125000Y-116840000D02*
G75*
G03X197125000Y-116840000I-2180000J0D01*
G01*
X197125000Y-121920000D02*
G75*
G03X197125000Y-121920000I-2180000J0D01*
G01*
X167935000Y-79930000D02*
X167935000Y-76780000D01*
X167935000Y-85780000D02*
X167935000Y-82630000D01*
X162825000Y-82280000D02*
X162825000Y-80280000D01*
X168535000Y-81630000D02*
X168535000Y-80930000D01*
X167335000Y-81630000D02*
X168535000Y-81630000D01*
X167335000Y-80930000D02*
X167335000Y-81630000D01*
X168535000Y-80930000D02*
X167335000Y-80930000D01*
X168135000Y-81630000D02*
X167735000Y-80930000D01*
X185785000Y-89630000D02*
X185785000Y-72930000D01*
X163085000Y-89630000D02*
X185785000Y-89630000D01*
X163085000Y-72930000D02*
X163085000Y-89630000D01*
X185785000Y-72930000D02*
X163085000Y-72930000D01*
X167935000Y-97710000D02*
X167935000Y-94560000D01*
X167935000Y-103560000D02*
X167935000Y-100410000D01*
X162825000Y-100060000D02*
X162825000Y-98060000D01*
X168535000Y-99410000D02*
X168535000Y-98710000D01*
X167335000Y-99410000D02*
X168535000Y-99410000D01*
X167335000Y-98710000D02*
X167335000Y-99410000D01*
X168535000Y-98710000D02*
X167335000Y-98710000D01*
X168135000Y-99410000D02*
X167735000Y-98710000D01*
X185785000Y-107410000D02*
X185785000Y-90710000D01*
X163085000Y-107410000D02*
X185785000Y-107410000D01*
X163085000Y-90710000D02*
X163085000Y-107410000D01*
X185785000Y-90710000D02*
X163085000Y-90710000D01*
X132665000Y-97230000D02*
X130850000Y-97230000D01*
X132665000Y-96985000D02*
X132665000Y-97230000D01*
X136525000Y-96985000D02*
X132665000Y-96985000D01*
X140385000Y-96985000D02*
X140385000Y-97230000D01*
X136525000Y-96985000D02*
X140385000Y-96985000D01*
X132665000Y-108755000D02*
X132665000Y-108510000D01*
X136525000Y-108755000D02*
X132665000Y-108755000D01*
X140385000Y-108755000D02*
X140385000Y-108510000D01*
X136525000Y-108755000D02*
X140385000Y-108755000D01*
D11*
X136290000Y-86425000D02*
X135015000Y-86425000D01*
X136290000Y-92175000D02*
X141840000Y-92175000D01*
X136290000Y-85625000D02*
X141840000Y-85625000D01*
X136290000Y-92175000D02*
X136290000Y-91275000D01*
X141840000Y-92175000D02*
X141840000Y-91275000D01*
X141840000Y-85625000D02*
X141840000Y-86525000D01*
X136290000Y-85625000D02*
X136290000Y-86425000D01*
D10*
X150495000Y-76330000D02*
X150495000Y-73530000D01*
X132545000Y-76330000D02*
X153205000Y-76330000D01*
X132545000Y-73530000D02*
X132545000Y-76330000D01*
X153205000Y-73530000D02*
X132545000Y-73530000D01*
X153205000Y-76330000D02*
X153205000Y-73530000D01*
X146685000Y-81410000D02*
X146685000Y-78610000D01*
X136355000Y-81410000D02*
X149395000Y-81410000D01*
X136355000Y-78610000D02*
X136355000Y-81410000D01*
X149395000Y-78610000D02*
X136355000Y-78610000D01*
X149395000Y-81410000D02*
X149395000Y-78610000D01*
X120015000Y-70080000D02*
X120015000Y-69310000D01*
X120015000Y-62000000D02*
X120015000Y-62770000D01*
X121385000Y-69310000D02*
X121385000Y-62770000D01*
X118645000Y-69310000D02*
X121385000Y-69310000D01*
X118645000Y-62770000D02*
X118645000Y-69310000D01*
X121385000Y-62770000D02*
X118645000Y-62770000D01*
X126830000Y-124690000D02*
X126830000Y-106450000D01*
X126830000Y-106450000D02*
X96690000Y-106450000D01*
X96690000Y-106450000D02*
X96690000Y-112530000D01*
X96690000Y-112530000D02*
X97050000Y-112530000D01*
X97050000Y-112530000D02*
X97050000Y-118609999D01*
X97050000Y-118609999D02*
X96690000Y-118609999D01*
X97790000Y-124690000D02*
X126830000Y-124690000D01*
X96690000Y-118609999D02*
X96690000Y-123571000D01*
X96690000Y-123571000D02*
X97790000Y-124690000D01*
X167935000Y-62150000D02*
X167935000Y-59000000D01*
X167935000Y-68000000D02*
X167935000Y-64850000D01*
X162825000Y-64500000D02*
X162825000Y-62500000D01*
X168535000Y-63850000D02*
X168535000Y-63150000D01*
X167335000Y-63850000D02*
X168535000Y-63850000D01*
X167335000Y-63150000D02*
X167335000Y-63850000D01*
X168535000Y-63150000D02*
X167335000Y-63150000D01*
X168135000Y-63850000D02*
X167735000Y-63150000D01*
X185785000Y-71850000D02*
X185785000Y-55150000D01*
X163085000Y-71850000D02*
X185785000Y-71850000D01*
X163085000Y-55150000D02*
X163085000Y-71850000D01*
X185785000Y-55150000D02*
X163085000Y-55150000D01*
X167935000Y-115490000D02*
X167935000Y-112340000D01*
X167935000Y-121340000D02*
X167935000Y-118190000D01*
X162825000Y-117840000D02*
X162825000Y-115840000D01*
X168535000Y-117190000D02*
X168535000Y-116490000D01*
X167335000Y-117190000D02*
X168535000Y-117190000D01*
X167335000Y-116490000D02*
X167335000Y-117190000D01*
X168535000Y-116490000D02*
X167335000Y-116490000D01*
X168135000Y-117190000D02*
X167735000Y-116490000D01*
X185785000Y-125190000D02*
X185785000Y-108490000D01*
X163085000Y-125190000D02*
X185785000Y-125190000D01*
X163085000Y-108490000D02*
X163085000Y-125190000D01*
X185785000Y-108490000D02*
X163085000Y-108490000D01*
X134785000Y-58530000D02*
X134785000Y-57930000D01*
X133185000Y-58530000D02*
X134785000Y-58530000D01*
X133185000Y-57930000D02*
X133185000Y-58530000D01*
X132245000Y-58530000D02*
X132245000Y-57930000D01*
X130645000Y-58530000D02*
X132245000Y-58530000D01*
X130645000Y-57930000D02*
X130645000Y-58530000D01*
X133735000Y-63950000D02*
X133735000Y-62950000D01*
X131695000Y-63950000D02*
X131695000Y-62950000D01*
X133735000Y-62420000D02*
X133985000Y-62950000D01*
X131695000Y-62420000D02*
X133735000Y-62420000D01*
X131445000Y-62950000D02*
X131695000Y-62420000D01*
X133985000Y-62950000D02*
X133985000Y-63950000D01*
X131445000Y-62950000D02*
X133985000Y-62950000D01*
X131445000Y-63950000D02*
X131445000Y-62950000D01*
X129775000Y-58960000D02*
X129775000Y-62960000D01*
X135365000Y-57930000D02*
X130065000Y-57930000D01*
X135365000Y-63950000D02*
X135365000Y-57930000D01*
X130065000Y-63950000D02*
X135365000Y-63950000D01*
X130065000Y-57930000D02*
X130065000Y-63950000D01*
X142405000Y-58530000D02*
X142405000Y-57930000D01*
X140805000Y-58530000D02*
X142405000Y-58530000D01*
X140805000Y-57930000D02*
X140805000Y-58530000D01*
X139865000Y-58530000D02*
X139865000Y-57930000D01*
X138265000Y-58530000D02*
X139865000Y-58530000D01*
X138265000Y-57930000D02*
X138265000Y-58530000D01*
X141355000Y-63950000D02*
X141355000Y-62950000D01*
X139315000Y-63950000D02*
X139315000Y-62950000D01*
X141355000Y-62420000D02*
X141605000Y-62950000D01*
X139315000Y-62420000D02*
X141355000Y-62420000D01*
X139065000Y-62950000D02*
X139315000Y-62420000D01*
X141605000Y-62950000D02*
X141605000Y-63950000D01*
X139065000Y-62950000D02*
X141605000Y-62950000D01*
X139065000Y-63950000D02*
X139065000Y-62950000D01*
X137395000Y-58960000D02*
X137395000Y-62960000D01*
X142985000Y-57930000D02*
X137685000Y-57930000D01*
X142985000Y-63950000D02*
X142985000Y-57930000D01*
X137685000Y-63950000D02*
X142985000Y-63950000D01*
X137685000Y-57930000D02*
X137685000Y-63950000D01*
X150025000Y-58530000D02*
X150025000Y-57930000D01*
X148425000Y-58530000D02*
X150025000Y-58530000D01*
X148425000Y-57930000D02*
X148425000Y-58530000D01*
X147485000Y-58530000D02*
X147485000Y-57930000D01*
X145885000Y-58530000D02*
X147485000Y-58530000D01*
X145885000Y-57930000D02*
X145885000Y-58530000D01*
X148975000Y-63950000D02*
X148975000Y-62950000D01*
X146935000Y-63950000D02*
X146935000Y-62950000D01*
X148975000Y-62420000D02*
X149225000Y-62950000D01*
X146935000Y-62420000D02*
X148975000Y-62420000D01*
X146685000Y-62950000D02*
X146935000Y-62420000D01*
X149225000Y-62950000D02*
X149225000Y-63950000D01*
X146685000Y-62950000D02*
X149225000Y-62950000D01*
X146685000Y-63950000D02*
X146685000Y-62950000D01*
X145015000Y-58960000D02*
X145015000Y-62960000D01*
X150605000Y-57930000D02*
X145305000Y-57930000D01*
X150605000Y-63950000D02*
X150605000Y-57930000D01*
X145305000Y-63950000D02*
X150605000Y-63950000D01*
X145305000Y-57930000D02*
X145305000Y-63950000D01*
X200545000Y-89200000D02*
X200545000Y-88700000D01*
X199805000Y-89200000D02*
X200545000Y-89200000D01*
X195937000Y-77458000D02*
X196333000Y-77853000D01*
X193291000Y-74812000D02*
X193671000Y-75192000D01*
X196219000Y-77207000D02*
X196599000Y-77587000D01*
X193557000Y-74546000D02*
X193953000Y-74941000D01*
X195937000Y-82538000D02*
X196333000Y-82933000D01*
X193291000Y-79892000D02*
X193671000Y-80272000D01*
X196219000Y-82287000D02*
X196599000Y-82667000D01*
X193557000Y-79626000D02*
X193953000Y-80021000D01*
X196226000Y-87908000D02*
X196333000Y-88014000D01*
X193291000Y-84972000D02*
X193398000Y-85079000D01*
X196492000Y-87642000D02*
X196599000Y-87748000D01*
X193557000Y-84706000D02*
X193664000Y-84813000D01*
X188985000Y-73600000D02*
X200305000Y-73600000D01*
X188985000Y-88960000D02*
X200305000Y-88960000D01*
X200305000Y-88960000D02*
X200305000Y-73600000D01*
X188985000Y-88960000D02*
X188985000Y-73600000D01*
X191045000Y-88960000D02*
X191045000Y-73600000D01*
X197245000Y-88960000D02*
X197245000Y-73600000D01*
X199745000Y-88960000D02*
X199745000Y-73600000D01*
X197125000Y-76200000D02*
G75*
G03X197125000Y-76200000I-2180000J0D01*
G01*
X197125000Y-81280000D02*
G75*
G03X197125000Y-81280000I-2180000J0D01*
G01*
X197125000Y-86360000D02*
G75*
G03X197125000Y-86360000I-2180000J0D01*
G01*
X200545000Y-106980000D02*
X200545000Y-106480000D01*
X199805000Y-106980000D02*
X200545000Y-106980000D01*
X195937000Y-95238000D02*
X196333000Y-95633000D01*
X193291000Y-92592000D02*
X193671000Y-92972000D01*
X196219000Y-94987000D02*
X196599000Y-95367000D01*
X193557000Y-92326000D02*
X193953000Y-92721000D01*
X195937000Y-100318000D02*
X196333000Y-100713000D01*
X193291000Y-97672000D02*
X193671000Y-98052000D01*
X196219000Y-100067000D02*
X196599000Y-100447000D01*
X193557000Y-97406000D02*
X193953000Y-97801000D01*
X196226000Y-105688000D02*
X196333000Y-105794000D01*
X193291000Y-102752000D02*
X193398000Y-102859000D01*
X196492000Y-105422000D02*
X196599000Y-105528000D01*
X193557000Y-102486000D02*
X193664000Y-102593000D01*
X188985000Y-91380000D02*
X200305000Y-91380000D01*
X188985000Y-106740000D02*
X200305000Y-106740000D01*
X200305000Y-106740000D02*
X200305000Y-91380000D01*
X188985000Y-106740000D02*
X188985000Y-91380000D01*
X191045000Y-106740000D02*
X191045000Y-91380000D01*
X197245000Y-106740000D02*
X197245000Y-91380000D01*
X199745000Y-106740000D02*
X199745000Y-91380000D01*
X197125000Y-93980000D02*
G75*
G03X197125000Y-93980000I-2180000J0D01*
G01*
X197125000Y-99060000D02*
G75*
G03X197125000Y-99060000I-2180000J0D01*
G01*
X197125000Y-104140000D02*
G75*
G03X197125000Y-104140000I-2180000J0D01*
G01*
X157645000Y-58530000D02*
X157645000Y-57930000D01*
X156045000Y-58530000D02*
X157645000Y-58530000D01*
X156045000Y-57930000D02*
X156045000Y-58530000D01*
X155105000Y-58530000D02*
X155105000Y-57930000D01*
X153505000Y-58530000D02*
X155105000Y-58530000D01*
X153505000Y-57930000D02*
X153505000Y-58530000D01*
X156595000Y-63950000D02*
X156595000Y-62950000D01*
X154555000Y-63950000D02*
X154555000Y-62950000D01*
X156595000Y-62420000D02*
X156845000Y-62950000D01*
X154555000Y-62420000D02*
X156595000Y-62420000D01*
X154305000Y-62950000D02*
X154555000Y-62420000D01*
X156845000Y-62950000D02*
X156845000Y-63950000D01*
X154305000Y-62950000D02*
X156845000Y-62950000D01*
X154305000Y-63950000D02*
X154305000Y-62950000D01*
X152635000Y-58960000D02*
X152635000Y-62960000D01*
X158225000Y-57930000D02*
X152925000Y-57930000D01*
X158225000Y-63950000D02*
X158225000Y-57930000D01*
X152925000Y-63950000D02*
X158225000Y-63950000D01*
X152925000Y-57930000D02*
X152925000Y-63950000D01*
X127165000Y-58530000D02*
X127165000Y-57930000D01*
X125565000Y-58530000D02*
X127165000Y-58530000D01*
X125565000Y-57930000D02*
X125565000Y-58530000D01*
X124625000Y-58530000D02*
X124625000Y-57930000D01*
X123025000Y-58530000D02*
X124625000Y-58530000D01*
X123025000Y-57930000D02*
X123025000Y-58530000D01*
X126115000Y-63950000D02*
X126115000Y-62950000D01*
X124075000Y-63950000D02*
X124075000Y-62950000D01*
X126115000Y-62420000D02*
X126365000Y-62950000D01*
X124075000Y-62420000D02*
X126115000Y-62420000D01*
X123825000Y-62950000D02*
X124075000Y-62420000D01*
X126365000Y-62950000D02*
X126365000Y-63950000D01*
X123825000Y-62950000D02*
X126365000Y-62950000D01*
X123825000Y-63950000D02*
X123825000Y-62950000D01*
X122155000Y-58960000D02*
X122155000Y-62960000D01*
X127745000Y-57930000D02*
X122445000Y-57930000D01*
X127745000Y-63950000D02*
X127745000Y-57930000D01*
X122445000Y-63950000D02*
X127745000Y-63950000D01*
X122445000Y-57930000D02*
X122445000Y-63950000D01*
X99635000Y-77410000D02*
X100965000Y-77410000D01*
X99635000Y-78740000D02*
X99635000Y-77410000D01*
X99635000Y-80010000D02*
X102295000Y-80010000D01*
X102295000Y-80010000D02*
X102295000Y-97850000D01*
X99635000Y-80010000D02*
X99635000Y-97850000D01*
X99635000Y-97850000D02*
X102295000Y-97850000D01*
X103205000Y-67195000D02*
X103705000Y-67195000D01*
X103205000Y-66455000D02*
X103205000Y-67195000D01*
X109867000Y-62587000D02*
X109472000Y-62983000D01*
X112513000Y-59941000D02*
X112133000Y-60321000D01*
X110118000Y-62869000D02*
X109738000Y-63249000D01*
X112779000Y-60207000D02*
X112384000Y-60603000D01*
X104497000Y-62876000D02*
X104391000Y-62983000D01*
X107433000Y-59941000D02*
X107326000Y-60048000D01*
X104763000Y-63142000D02*
X104657000Y-63249000D01*
X107699000Y-60207000D02*
X107592000Y-60314000D01*
X113725000Y-55635000D02*
X113725000Y-66955000D01*
X103445000Y-55635000D02*
X103445000Y-66955000D01*
X103445000Y-66955000D02*
X113725000Y-66955000D01*
X103445000Y-55635000D02*
X113725000Y-55635000D01*
X103445000Y-57695000D02*
X113725000Y-57695000D01*
X103445000Y-63895000D02*
X113725000Y-63895000D01*
X103445000Y-66395000D02*
X113725000Y-66395000D01*
X113305000Y-61595000D02*
G75*
G03X113305000Y-61595000I-2180000J0D01*
G01*
X108225000Y-61595000D02*
G75*
G03X108225000Y-61595000I-2180000J0D01*
G01*
X111125000Y-72330000D02*
X112455000Y-72330000D01*
X112455000Y-72330000D02*
X112455000Y-73660000D01*
X112455000Y-74930000D02*
X112455000Y-102930000D01*
X109795000Y-102930000D02*
X112455000Y-102930000D01*
X109795000Y-74930000D02*
X109795000Y-102930000D01*
X109795000Y-74930000D02*
X112455000Y-74930000D01*
X95895000Y-61620000D02*
X95895000Y-102880000D01*
X80635000Y-102880000D02*
X80635000Y-61620000D01*
X95895000Y-102880000D02*
X90265000Y-102880000D01*
X86265000Y-102880000D02*
X80635000Y-102880000D01*
X95895000Y-61620000D02*
X90265000Y-61620000D01*
X86265000Y-61620000D02*
X80635000Y-61620000D01*
X91620000Y-112125000D02*
X86180000Y-112125000D01*
X91620000Y-112365000D02*
X86180000Y-112365000D01*
X91620000Y-112245000D02*
X86180000Y-112245000D01*
X88900000Y-121350000D02*
X88900000Y-120440000D01*
X88900000Y-109790000D02*
X88900000Y-110700000D01*
X91620000Y-120440000D02*
X91620000Y-110700000D01*
X86180000Y-120440000D02*
X91620000Y-120440000D01*
X86180000Y-110700000D02*
X86180000Y-120440000D01*
X91620000Y-110700000D02*
X86180000Y-110700000D01*
X145985000Y-109110000D02*
X147385000Y-109110000D01*
X147385000Y-106790000D02*
X145485000Y-106790000D01*
X137235000Y-70108578D02*
X137235000Y-69591422D01*
X135815000Y-70108578D02*
X135815000Y-69591422D01*
X142315000Y-70108578D02*
X142315000Y-69591422D01*
X140895000Y-70108578D02*
X140895000Y-69591422D01*
X144855000Y-70108578D02*
X144855000Y-69591422D01*
X143435000Y-70108578D02*
X143435000Y-69591422D01*
X149935000Y-70108578D02*
X149935000Y-69591422D01*
X148515000Y-70108578D02*
X148515000Y-69591422D01*
D11*
X187437380Y-64309523D02*
X188151666Y-64309523D01*
X188294523Y-64357142D01*
X188389761Y-64452380D01*
X188437380Y-64595238D01*
X188437380Y-64690476D01*
X188437380Y-63309523D02*
X188437380Y-63880952D01*
X188437380Y-63595238D02*
X187437380Y-63595238D01*
X187580238Y-63690476D01*
X187675476Y-63785714D01*
X187723095Y-63880952D01*
X187437380Y-62976190D02*
X187437380Y-62357142D01*
X187818333Y-62690476D01*
X187818333Y-62547619D01*
X187865952Y-62452380D01*
X187913571Y-62404761D01*
X188008809Y-62357142D01*
X188246904Y-62357142D01*
X188342142Y-62404761D01*
X188389761Y-62452380D01*
X188437380Y-62547619D01*
X188437380Y-62833333D01*
X188389761Y-62928571D01*
X188342142Y-62976190D01*
X126031666Y-70342380D02*
X126031666Y-71056666D01*
X125984047Y-71199523D01*
X125888809Y-71294761D01*
X125745952Y-71342380D01*
X125650714Y-71342380D01*
X126460238Y-70437619D02*
X126507857Y-70390000D01*
X126603095Y-70342380D01*
X126841190Y-70342380D01*
X126936428Y-70390000D01*
X126984047Y-70437619D01*
X127031666Y-70532857D01*
X127031666Y-70628095D01*
X126984047Y-70770952D01*
X126412619Y-71342380D01*
X127031666Y-71342380D01*
X187437380Y-117173333D02*
X188151666Y-117173333D01*
X188294523Y-117220952D01*
X188389761Y-117316190D01*
X188437380Y-117459047D01*
X188437380Y-117554285D01*
X187437380Y-116268571D02*
X187437380Y-116459047D01*
X187485000Y-116554285D01*
X187532619Y-116601904D01*
X187675476Y-116697142D01*
X187865952Y-116744761D01*
X188246904Y-116744761D01*
X188342142Y-116697142D01*
X188389761Y-116649523D01*
X188437380Y-116554285D01*
X188437380Y-116363809D01*
X188389761Y-116268571D01*
X188342142Y-116220952D01*
X188246904Y-116173333D01*
X188008809Y-116173333D01*
X187913571Y-116220952D01*
X187865952Y-116268571D01*
X187818333Y-116363809D01*
X187818333Y-116554285D01*
X187865952Y-116649523D01*
X187913571Y-116697142D01*
X188008809Y-116744761D01*
X162387380Y-82018095D02*
X161387380Y-82018095D01*
X162387380Y-81446666D02*
X161815952Y-81875238D01*
X161387380Y-81446666D02*
X161958809Y-82018095D01*
X161387380Y-81113333D02*
X161387380Y-80494285D01*
X161768333Y-80827619D01*
X161768333Y-80684761D01*
X161815952Y-80589523D01*
X161863571Y-80541904D01*
X161958809Y-80494285D01*
X162196904Y-80494285D01*
X162292142Y-80541904D01*
X162339761Y-80589523D01*
X162387380Y-80684761D01*
X162387380Y-80970476D01*
X162339761Y-81065714D01*
X162292142Y-81113333D01*
X162387380Y-99798095D02*
X161387380Y-99798095D01*
X162387380Y-99226666D02*
X161815952Y-99655238D01*
X161387380Y-99226666D02*
X161958809Y-99798095D01*
X161482619Y-98845714D02*
X161435000Y-98798095D01*
X161387380Y-98702857D01*
X161387380Y-98464761D01*
X161435000Y-98369523D01*
X161482619Y-98321904D01*
X161577857Y-98274285D01*
X161673095Y-98274285D01*
X161815952Y-98321904D01*
X162387380Y-98893333D01*
X162387380Y-98274285D01*
X135763095Y-95602380D02*
X135763095Y-96411904D01*
X135810714Y-96507142D01*
X135858333Y-96554761D01*
X135953571Y-96602380D01*
X136144047Y-96602380D01*
X136239285Y-96554761D01*
X136286904Y-96507142D01*
X136334523Y-96411904D01*
X136334523Y-95602380D01*
X136763095Y-95697619D02*
X136810714Y-95650000D01*
X136905952Y-95602380D01*
X137144047Y-95602380D01*
X137239285Y-95650000D01*
X137286904Y-95697619D01*
X137334523Y-95792857D01*
X137334523Y-95888095D01*
X137286904Y-96030952D01*
X136715476Y-96602380D01*
X137334523Y-96602380D01*
X138303095Y-84152380D02*
X138303095Y-84961904D01*
X138350714Y-85057142D01*
X138398333Y-85104761D01*
X138493571Y-85152380D01*
X138684047Y-85152380D01*
X138779285Y-85104761D01*
X138826904Y-85057142D01*
X138874523Y-84961904D01*
X138874523Y-84152380D01*
X139874523Y-85152380D02*
X139303095Y-85152380D01*
X139588809Y-85152380D02*
X139588809Y-84152380D01*
X139493571Y-84295238D01*
X139398333Y-84390476D01*
X139303095Y-84438095D01*
X140914523Y-77782380D02*
X140581190Y-77306190D01*
X140343095Y-77782380D02*
X140343095Y-76782380D01*
X140724047Y-76782380D01*
X140819285Y-76830000D01*
X140866904Y-76877619D01*
X140914523Y-76972857D01*
X140914523Y-77115714D01*
X140866904Y-77210952D01*
X140819285Y-77258571D01*
X140724047Y-77306190D01*
X140343095Y-77306190D01*
X141343095Y-77782380D02*
X141343095Y-76782380D01*
X141914523Y-77782380D01*
X141914523Y-76782380D01*
X142343095Y-76877619D02*
X142390714Y-76830000D01*
X142485952Y-76782380D01*
X142724047Y-76782380D01*
X142819285Y-76830000D01*
X142866904Y-76877619D01*
X142914523Y-76972857D01*
X142914523Y-77068095D01*
X142866904Y-77210952D01*
X142295476Y-77782380D01*
X142914523Y-77782380D01*
X140914523Y-82862380D02*
X140581190Y-82386190D01*
X140343095Y-82862380D02*
X140343095Y-81862380D01*
X140724047Y-81862380D01*
X140819285Y-81910000D01*
X140866904Y-81957619D01*
X140914523Y-82052857D01*
X140914523Y-82195714D01*
X140866904Y-82290952D01*
X140819285Y-82338571D01*
X140724047Y-82386190D01*
X140343095Y-82386190D01*
X141343095Y-82862380D02*
X141343095Y-81862380D01*
X141914523Y-82862380D01*
X141914523Y-81862380D01*
X142914523Y-82862380D02*
X142343095Y-82862380D01*
X142628809Y-82862380D02*
X142628809Y-81862380D01*
X142533571Y-82005238D01*
X142438333Y-82100476D01*
X142343095Y-82148095D01*
X122837380Y-66206666D02*
X122361190Y-66540000D01*
X122837380Y-66778095D02*
X121837380Y-66778095D01*
X121837380Y-66397142D01*
X121885000Y-66301904D01*
X121932619Y-66254285D01*
X122027857Y-66206666D01*
X122170714Y-66206666D01*
X122265952Y-66254285D01*
X122313571Y-66301904D01*
X122361190Y-66397142D01*
X122361190Y-66778095D01*
X121837380Y-65873333D02*
X121837380Y-65206666D01*
X122837380Y-65635238D01*
X96142380Y-116784285D02*
X95142380Y-116784285D01*
X95142380Y-116403333D01*
X95190000Y-116308095D01*
X95237619Y-116260476D01*
X95332857Y-116212857D01*
X95475714Y-116212857D01*
X95570952Y-116260476D01*
X95618571Y-116308095D01*
X95666190Y-116403333D01*
X95666190Y-116784285D01*
X96094761Y-115831904D02*
X96142380Y-115689047D01*
X96142380Y-115450952D01*
X96094761Y-115355714D01*
X96047142Y-115308095D01*
X95951904Y-115260476D01*
X95856666Y-115260476D01*
X95761428Y-115308095D01*
X95713809Y-115355714D01*
X95666190Y-115450952D01*
X95618571Y-115641428D01*
X95570952Y-115736666D01*
X95523333Y-115784285D01*
X95428095Y-115831904D01*
X95332857Y-115831904D01*
X95237619Y-115784285D01*
X95190000Y-115736666D01*
X95142380Y-115641428D01*
X95142380Y-115403333D01*
X95190000Y-115260476D01*
X96142380Y-114308095D02*
X96142380Y-114879523D01*
X96142380Y-114593809D02*
X95142380Y-114593809D01*
X95285238Y-114689047D01*
X95380476Y-114784285D01*
X95428095Y-114879523D01*
X162387380Y-64238095D02*
X161387380Y-64238095D01*
X162387380Y-63666666D02*
X161815952Y-64095238D01*
X161387380Y-63666666D02*
X161958809Y-64238095D01*
X161720714Y-62809523D02*
X162387380Y-62809523D01*
X161339761Y-63047619D02*
X162054047Y-63285714D01*
X162054047Y-62666666D01*
X162387380Y-117578095D02*
X161387380Y-117578095D01*
X162387380Y-117006666D02*
X161815952Y-117435238D01*
X161387380Y-117006666D02*
X161958809Y-117578095D01*
X162387380Y-116054285D02*
X162387380Y-116625714D01*
X162387380Y-116340000D02*
X161387380Y-116340000D01*
X161530238Y-116435238D01*
X161625476Y-116530476D01*
X161673095Y-116625714D01*
X131905476Y-56292380D02*
X131905476Y-57006666D01*
X131857857Y-57149523D01*
X131762619Y-57244761D01*
X131619761Y-57292380D01*
X131524523Y-57292380D01*
X132905476Y-57292380D02*
X132334047Y-57292380D01*
X132619761Y-57292380D02*
X132619761Y-56292380D01*
X132524523Y-56435238D01*
X132429285Y-56530476D01*
X132334047Y-56578095D01*
X133476904Y-56720952D02*
X133381666Y-56673333D01*
X133334047Y-56625714D01*
X133286428Y-56530476D01*
X133286428Y-56482857D01*
X133334047Y-56387619D01*
X133381666Y-56340000D01*
X133476904Y-56292380D01*
X133667380Y-56292380D01*
X133762619Y-56340000D01*
X133810238Y-56387619D01*
X133857857Y-56482857D01*
X133857857Y-56530476D01*
X133810238Y-56625714D01*
X133762619Y-56673333D01*
X133667380Y-56720952D01*
X133476904Y-56720952D01*
X133381666Y-56768571D01*
X133334047Y-56816190D01*
X133286428Y-56911428D01*
X133286428Y-57101904D01*
X133334047Y-57197142D01*
X133381666Y-57244761D01*
X133476904Y-57292380D01*
X133667380Y-57292380D01*
X133762619Y-57244761D01*
X133810238Y-57197142D01*
X133857857Y-57101904D01*
X133857857Y-56911428D01*
X133810238Y-56816190D01*
X133762619Y-56768571D01*
X133667380Y-56720952D01*
X139525476Y-56292380D02*
X139525476Y-57006666D01*
X139477857Y-57149523D01*
X139382619Y-57244761D01*
X139239761Y-57292380D01*
X139144523Y-57292380D01*
X140525476Y-57292380D02*
X139954047Y-57292380D01*
X140239761Y-57292380D02*
X140239761Y-56292380D01*
X140144523Y-56435238D01*
X140049285Y-56530476D01*
X139954047Y-56578095D01*
X141382619Y-56292380D02*
X141192142Y-56292380D01*
X141096904Y-56340000D01*
X141049285Y-56387619D01*
X140954047Y-56530476D01*
X140906428Y-56720952D01*
X140906428Y-57101904D01*
X140954047Y-57197142D01*
X141001666Y-57244761D01*
X141096904Y-57292380D01*
X141287380Y-57292380D01*
X141382619Y-57244761D01*
X141430238Y-57197142D01*
X141477857Y-57101904D01*
X141477857Y-56863809D01*
X141430238Y-56768571D01*
X141382619Y-56720952D01*
X141287380Y-56673333D01*
X141096904Y-56673333D01*
X141001666Y-56720952D01*
X140954047Y-56768571D01*
X140906428Y-56863809D01*
X147145476Y-56292380D02*
X147145476Y-57006666D01*
X147097857Y-57149523D01*
X147002619Y-57244761D01*
X146859761Y-57292380D01*
X146764523Y-57292380D01*
X148145476Y-57292380D02*
X147574047Y-57292380D01*
X147859761Y-57292380D02*
X147859761Y-56292380D01*
X147764523Y-56435238D01*
X147669285Y-56530476D01*
X147574047Y-56578095D01*
X149002619Y-56625714D02*
X149002619Y-57292380D01*
X148764523Y-56244761D02*
X148526428Y-56959047D01*
X149145476Y-56959047D01*
X187437380Y-82089523D02*
X188151666Y-82089523D01*
X188294523Y-82137142D01*
X188389761Y-82232380D01*
X188437380Y-82375238D01*
X188437380Y-82470476D01*
X188437380Y-81089523D02*
X188437380Y-81660952D01*
X188437380Y-81375238D02*
X187437380Y-81375238D01*
X187580238Y-81470476D01*
X187675476Y-81565714D01*
X187723095Y-81660952D01*
X187532619Y-80708571D02*
X187485000Y-80660952D01*
X187437380Y-80565714D01*
X187437380Y-80327619D01*
X187485000Y-80232380D01*
X187532619Y-80184761D01*
X187627857Y-80137142D01*
X187723095Y-80137142D01*
X187865952Y-80184761D01*
X188437380Y-80756190D01*
X188437380Y-80137142D01*
X187437380Y-99869523D02*
X188151666Y-99869523D01*
X188294523Y-99917142D01*
X188389761Y-100012380D01*
X188437380Y-100155238D01*
X188437380Y-100250476D01*
X188437380Y-98869523D02*
X188437380Y-99440952D01*
X188437380Y-99155238D02*
X187437380Y-99155238D01*
X187580238Y-99250476D01*
X187675476Y-99345714D01*
X187723095Y-99440952D01*
X188437380Y-97917142D02*
X188437380Y-98488571D01*
X188437380Y-98202857D02*
X187437380Y-98202857D01*
X187580238Y-98298095D01*
X187675476Y-98393333D01*
X187723095Y-98488571D01*
X154765476Y-56292380D02*
X154765476Y-57006666D01*
X154717857Y-57149523D01*
X154622619Y-57244761D01*
X154479761Y-57292380D01*
X154384523Y-57292380D01*
X155765476Y-57292380D02*
X155194047Y-57292380D01*
X155479761Y-57292380D02*
X155479761Y-56292380D01*
X155384523Y-56435238D01*
X155289285Y-56530476D01*
X155194047Y-56578095D01*
X156384523Y-56292380D02*
X156479761Y-56292380D01*
X156575000Y-56340000D01*
X156622619Y-56387619D01*
X156670238Y-56482857D01*
X156717857Y-56673333D01*
X156717857Y-56911428D01*
X156670238Y-57101904D01*
X156622619Y-57197142D01*
X156575000Y-57244761D01*
X156479761Y-57292380D01*
X156384523Y-57292380D01*
X156289285Y-57244761D01*
X156241666Y-57197142D01*
X156194047Y-57101904D01*
X156146428Y-56911428D01*
X156146428Y-56673333D01*
X156194047Y-56482857D01*
X156241666Y-56387619D01*
X156289285Y-56340000D01*
X156384523Y-56292380D01*
X124761666Y-56292380D02*
X124761666Y-57006666D01*
X124714047Y-57149523D01*
X124618809Y-57244761D01*
X124475952Y-57292380D01*
X124380714Y-57292380D01*
X125380714Y-56720952D02*
X125285476Y-56673333D01*
X125237857Y-56625714D01*
X125190238Y-56530476D01*
X125190238Y-56482857D01*
X125237857Y-56387619D01*
X125285476Y-56340000D01*
X125380714Y-56292380D01*
X125571190Y-56292380D01*
X125666428Y-56340000D01*
X125714047Y-56387619D01*
X125761666Y-56482857D01*
X125761666Y-56530476D01*
X125714047Y-56625714D01*
X125666428Y-56673333D01*
X125571190Y-56720952D01*
X125380714Y-56720952D01*
X125285476Y-56768571D01*
X125237857Y-56816190D01*
X125190238Y-56911428D01*
X125190238Y-57101904D01*
X125237857Y-57197142D01*
X125285476Y-57244761D01*
X125380714Y-57292380D01*
X125571190Y-57292380D01*
X125666428Y-57244761D01*
X125714047Y-57197142D01*
X125761666Y-57101904D01*
X125761666Y-56911428D01*
X125714047Y-56816190D01*
X125666428Y-56768571D01*
X125571190Y-56720952D01*
X100631666Y-75862380D02*
X100631666Y-76576666D01*
X100584047Y-76719523D01*
X100488809Y-76814761D01*
X100345952Y-76862380D01*
X100250714Y-76862380D01*
X101536428Y-76195714D02*
X101536428Y-76862380D01*
X101298333Y-75814761D02*
X101060238Y-76529047D01*
X101679285Y-76529047D01*
X108251666Y-54087380D02*
X108251666Y-54801666D01*
X108204047Y-54944523D01*
X108108809Y-55039761D01*
X107965952Y-55087380D01*
X107870714Y-55087380D01*
X108632619Y-54087380D02*
X109251666Y-54087380D01*
X108918333Y-54468333D01*
X109061190Y-54468333D01*
X109156428Y-54515952D01*
X109204047Y-54563571D01*
X109251666Y-54658809D01*
X109251666Y-54896904D01*
X109204047Y-54992142D01*
X109156428Y-55039761D01*
X109061190Y-55087380D01*
X108775476Y-55087380D01*
X108680238Y-55039761D01*
X108632619Y-54992142D01*
X110791666Y-70342380D02*
X110791666Y-71056666D01*
X110744047Y-71199523D01*
X110648809Y-71294761D01*
X110505952Y-71342380D01*
X110410714Y-71342380D01*
X111791666Y-71342380D02*
X111220238Y-71342380D01*
X111505952Y-71342380D02*
X111505952Y-70342380D01*
X111410714Y-70485238D01*
X111315476Y-70580476D01*
X111220238Y-70628095D01*
X96843571Y-82683333D02*
X96843571Y-83016666D01*
X97367380Y-83016666D02*
X96367380Y-83016666D01*
X96367380Y-82540476D01*
X97367380Y-81635714D02*
X97367380Y-82207142D01*
X97367380Y-81921428D02*
X96367380Y-81921428D01*
X96510238Y-82016666D01*
X96605476Y-82111904D01*
X96653095Y-82207142D01*
X93072380Y-116308095D02*
X92072380Y-116308095D01*
X92072380Y-116070000D01*
X92120000Y-115927142D01*
X92215238Y-115831904D01*
X92310476Y-115784285D01*
X92500952Y-115736666D01*
X92643809Y-115736666D01*
X92834285Y-115784285D01*
X92929523Y-115831904D01*
X93024761Y-115927142D01*
X93072380Y-116070000D01*
X93072380Y-116308095D01*
X92072380Y-115403333D02*
X92072380Y-114784285D01*
X92453333Y-115117619D01*
X92453333Y-114974761D01*
X92500952Y-114879523D01*
X92548571Y-114831904D01*
X92643809Y-114784285D01*
X92881904Y-114784285D01*
X92977142Y-114831904D01*
X93024761Y-114879523D01*
X93072380Y-114974761D01*
X93072380Y-115260476D01*
X93024761Y-115355714D01*
X92977142Y-115403333D01*
X91952380Y-108211904D02*
X90952380Y-108211904D01*
X91952380Y-107640476D02*
X91380952Y-108069047D01*
X90952380Y-107640476D02*
X91523809Y-108211904D01*
X145946904Y-106402380D02*
X145946904Y-105402380D01*
X146185000Y-105402380D01*
X146327857Y-105450000D01*
X146423095Y-105545238D01*
X146470714Y-105640476D01*
X146518333Y-105830952D01*
X146518333Y-105973809D01*
X146470714Y-106164285D01*
X146423095Y-106259523D01*
X146327857Y-106354761D01*
X146185000Y-106402380D01*
X145946904Y-106402380D01*
X146899285Y-105497619D02*
X146946904Y-105450000D01*
X147042142Y-105402380D01*
X147280238Y-105402380D01*
X147375476Y-105450000D01*
X147423095Y-105497619D01*
X147470714Y-105592857D01*
X147470714Y-105688095D01*
X147423095Y-105830952D01*
X146851666Y-106402380D01*
X147470714Y-106402380D01*
X135232142Y-70016666D02*
X135279761Y-70064285D01*
X135327380Y-70207142D01*
X135327380Y-70302380D01*
X135279761Y-70445238D01*
X135184523Y-70540476D01*
X135089285Y-70588095D01*
X134898809Y-70635714D01*
X134755952Y-70635714D01*
X134565476Y-70588095D01*
X134470238Y-70540476D01*
X134375000Y-70445238D01*
X134327380Y-70302380D01*
X134327380Y-70207142D01*
X134375000Y-70064285D01*
X134422619Y-70016666D01*
X134660714Y-69159523D02*
X135327380Y-69159523D01*
X134279761Y-69397619D02*
X134994047Y-69635714D01*
X134994047Y-69016666D01*
X140312142Y-70016666D02*
X140359761Y-70064285D01*
X140407380Y-70207142D01*
X140407380Y-70302380D01*
X140359761Y-70445238D01*
X140264523Y-70540476D01*
X140169285Y-70588095D01*
X139978809Y-70635714D01*
X139835952Y-70635714D01*
X139645476Y-70588095D01*
X139550238Y-70540476D01*
X139455000Y-70445238D01*
X139407380Y-70302380D01*
X139407380Y-70207142D01*
X139455000Y-70064285D01*
X139502619Y-70016666D01*
X139407380Y-69683333D02*
X139407380Y-69064285D01*
X139788333Y-69397619D01*
X139788333Y-69254761D01*
X139835952Y-69159523D01*
X139883571Y-69111904D01*
X139978809Y-69064285D01*
X140216904Y-69064285D01*
X140312142Y-69111904D01*
X140359761Y-69159523D01*
X140407380Y-69254761D01*
X140407380Y-69540476D01*
X140359761Y-69635714D01*
X140312142Y-69683333D01*
X142852142Y-70016666D02*
X142899761Y-70064285D01*
X142947380Y-70207142D01*
X142947380Y-70302380D01*
X142899761Y-70445238D01*
X142804523Y-70540476D01*
X142709285Y-70588095D01*
X142518809Y-70635714D01*
X142375952Y-70635714D01*
X142185476Y-70588095D01*
X142090238Y-70540476D01*
X141995000Y-70445238D01*
X141947380Y-70302380D01*
X141947380Y-70207142D01*
X141995000Y-70064285D01*
X142042619Y-70016666D01*
X142042619Y-69635714D02*
X141995000Y-69588095D01*
X141947380Y-69492857D01*
X141947380Y-69254761D01*
X141995000Y-69159523D01*
X142042619Y-69111904D01*
X142137857Y-69064285D01*
X142233095Y-69064285D01*
X142375952Y-69111904D01*
X142947380Y-69683333D01*
X142947380Y-69064285D01*
X147932142Y-70016666D02*
X147979761Y-70064285D01*
X148027380Y-70207142D01*
X148027380Y-70302380D01*
X147979761Y-70445238D01*
X147884523Y-70540476D01*
X147789285Y-70588095D01*
X147598809Y-70635714D01*
X147455952Y-70635714D01*
X147265476Y-70588095D01*
X147170238Y-70540476D01*
X147075000Y-70445238D01*
X147027380Y-70302380D01*
X147027380Y-70207142D01*
X147075000Y-70064285D01*
X147122619Y-70016666D01*
X148027380Y-69064285D02*
X148027380Y-69635714D01*
X148027380Y-69350000D02*
X147027380Y-69350000D01*
X147170238Y-69445238D01*
X147265476Y-69540476D01*
X147313095Y-69635714D01*
M02*
