%TF.GenerationSoftware,KiCad,Pcbnew,5.1.4+dfsg1-1*%
%TF.CreationDate,2019-12-03T13:40:21+10:00*%
%TF.ProjectId,Actuators,41637475-6174-46f7-9273-2e6b69636164,1*%
%TF.SameCoordinates,Original*%
%TF.FileFunction,Legend,Top*%
%TF.FilePolarity,Positive*%
%FSLAX46Y46*%
G04 Gerber Fmt 4.6, Leading zero omitted, Abs format (unit mm)*
G04 Created by KiCad (PCBNEW 5.1.4+dfsg1-1) date 2019-12-03 13:40:21*
%MOMM*%
%LPD*%
G04 APERTURE LIST*
%ADD10C,0.300000*%
%ADD11C,0.120000*%
%ADD12C,0.150000*%
G04 APERTURE END LIST*
D10*
X87140000Y-69115714D02*
X87068571Y-69187142D01*
X86854285Y-69258571D01*
X86711428Y-69258571D01*
X86497142Y-69187142D01*
X86354285Y-69044285D01*
X86282857Y-68901428D01*
X86211428Y-68615714D01*
X86211428Y-68401428D01*
X86282857Y-68115714D01*
X86354285Y-67972857D01*
X86497142Y-67830000D01*
X86711428Y-67758571D01*
X86854285Y-67758571D01*
X87068571Y-67830000D01*
X87140000Y-67901428D01*
X87997142Y-69258571D02*
X87854285Y-69187142D01*
X87782857Y-69115714D01*
X87711428Y-68972857D01*
X87711428Y-68544285D01*
X87782857Y-68401428D01*
X87854285Y-68330000D01*
X87997142Y-68258571D01*
X88211428Y-68258571D01*
X88354285Y-68330000D01*
X88425714Y-68401428D01*
X88497142Y-68544285D01*
X88497142Y-68972857D01*
X88425714Y-69115714D01*
X88354285Y-69187142D01*
X88211428Y-69258571D01*
X87997142Y-69258571D01*
X89782857Y-69258571D02*
X89782857Y-67758571D01*
X89782857Y-69187142D02*
X89640000Y-69258571D01*
X89354285Y-69258571D01*
X89211428Y-69187142D01*
X89140000Y-69115714D01*
X89068571Y-68972857D01*
X89068571Y-68544285D01*
X89140000Y-68401428D01*
X89211428Y-68330000D01*
X89354285Y-68258571D01*
X89640000Y-68258571D01*
X89782857Y-68330000D01*
X91140000Y-69258571D02*
X91140000Y-68472857D01*
X91068571Y-68330000D01*
X90925714Y-68258571D01*
X90640000Y-68258571D01*
X90497142Y-68330000D01*
X91140000Y-69187142D02*
X90997142Y-69258571D01*
X90640000Y-69258571D01*
X90497142Y-69187142D01*
X90425714Y-69044285D01*
X90425714Y-68901428D01*
X90497142Y-68758571D01*
X90640000Y-68687142D01*
X90997142Y-68687142D01*
X91140000Y-68615714D01*
X92925714Y-68830000D02*
X93640000Y-68830000D01*
X92782857Y-69258571D02*
X93282857Y-67758571D01*
X93782857Y-69258571D01*
X94925714Y-68258571D02*
X94925714Y-69258571D01*
X94282857Y-68258571D02*
X94282857Y-69044285D01*
X94354285Y-69187142D01*
X94497142Y-69258571D01*
X94711428Y-69258571D01*
X94854285Y-69187142D01*
X94925714Y-69115714D01*
X95425714Y-68258571D02*
X95997142Y-68258571D01*
X95640000Y-67758571D02*
X95640000Y-69044285D01*
X95711428Y-69187142D01*
X95854285Y-69258571D01*
X95997142Y-69258571D01*
X96711428Y-69258571D02*
X96568571Y-69187142D01*
X96497142Y-69115714D01*
X96425714Y-68972857D01*
X96425714Y-68544285D01*
X96497142Y-68401428D01*
X96568571Y-68330000D01*
X96711428Y-68258571D01*
X96925714Y-68258571D01*
X97068571Y-68330000D01*
X97140000Y-68401428D01*
X97211428Y-68544285D01*
X97211428Y-68972857D01*
X97140000Y-69115714D01*
X97068571Y-69187142D01*
X96925714Y-69258571D01*
X96711428Y-69258571D01*
X97854285Y-69258571D02*
X97854285Y-68258571D01*
X97854285Y-68401428D02*
X97925714Y-68330000D01*
X98068571Y-68258571D01*
X98282857Y-68258571D01*
X98425714Y-68330000D01*
X98497142Y-68472857D01*
X98497142Y-69258571D01*
X98497142Y-68472857D02*
X98568571Y-68330000D01*
X98711428Y-68258571D01*
X98925714Y-68258571D01*
X99068571Y-68330000D01*
X99140000Y-68472857D01*
X99140000Y-69258571D01*
X100497142Y-69258571D02*
X100497142Y-68472857D01*
X100425714Y-68330000D01*
X100282857Y-68258571D01*
X99997142Y-68258571D01*
X99854285Y-68330000D01*
X100497142Y-69187142D02*
X100354285Y-69258571D01*
X99997142Y-69258571D01*
X99854285Y-69187142D01*
X99782857Y-69044285D01*
X99782857Y-68901428D01*
X99854285Y-68758571D01*
X99997142Y-68687142D01*
X100354285Y-68687142D01*
X100497142Y-68615714D01*
X100997142Y-68258571D02*
X101568571Y-68258571D01*
X101211428Y-67758571D02*
X101211428Y-69044285D01*
X101282857Y-69187142D01*
X101425714Y-69258571D01*
X101568571Y-69258571D01*
X102068571Y-69258571D02*
X102068571Y-68258571D01*
X102068571Y-67758571D02*
X101997142Y-67830000D01*
X102068571Y-67901428D01*
X102140000Y-67830000D01*
X102068571Y-67758571D01*
X102068571Y-67901428D01*
X102997142Y-69258571D02*
X102854285Y-69187142D01*
X102782857Y-69115714D01*
X102711428Y-68972857D01*
X102711428Y-68544285D01*
X102782857Y-68401428D01*
X102854285Y-68330000D01*
X102997142Y-68258571D01*
X103211428Y-68258571D01*
X103354285Y-68330000D01*
X103425714Y-68401428D01*
X103497142Y-68544285D01*
X103497142Y-68972857D01*
X103425714Y-69115714D01*
X103354285Y-69187142D01*
X103211428Y-69258571D01*
X102997142Y-69258571D01*
X104140000Y-68258571D02*
X104140000Y-69258571D01*
X104140000Y-68401428D02*
X104211428Y-68330000D01*
X104354285Y-68258571D01*
X104568571Y-68258571D01*
X104711428Y-68330000D01*
X104782857Y-68472857D01*
X104782857Y-69258571D01*
X107854285Y-69258571D02*
X107782857Y-69258571D01*
X107640000Y-69187142D01*
X107425714Y-68972857D01*
X107068571Y-68544285D01*
X106925714Y-68330000D01*
X106854285Y-68115714D01*
X106854285Y-67972857D01*
X106925714Y-67830000D01*
X107068571Y-67758571D01*
X107140000Y-67758571D01*
X107282857Y-67830000D01*
X107354285Y-67972857D01*
X107354285Y-68044285D01*
X107282857Y-68187142D01*
X107211428Y-68258571D01*
X106782857Y-68544285D01*
X106711428Y-68615714D01*
X106640000Y-68758571D01*
X106640000Y-68972857D01*
X106711428Y-69115714D01*
X106782857Y-69187142D01*
X106925714Y-69258571D01*
X107140000Y-69258571D01*
X107282857Y-69187142D01*
X107354285Y-69115714D01*
X107568571Y-68830000D01*
X107640000Y-68615714D01*
X107640000Y-68472857D01*
X109640000Y-68472857D02*
X110140000Y-68472857D01*
X110354285Y-69258571D02*
X109640000Y-69258571D01*
X109640000Y-67758571D01*
X110354285Y-67758571D01*
X110997142Y-68258571D02*
X110997142Y-69258571D01*
X110997142Y-68401428D02*
X111068571Y-68330000D01*
X111211428Y-68258571D01*
X111425714Y-68258571D01*
X111568571Y-68330000D01*
X111640000Y-68472857D01*
X111640000Y-69258571D01*
X112997142Y-68258571D02*
X112997142Y-69472857D01*
X112925714Y-69615714D01*
X112854285Y-69687142D01*
X112711428Y-69758571D01*
X112497142Y-69758571D01*
X112354285Y-69687142D01*
X112997142Y-69187142D02*
X112854285Y-69258571D01*
X112568571Y-69258571D01*
X112425714Y-69187142D01*
X112354285Y-69115714D01*
X112282857Y-68972857D01*
X112282857Y-68544285D01*
X112354285Y-68401428D01*
X112425714Y-68330000D01*
X112568571Y-68258571D01*
X112854285Y-68258571D01*
X112997142Y-68330000D01*
X113711428Y-69258571D02*
X113711428Y-68258571D01*
X113711428Y-67758571D02*
X113640000Y-67830000D01*
X113711428Y-67901428D01*
X113782857Y-67830000D01*
X113711428Y-67758571D01*
X113711428Y-67901428D01*
X114425714Y-68258571D02*
X114425714Y-69258571D01*
X114425714Y-68401428D02*
X114497142Y-68330000D01*
X114640000Y-68258571D01*
X114854285Y-68258571D01*
X114997142Y-68330000D01*
X115068571Y-68472857D01*
X115068571Y-69258571D01*
X116354285Y-69187142D02*
X116211428Y-69258571D01*
X115925714Y-69258571D01*
X115782857Y-69187142D01*
X115711428Y-69044285D01*
X115711428Y-68472857D01*
X115782857Y-68330000D01*
X115925714Y-68258571D01*
X116211428Y-68258571D01*
X116354285Y-68330000D01*
X116425714Y-68472857D01*
X116425714Y-68615714D01*
X115711428Y-68758571D01*
X117640000Y-69187142D02*
X117497142Y-69258571D01*
X117211428Y-69258571D01*
X117068571Y-69187142D01*
X116997142Y-69044285D01*
X116997142Y-68472857D01*
X117068571Y-68330000D01*
X117211428Y-68258571D01*
X117497142Y-68258571D01*
X117640000Y-68330000D01*
X117711428Y-68472857D01*
X117711428Y-68615714D01*
X116997142Y-68758571D01*
X118354285Y-69258571D02*
X118354285Y-68258571D01*
X118354285Y-68544285D02*
X118425714Y-68401428D01*
X118497142Y-68330000D01*
X118640000Y-68258571D01*
X118782857Y-68258571D01*
X119282857Y-69258571D02*
X119282857Y-68258571D01*
X119282857Y-67758571D02*
X119211428Y-67830000D01*
X119282857Y-67901428D01*
X119354285Y-67830000D01*
X119282857Y-67758571D01*
X119282857Y-67901428D01*
X119997142Y-68258571D02*
X119997142Y-69258571D01*
X119997142Y-68401428D02*
X120068571Y-68330000D01*
X120211428Y-68258571D01*
X120425714Y-68258571D01*
X120568571Y-68330000D01*
X120640000Y-68472857D01*
X120640000Y-69258571D01*
X121997142Y-68258571D02*
X121997142Y-69472857D01*
X121925714Y-69615714D01*
X121854285Y-69687142D01*
X121711428Y-69758571D01*
X121497142Y-69758571D01*
X121354285Y-69687142D01*
X121997142Y-69187142D02*
X121854285Y-69258571D01*
X121568571Y-69258571D01*
X121425714Y-69187142D01*
X121354285Y-69115714D01*
X121282857Y-68972857D01*
X121282857Y-68544285D01*
X121354285Y-68401428D01*
X121425714Y-68330000D01*
X121568571Y-68258571D01*
X121854285Y-68258571D01*
X121997142Y-68330000D01*
D11*
X100440000Y-114770000D02*
X99840000Y-114770000D01*
X100440000Y-116370000D02*
X100440000Y-114770000D01*
X99840000Y-116370000D02*
X100440000Y-116370000D01*
X100440000Y-117310000D02*
X99840000Y-117310000D01*
X100440000Y-118910000D02*
X100440000Y-117310000D01*
X99840000Y-118910000D02*
X100440000Y-118910000D01*
X105860000Y-115820000D02*
X104860000Y-115820000D01*
X105860000Y-117860000D02*
X104860000Y-117860000D01*
X104330000Y-115820000D02*
X104860000Y-115570000D01*
X104330000Y-117860000D02*
X104330000Y-115820000D01*
X104860000Y-118110000D02*
X104330000Y-117860000D01*
X104860000Y-115570000D02*
X105860000Y-115570000D01*
X104860000Y-118110000D02*
X104860000Y-115570000D01*
X105860000Y-118110000D02*
X104860000Y-118110000D01*
X100870000Y-119780000D02*
X104870000Y-119780000D01*
X99840000Y-114190000D02*
X99840000Y-119490000D01*
X105860000Y-114190000D02*
X99840000Y-114190000D01*
X105860000Y-119490000D02*
X105860000Y-114190000D01*
X99840000Y-119490000D02*
X105860000Y-119490000D01*
X150960000Y-91670000D02*
X150960000Y-73430000D01*
X150960000Y-73430000D02*
X120820000Y-73430000D01*
X120820000Y-73430000D02*
X120820000Y-79510000D01*
X120820000Y-79510000D02*
X121180000Y-79510000D01*
X121180000Y-79510000D02*
X121180000Y-85589999D01*
X121180000Y-85589999D02*
X120820000Y-85589999D01*
X121920000Y-91670000D02*
X150960000Y-91670000D01*
X120820000Y-85589999D02*
X120820000Y-90551000D01*
X120820000Y-90551000D02*
X121920000Y-91670000D01*
X156200000Y-118720000D02*
X156200000Y-77460000D01*
X171460000Y-77460000D02*
X171460000Y-118720000D01*
X156200000Y-77460000D02*
X161830000Y-77460000D01*
X165830000Y-77460000D02*
X171460000Y-77460000D01*
X156200000Y-118720000D02*
X161830000Y-118720000D01*
X165830000Y-118720000D02*
X171460000Y-118720000D01*
X100440000Y-107150000D02*
X99840000Y-107150000D01*
X100440000Y-108750000D02*
X100440000Y-107150000D01*
X99840000Y-108750000D02*
X100440000Y-108750000D01*
X100440000Y-109690000D02*
X99840000Y-109690000D01*
X100440000Y-111290000D02*
X100440000Y-109690000D01*
X99840000Y-111290000D02*
X100440000Y-111290000D01*
X105860000Y-108200000D02*
X104860000Y-108200000D01*
X105860000Y-110240000D02*
X104860000Y-110240000D01*
X104330000Y-108200000D02*
X104860000Y-107950000D01*
X104330000Y-110240000D02*
X104330000Y-108200000D01*
X104860000Y-110490000D02*
X104330000Y-110240000D01*
X104860000Y-107950000D02*
X105860000Y-107950000D01*
X104860000Y-110490000D02*
X104860000Y-107950000D01*
X105860000Y-110490000D02*
X104860000Y-110490000D01*
X100870000Y-112160000D02*
X104870000Y-112160000D01*
X99840000Y-106570000D02*
X99840000Y-111870000D01*
X105860000Y-106570000D02*
X99840000Y-106570000D01*
X105860000Y-111870000D02*
X105860000Y-106570000D01*
X99840000Y-111870000D02*
X105860000Y-111870000D01*
X100440000Y-99530000D02*
X99840000Y-99530000D01*
X100440000Y-101130000D02*
X100440000Y-99530000D01*
X99840000Y-101130000D02*
X100440000Y-101130000D01*
X100440000Y-102070000D02*
X99840000Y-102070000D01*
X100440000Y-103670000D02*
X100440000Y-102070000D01*
X99840000Y-103670000D02*
X100440000Y-103670000D01*
X105860000Y-100580000D02*
X104860000Y-100580000D01*
X105860000Y-102620000D02*
X104860000Y-102620000D01*
X104330000Y-100580000D02*
X104860000Y-100330000D01*
X104330000Y-102620000D02*
X104330000Y-100580000D01*
X104860000Y-102870000D02*
X104330000Y-102620000D01*
X104860000Y-100330000D02*
X105860000Y-100330000D01*
X104860000Y-102870000D02*
X104860000Y-100330000D01*
X105860000Y-102870000D02*
X104860000Y-102870000D01*
X100870000Y-104540000D02*
X104870000Y-104540000D01*
X99840000Y-98950000D02*
X99840000Y-104250000D01*
X105860000Y-98950000D02*
X99840000Y-98950000D01*
X105860000Y-104250000D02*
X105860000Y-98950000D01*
X99840000Y-104250000D02*
X105860000Y-104250000D01*
X87400000Y-118110000D02*
X88170000Y-118110000D01*
X95480000Y-118110000D02*
X94710000Y-118110000D01*
X88170000Y-119480000D02*
X94710000Y-119480000D01*
X88170000Y-116740000D02*
X88170000Y-119480000D01*
X94710000Y-116740000D02*
X88170000Y-116740000D01*
X94710000Y-119480000D02*
X94710000Y-116740000D01*
X87400000Y-110490000D02*
X88170000Y-110490000D01*
X95480000Y-110490000D02*
X94710000Y-110490000D01*
X88170000Y-111860000D02*
X94710000Y-111860000D01*
X88170000Y-109120000D02*
X88170000Y-111860000D01*
X94710000Y-109120000D02*
X88170000Y-109120000D01*
X94710000Y-111860000D02*
X94710000Y-109120000D01*
X87400000Y-102870000D02*
X88170000Y-102870000D01*
X95480000Y-102870000D02*
X94710000Y-102870000D01*
X88170000Y-104240000D02*
X94710000Y-104240000D01*
X88170000Y-101500000D02*
X88170000Y-104240000D01*
X94710000Y-101500000D02*
X88170000Y-101500000D01*
X94710000Y-104240000D02*
X94710000Y-101500000D01*
X87330000Y-65290000D02*
X87830000Y-65290000D01*
X87330000Y-64550000D02*
X87330000Y-65290000D01*
X93992000Y-60682000D02*
X93597000Y-61078000D01*
X96638000Y-58036000D02*
X96258000Y-58416000D01*
X94243000Y-60964000D02*
X93863000Y-61344000D01*
X96904000Y-58302000D02*
X96509000Y-58698000D01*
X88622000Y-60971000D02*
X88516000Y-61078000D01*
X91558000Y-58036000D02*
X91451000Y-58143000D01*
X88888000Y-61237000D02*
X88782000Y-61344000D01*
X91824000Y-58302000D02*
X91717000Y-58409000D01*
X97850000Y-53730000D02*
X97850000Y-65050000D01*
X87570000Y-53730000D02*
X87570000Y-65050000D01*
X87570000Y-65050000D02*
X97850000Y-65050000D01*
X87570000Y-53730000D02*
X97850000Y-53730000D01*
X87570000Y-55790000D02*
X97850000Y-55790000D01*
X87570000Y-61990000D02*
X97850000Y-61990000D01*
X87570000Y-64490000D02*
X97850000Y-64490000D01*
X97430000Y-59690000D02*
G75*
G03X97430000Y-59690000I-2180000J0D01*
G01*
X92350000Y-59690000D02*
G75*
G03X92350000Y-59690000I-2180000J0D01*
G01*
X157180000Y-65290000D02*
X157680000Y-65290000D01*
X157180000Y-64550000D02*
X157180000Y-65290000D01*
X163842000Y-60682000D02*
X163447000Y-61078000D01*
X166488000Y-58036000D02*
X166108000Y-58416000D01*
X164093000Y-60964000D02*
X163713000Y-61344000D01*
X166754000Y-58302000D02*
X166359000Y-58698000D01*
X158472000Y-60971000D02*
X158366000Y-61078000D01*
X161408000Y-58036000D02*
X161301000Y-58143000D01*
X158738000Y-61237000D02*
X158632000Y-61344000D01*
X161674000Y-58302000D02*
X161567000Y-58409000D01*
X167700000Y-53730000D02*
X167700000Y-65050000D01*
X157420000Y-53730000D02*
X157420000Y-65050000D01*
X157420000Y-65050000D02*
X167700000Y-65050000D01*
X157420000Y-53730000D02*
X167700000Y-53730000D01*
X157420000Y-55790000D02*
X167700000Y-55790000D01*
X157420000Y-61990000D02*
X167700000Y-61990000D01*
X157420000Y-64490000D02*
X167700000Y-64490000D01*
X167280000Y-59690000D02*
G75*
G03X167280000Y-59690000I-2180000J0D01*
G01*
X162200000Y-59690000D02*
G75*
G03X162200000Y-59690000I-2180000J0D01*
G01*
X98020000Y-91440000D02*
X97250000Y-91440000D01*
X89940000Y-91440000D02*
X90710000Y-91440000D01*
X97250000Y-90070000D02*
X90710000Y-90070000D01*
X97250000Y-92810000D02*
X97250000Y-90070000D01*
X90710000Y-92810000D02*
X97250000Y-92810000D01*
X90710000Y-90070000D02*
X90710000Y-92810000D01*
X115800000Y-87630000D02*
X115030000Y-87630000D01*
X107720000Y-87630000D02*
X108490000Y-87630000D01*
X115030000Y-86260000D02*
X108490000Y-86260000D01*
X115030000Y-89000000D02*
X115030000Y-86260000D01*
X108490000Y-89000000D02*
X115030000Y-89000000D01*
X108490000Y-86260000D02*
X108490000Y-89000000D01*
X100030000Y-65290000D02*
X100530000Y-65290000D01*
X100030000Y-64550000D02*
X100030000Y-65290000D01*
X106692000Y-60682000D02*
X106297000Y-61078000D01*
X109338000Y-58036000D02*
X108958000Y-58416000D01*
X106943000Y-60964000D02*
X106563000Y-61344000D01*
X109604000Y-58302000D02*
X109209000Y-58698000D01*
X101322000Y-60971000D02*
X101216000Y-61078000D01*
X104258000Y-58036000D02*
X104151000Y-58143000D01*
X101588000Y-61237000D02*
X101482000Y-61344000D01*
X104524000Y-58302000D02*
X104417000Y-58409000D01*
X110550000Y-53730000D02*
X110550000Y-65050000D01*
X100270000Y-53730000D02*
X100270000Y-65050000D01*
X100270000Y-65050000D02*
X110550000Y-65050000D01*
X100270000Y-53730000D02*
X110550000Y-53730000D01*
X100270000Y-55790000D02*
X110550000Y-55790000D01*
X100270000Y-61990000D02*
X110550000Y-61990000D01*
X100270000Y-64490000D02*
X110550000Y-64490000D01*
X110130000Y-59690000D02*
G75*
G03X110130000Y-59690000I-2180000J0D01*
G01*
X105050000Y-59690000D02*
G75*
G03X105050000Y-59690000I-2180000J0D01*
G01*
X139760000Y-60900000D02*
X139760000Y-62230000D01*
X138430000Y-60900000D02*
X139760000Y-60900000D01*
X137160000Y-60900000D02*
X137160000Y-63560000D01*
X137160000Y-63560000D02*
X119320000Y-63560000D01*
X137160000Y-60900000D02*
X119320000Y-60900000D01*
X119320000Y-60900000D02*
X119320000Y-63560000D01*
X88319000Y-84550000D02*
X88319000Y-83040000D01*
X92020000Y-84550000D02*
X92020000Y-83040000D01*
X95290000Y-83040000D02*
X85050000Y-83040000D01*
X85050000Y-84550000D02*
X85050000Y-79909000D01*
X95290000Y-84550000D02*
X95290000Y-79909000D01*
X95290000Y-79909000D02*
X85050000Y-79909000D01*
X95290000Y-84550000D02*
X85050000Y-84550000D01*
X102289000Y-84550000D02*
X102289000Y-83040000D01*
X105990000Y-84550000D02*
X105990000Y-83040000D01*
X109260000Y-83040000D02*
X99020000Y-83040000D01*
X99020000Y-84550000D02*
X99020000Y-79909000D01*
X109260000Y-84550000D02*
X109260000Y-79909000D01*
X109260000Y-79909000D02*
X99020000Y-79909000D01*
X109260000Y-84550000D02*
X99020000Y-84550000D01*
X152460000Y-115570000D02*
X152460000Y-116900000D01*
X152460000Y-116900000D02*
X151130000Y-116900000D01*
X149860000Y-116900000D02*
X121860000Y-116900000D01*
X121860000Y-114240000D02*
X121860000Y-116900000D01*
X149860000Y-114240000D02*
X121860000Y-114240000D01*
X149860000Y-114240000D02*
X149860000Y-116900000D01*
X152460000Y-100330000D02*
X152460000Y-101660000D01*
X152460000Y-101660000D02*
X151130000Y-101660000D01*
X149860000Y-101660000D02*
X121860000Y-101660000D01*
X121860000Y-99000000D02*
X121860000Y-101660000D01*
X149860000Y-99000000D02*
X121860000Y-99000000D01*
X149860000Y-99000000D02*
X149860000Y-101660000D01*
X167275000Y-75110000D02*
X167275000Y-69670000D01*
X167035000Y-75110000D02*
X167035000Y-69670000D01*
X167155000Y-75110000D02*
X167155000Y-69670000D01*
X158050000Y-72390000D02*
X158960000Y-72390000D01*
X169610000Y-72390000D02*
X168700000Y-72390000D01*
X158960000Y-75110000D02*
X168700000Y-75110000D01*
X158960000Y-69670000D02*
X158960000Y-75110000D01*
X168700000Y-69670000D02*
X158960000Y-69670000D01*
X168700000Y-75110000D02*
X168700000Y-69670000D01*
X93380000Y-75130000D02*
X93380000Y-72190000D01*
X93140000Y-75130000D02*
X93140000Y-72190000D01*
X93260000Y-75130000D02*
X93260000Y-72190000D01*
X87700000Y-73660000D02*
X88720000Y-73660000D01*
X95180000Y-73660000D02*
X94160000Y-73660000D01*
X88720000Y-75130000D02*
X94160000Y-75130000D01*
X88720000Y-72190000D02*
X88720000Y-75130000D01*
X94160000Y-72190000D02*
X88720000Y-72190000D01*
X94160000Y-75130000D02*
X94160000Y-72190000D01*
X107350000Y-75130000D02*
X107350000Y-72190000D01*
X107110000Y-75130000D02*
X107110000Y-72190000D01*
X107230000Y-75130000D02*
X107230000Y-72190000D01*
X101670000Y-73660000D02*
X102690000Y-73660000D01*
X109150000Y-73660000D02*
X108130000Y-73660000D01*
X102690000Y-75130000D02*
X108130000Y-75130000D01*
X102690000Y-72190000D02*
X102690000Y-75130000D01*
X108130000Y-72190000D02*
X102690000Y-72190000D01*
X108130000Y-75130000D02*
X108130000Y-72190000D01*
D12*
X98202380Y-117649523D02*
X98916666Y-117649523D01*
X99059523Y-117697142D01*
X99154761Y-117792380D01*
X99202380Y-117935238D01*
X99202380Y-118030476D01*
X99202380Y-116649523D02*
X99202380Y-117220952D01*
X99202380Y-116935238D02*
X98202380Y-116935238D01*
X98345238Y-117030476D01*
X98440476Y-117125714D01*
X98488095Y-117220952D01*
X98297619Y-116268571D02*
X98250000Y-116220952D01*
X98202380Y-116125714D01*
X98202380Y-115887619D01*
X98250000Y-115792380D01*
X98297619Y-115744761D01*
X98392857Y-115697142D01*
X98488095Y-115697142D01*
X98630952Y-115744761D01*
X99202380Y-116316190D01*
X99202380Y-115697142D01*
X120272380Y-83764285D02*
X119272380Y-83764285D01*
X119272380Y-83383333D01*
X119320000Y-83288095D01*
X119367619Y-83240476D01*
X119462857Y-83192857D01*
X119605714Y-83192857D01*
X119700952Y-83240476D01*
X119748571Y-83288095D01*
X119796190Y-83383333D01*
X119796190Y-83764285D01*
X120224761Y-82811904D02*
X120272380Y-82669047D01*
X120272380Y-82430952D01*
X120224761Y-82335714D01*
X120177142Y-82288095D01*
X120081904Y-82240476D01*
X119986666Y-82240476D01*
X119891428Y-82288095D01*
X119843809Y-82335714D01*
X119796190Y-82430952D01*
X119748571Y-82621428D01*
X119700952Y-82716666D01*
X119653333Y-82764285D01*
X119558095Y-82811904D01*
X119462857Y-82811904D01*
X119367619Y-82764285D01*
X119320000Y-82716666D01*
X119272380Y-82621428D01*
X119272380Y-82383333D01*
X119320000Y-82240476D01*
X120272380Y-81288095D02*
X120272380Y-81859523D01*
X120272380Y-81573809D02*
X119272380Y-81573809D01*
X119415238Y-81669047D01*
X119510476Y-81764285D01*
X119558095Y-81859523D01*
X155108571Y-98323333D02*
X155108571Y-98656666D01*
X155632380Y-98656666D02*
X154632380Y-98656666D01*
X154632380Y-98180476D01*
X155632380Y-97275714D02*
X155632380Y-97847142D01*
X155632380Y-97561428D02*
X154632380Y-97561428D01*
X154775238Y-97656666D01*
X154870476Y-97751904D01*
X154918095Y-97847142D01*
X98202380Y-110029523D02*
X98916666Y-110029523D01*
X99059523Y-110077142D01*
X99154761Y-110172380D01*
X99202380Y-110315238D01*
X99202380Y-110410476D01*
X99202380Y-109029523D02*
X99202380Y-109600952D01*
X99202380Y-109315238D02*
X98202380Y-109315238D01*
X98345238Y-109410476D01*
X98440476Y-109505714D01*
X98488095Y-109600952D01*
X98202380Y-108410476D02*
X98202380Y-108315238D01*
X98250000Y-108220000D01*
X98297619Y-108172380D01*
X98392857Y-108124761D01*
X98583333Y-108077142D01*
X98821428Y-108077142D01*
X99011904Y-108124761D01*
X99107142Y-108172380D01*
X99154761Y-108220000D01*
X99202380Y-108315238D01*
X99202380Y-108410476D01*
X99154761Y-108505714D01*
X99107142Y-108553333D01*
X99011904Y-108600952D01*
X98821428Y-108648571D01*
X98583333Y-108648571D01*
X98392857Y-108600952D01*
X98297619Y-108553333D01*
X98250000Y-108505714D01*
X98202380Y-108410476D01*
X98202380Y-101933333D02*
X98916666Y-101933333D01*
X99059523Y-101980952D01*
X99154761Y-102076190D01*
X99202380Y-102219047D01*
X99202380Y-102314285D01*
X98630952Y-101314285D02*
X98583333Y-101409523D01*
X98535714Y-101457142D01*
X98440476Y-101504761D01*
X98392857Y-101504761D01*
X98297619Y-101457142D01*
X98250000Y-101409523D01*
X98202380Y-101314285D01*
X98202380Y-101123809D01*
X98250000Y-101028571D01*
X98297619Y-100980952D01*
X98392857Y-100933333D01*
X98440476Y-100933333D01*
X98535714Y-100980952D01*
X98583333Y-101028571D01*
X98630952Y-101123809D01*
X98630952Y-101314285D01*
X98678571Y-101409523D01*
X98726190Y-101457142D01*
X98821428Y-101504761D01*
X99011904Y-101504761D01*
X99107142Y-101457142D01*
X99154761Y-101409523D01*
X99202380Y-101314285D01*
X99202380Y-101123809D01*
X99154761Y-101028571D01*
X99107142Y-100980952D01*
X99011904Y-100933333D01*
X98821428Y-100933333D01*
X98726190Y-100980952D01*
X98678571Y-101028571D01*
X98630952Y-101123809D01*
X91273333Y-120932380D02*
X90940000Y-120456190D01*
X90701904Y-120932380D02*
X90701904Y-119932380D01*
X91082857Y-119932380D01*
X91178095Y-119980000D01*
X91225714Y-120027619D01*
X91273333Y-120122857D01*
X91273333Y-120265714D01*
X91225714Y-120360952D01*
X91178095Y-120408571D01*
X91082857Y-120456190D01*
X90701904Y-120456190D01*
X91749523Y-120932380D02*
X91940000Y-120932380D01*
X92035238Y-120884761D01*
X92082857Y-120837142D01*
X92178095Y-120694285D01*
X92225714Y-120503809D01*
X92225714Y-120122857D01*
X92178095Y-120027619D01*
X92130476Y-119980000D01*
X92035238Y-119932380D01*
X91844761Y-119932380D01*
X91749523Y-119980000D01*
X91701904Y-120027619D01*
X91654285Y-120122857D01*
X91654285Y-120360952D01*
X91701904Y-120456190D01*
X91749523Y-120503809D01*
X91844761Y-120551428D01*
X92035238Y-120551428D01*
X92130476Y-120503809D01*
X92178095Y-120456190D01*
X92225714Y-120360952D01*
X91273333Y-113312380D02*
X90940000Y-112836190D01*
X90701904Y-113312380D02*
X90701904Y-112312380D01*
X91082857Y-112312380D01*
X91178095Y-112360000D01*
X91225714Y-112407619D01*
X91273333Y-112502857D01*
X91273333Y-112645714D01*
X91225714Y-112740952D01*
X91178095Y-112788571D01*
X91082857Y-112836190D01*
X90701904Y-112836190D01*
X91844761Y-112740952D02*
X91749523Y-112693333D01*
X91701904Y-112645714D01*
X91654285Y-112550476D01*
X91654285Y-112502857D01*
X91701904Y-112407619D01*
X91749523Y-112360000D01*
X91844761Y-112312380D01*
X92035238Y-112312380D01*
X92130476Y-112360000D01*
X92178095Y-112407619D01*
X92225714Y-112502857D01*
X92225714Y-112550476D01*
X92178095Y-112645714D01*
X92130476Y-112693333D01*
X92035238Y-112740952D01*
X91844761Y-112740952D01*
X91749523Y-112788571D01*
X91701904Y-112836190D01*
X91654285Y-112931428D01*
X91654285Y-113121904D01*
X91701904Y-113217142D01*
X91749523Y-113264761D01*
X91844761Y-113312380D01*
X92035238Y-113312380D01*
X92130476Y-113264761D01*
X92178095Y-113217142D01*
X92225714Y-113121904D01*
X92225714Y-112931428D01*
X92178095Y-112836190D01*
X92130476Y-112788571D01*
X92035238Y-112740952D01*
X91273333Y-105692380D02*
X90940000Y-105216190D01*
X90701904Y-105692380D02*
X90701904Y-104692380D01*
X91082857Y-104692380D01*
X91178095Y-104740000D01*
X91225714Y-104787619D01*
X91273333Y-104882857D01*
X91273333Y-105025714D01*
X91225714Y-105120952D01*
X91178095Y-105168571D01*
X91082857Y-105216190D01*
X90701904Y-105216190D01*
X91606666Y-104692380D02*
X92273333Y-104692380D01*
X91844761Y-105692380D01*
X92376666Y-52182380D02*
X92376666Y-52896666D01*
X92329047Y-53039523D01*
X92233809Y-53134761D01*
X92090952Y-53182380D01*
X91995714Y-53182380D01*
X93281428Y-52182380D02*
X93090952Y-52182380D01*
X92995714Y-52230000D01*
X92948095Y-52277619D01*
X92852857Y-52420476D01*
X92805238Y-52610952D01*
X92805238Y-52991904D01*
X92852857Y-53087142D01*
X92900476Y-53134761D01*
X92995714Y-53182380D01*
X93186190Y-53182380D01*
X93281428Y-53134761D01*
X93329047Y-53087142D01*
X93376666Y-52991904D01*
X93376666Y-52753809D01*
X93329047Y-52658571D01*
X93281428Y-52610952D01*
X93186190Y-52563333D01*
X92995714Y-52563333D01*
X92900476Y-52610952D01*
X92852857Y-52658571D01*
X92805238Y-52753809D01*
X162226666Y-52182380D02*
X162226666Y-52896666D01*
X162179047Y-53039523D01*
X162083809Y-53134761D01*
X161940952Y-53182380D01*
X161845714Y-53182380D01*
X162607619Y-52182380D02*
X163226666Y-52182380D01*
X162893333Y-52563333D01*
X163036190Y-52563333D01*
X163131428Y-52610952D01*
X163179047Y-52658571D01*
X163226666Y-52753809D01*
X163226666Y-52991904D01*
X163179047Y-53087142D01*
X163131428Y-53134761D01*
X163036190Y-53182380D01*
X162750476Y-53182380D01*
X162655238Y-53134761D01*
X162607619Y-53087142D01*
X93813333Y-89522380D02*
X93480000Y-89046190D01*
X93241904Y-89522380D02*
X93241904Y-88522380D01*
X93622857Y-88522380D01*
X93718095Y-88570000D01*
X93765714Y-88617619D01*
X93813333Y-88712857D01*
X93813333Y-88855714D01*
X93765714Y-88950952D01*
X93718095Y-88998571D01*
X93622857Y-89046190D01*
X93241904Y-89046190D01*
X94194285Y-88617619D02*
X94241904Y-88570000D01*
X94337142Y-88522380D01*
X94575238Y-88522380D01*
X94670476Y-88570000D01*
X94718095Y-88617619D01*
X94765714Y-88712857D01*
X94765714Y-88808095D01*
X94718095Y-88950952D01*
X94146666Y-89522380D01*
X94765714Y-89522380D01*
X111593333Y-85712380D02*
X111260000Y-85236190D01*
X111021904Y-85712380D02*
X111021904Y-84712380D01*
X111402857Y-84712380D01*
X111498095Y-84760000D01*
X111545714Y-84807619D01*
X111593333Y-84902857D01*
X111593333Y-85045714D01*
X111545714Y-85140952D01*
X111498095Y-85188571D01*
X111402857Y-85236190D01*
X111021904Y-85236190D01*
X112545714Y-85712380D02*
X111974285Y-85712380D01*
X112260000Y-85712380D02*
X112260000Y-84712380D01*
X112164761Y-84855238D01*
X112069523Y-84950476D01*
X111974285Y-84998095D01*
X105076666Y-52182380D02*
X105076666Y-52896666D01*
X105029047Y-53039523D01*
X104933809Y-53134761D01*
X104790952Y-53182380D01*
X104695714Y-53182380D01*
X106029047Y-52182380D02*
X105552857Y-52182380D01*
X105505238Y-52658571D01*
X105552857Y-52610952D01*
X105648095Y-52563333D01*
X105886190Y-52563333D01*
X105981428Y-52610952D01*
X106029047Y-52658571D01*
X106076666Y-52753809D01*
X106076666Y-52991904D01*
X106029047Y-53087142D01*
X105981428Y-53134761D01*
X105886190Y-53182380D01*
X105648095Y-53182380D01*
X105552857Y-53134761D01*
X105505238Y-53087142D01*
X140212380Y-62563333D02*
X140926666Y-62563333D01*
X141069523Y-62610952D01*
X141164761Y-62706190D01*
X141212380Y-62849047D01*
X141212380Y-62944285D01*
X140545714Y-61658571D02*
X141212380Y-61658571D01*
X140164761Y-61896666D02*
X140879047Y-62134761D01*
X140879047Y-61515714D01*
X90074761Y-86097619D02*
X89979523Y-86050000D01*
X89884285Y-85954761D01*
X89741428Y-85811904D01*
X89646190Y-85764285D01*
X89550952Y-85764285D01*
X89598571Y-86002380D02*
X89503333Y-85954761D01*
X89408095Y-85859523D01*
X89360476Y-85669047D01*
X89360476Y-85335714D01*
X89408095Y-85145238D01*
X89503333Y-85050000D01*
X89598571Y-85002380D01*
X89789047Y-85002380D01*
X89884285Y-85050000D01*
X89979523Y-85145238D01*
X90027142Y-85335714D01*
X90027142Y-85669047D01*
X89979523Y-85859523D01*
X89884285Y-85954761D01*
X89789047Y-86002380D01*
X89598571Y-86002380D01*
X90408095Y-85097619D02*
X90455714Y-85050000D01*
X90550952Y-85002380D01*
X90789047Y-85002380D01*
X90884285Y-85050000D01*
X90931904Y-85097619D01*
X90979523Y-85192857D01*
X90979523Y-85288095D01*
X90931904Y-85430952D01*
X90360476Y-86002380D01*
X90979523Y-86002380D01*
X104044761Y-86097619D02*
X103949523Y-86050000D01*
X103854285Y-85954761D01*
X103711428Y-85811904D01*
X103616190Y-85764285D01*
X103520952Y-85764285D01*
X103568571Y-86002380D02*
X103473333Y-85954761D01*
X103378095Y-85859523D01*
X103330476Y-85669047D01*
X103330476Y-85335714D01*
X103378095Y-85145238D01*
X103473333Y-85050000D01*
X103568571Y-85002380D01*
X103759047Y-85002380D01*
X103854285Y-85050000D01*
X103949523Y-85145238D01*
X103997142Y-85335714D01*
X103997142Y-85669047D01*
X103949523Y-85859523D01*
X103854285Y-85954761D01*
X103759047Y-86002380D01*
X103568571Y-86002380D01*
X104949523Y-86002380D02*
X104378095Y-86002380D01*
X104663809Y-86002380D02*
X104663809Y-85002380D01*
X104568571Y-85145238D01*
X104473333Y-85240476D01*
X104378095Y-85288095D01*
X153352380Y-115903333D02*
X154066666Y-115903333D01*
X154209523Y-115950952D01*
X154304761Y-116046190D01*
X154352380Y-116189047D01*
X154352380Y-116284285D01*
X153447619Y-115474761D02*
X153400000Y-115427142D01*
X153352380Y-115331904D01*
X153352380Y-115093809D01*
X153400000Y-114998571D01*
X153447619Y-114950952D01*
X153542857Y-114903333D01*
X153638095Y-114903333D01*
X153780952Y-114950952D01*
X154352380Y-115522380D01*
X154352380Y-114903333D01*
X153352380Y-100663333D02*
X154066666Y-100663333D01*
X154209523Y-100710952D01*
X154304761Y-100806190D01*
X154352380Y-100949047D01*
X154352380Y-101044285D01*
X154352380Y-99663333D02*
X154352380Y-100234761D01*
X154352380Y-99949047D02*
X153352380Y-99949047D01*
X153495238Y-100044285D01*
X153590476Y-100139523D01*
X153638095Y-100234761D01*
X163091904Y-76562380D02*
X163091904Y-75562380D01*
X163330000Y-75562380D01*
X163472857Y-75610000D01*
X163568095Y-75705238D01*
X163615714Y-75800476D01*
X163663333Y-75990952D01*
X163663333Y-76133809D01*
X163615714Y-76324285D01*
X163568095Y-76419523D01*
X163472857Y-76514761D01*
X163330000Y-76562380D01*
X163091904Y-76562380D01*
X163996666Y-75562380D02*
X164615714Y-75562380D01*
X164282380Y-75943333D01*
X164425238Y-75943333D01*
X164520476Y-75990952D01*
X164568095Y-76038571D01*
X164615714Y-76133809D01*
X164615714Y-76371904D01*
X164568095Y-76467142D01*
X164520476Y-76514761D01*
X164425238Y-76562380D01*
X164139523Y-76562380D01*
X164044285Y-76514761D01*
X163996666Y-76467142D01*
X171188095Y-75442380D02*
X171188095Y-74442380D01*
X171759523Y-75442380D02*
X171330952Y-74870952D01*
X171759523Y-74442380D02*
X171188095Y-75013809D01*
X90701904Y-76582380D02*
X90701904Y-75582380D01*
X90940000Y-75582380D01*
X91082857Y-75630000D01*
X91178095Y-75725238D01*
X91225714Y-75820476D01*
X91273333Y-76010952D01*
X91273333Y-76153809D01*
X91225714Y-76344285D01*
X91178095Y-76439523D01*
X91082857Y-76534761D01*
X90940000Y-76582380D01*
X90701904Y-76582380D01*
X91654285Y-75677619D02*
X91701904Y-75630000D01*
X91797142Y-75582380D01*
X92035238Y-75582380D01*
X92130476Y-75630000D01*
X92178095Y-75677619D01*
X92225714Y-75772857D01*
X92225714Y-75868095D01*
X92178095Y-76010952D01*
X91606666Y-76582380D01*
X92225714Y-76582380D01*
X96258095Y-76212380D02*
X96258095Y-75212380D01*
X96829523Y-76212380D02*
X96400952Y-75640952D01*
X96829523Y-75212380D02*
X96258095Y-75783809D01*
X104671904Y-76582380D02*
X104671904Y-75582380D01*
X104910000Y-75582380D01*
X105052857Y-75630000D01*
X105148095Y-75725238D01*
X105195714Y-75820476D01*
X105243333Y-76010952D01*
X105243333Y-76153809D01*
X105195714Y-76344285D01*
X105148095Y-76439523D01*
X105052857Y-76534761D01*
X104910000Y-76582380D01*
X104671904Y-76582380D01*
X106195714Y-76582380D02*
X105624285Y-76582380D01*
X105910000Y-76582380D02*
X105910000Y-75582380D01*
X105814761Y-75725238D01*
X105719523Y-75820476D01*
X105624285Y-75868095D01*
X110228095Y-76212380D02*
X110228095Y-75212380D01*
X110799523Y-76212380D02*
X110370952Y-75640952D01*
X110799523Y-75212380D02*
X110228095Y-75783809D01*
M02*
